<svg width="66" height="66" viewBox="0 0 66 66" fill="none" xmlns="http://www.w3.org/2000/svg">
<path d="M33.1799 65.5298C26.7509 65.5298 20.4662 63.6237 15.1204 60.0523C9.77462 56.4809 5.60772 51.4048 3.14652 45.4655C0.685333 39.5263 0.0403605 32.9905 1.29315 26.6848C2.54593 20.379 5.64022 14.5863 10.1848 10.0389C14.7294 5.49148 20.5203 2.39356 26.8253 1.1369C33.1303 -0.119764 39.6663 0.521158 45.6071 2.9787C51.5479 5.43623 56.6266 9.60005 60.2013 14.9437C63.7759 20.2873 65.686 26.5708 65.6899 32.9998C65.6873 41.623 62.2619 49.8926 56.1663 55.992C50.0706 62.0914 41.8031 65.5219 33.1799 65.5298ZM33.1799 1.52984C26.9461 1.52985 20.8524 3.37882 15.6698 6.84295C10.4871 10.3071 6.44841 15.2306 4.06468 20.9907C1.68094 26.7507 1.05928 33.0884 2.27834 39.2018C3.49741 45.3153 6.50243 50.9297 10.9132 55.3349C15.3239 59.7401 20.9422 62.738 27.0572 63.9493C33.1722 65.1606 39.509 64.5308 45.266 62.1397C51.023 59.7487 55.9415 55.7037 59.399 50.5167C62.8566 45.3296 64.6978 39.2336 64.6899 32.9998C64.6741 24.6496 61.3485 16.6461 55.4421 10.7435C49.5357 4.84081 41.5302 1.5204 33.1799 1.50982V1.52984Z" fill="white"/>
<path d="M36.8512 47.4211L22.4512 33.0211L36.8512 18.6211L37.5612 19.3311L23.8712 33.0211L37.5612 46.7111L36.8512 47.4211Z" fill="white"/>
</svg>
