<svg width="23" height="22" viewBox="0 0 23 22" fill="none" xmlns="http://www.w3.org/2000/svg">
<path d="M16.0001 16.4051L16.842 15.563L12.2581 10.9781V5.27808H11.0681V11.4731L16.0001 16.4051ZM11.6671 21.9311C10.2322 21.9403 8.81092 21.6533 7.49207 21.0881C4.92625 20.0059 2.88403 17.9651 1.80005 15.4001C1.24397 14.0786 0.95752 12.6593 0.95752 11.2256C0.95752 9.79186 1.24397 8.37258 1.80005 7.05109C2.88212 4.4867 4.92162 2.44541 7.48505 1.36108C8.80639 0.804398 10.2257 0.517578 11.6595 0.517578C13.0934 0.517578 14.5127 0.804398 15.834 1.36108C18.3989 2.44277 20.4407 4.48234 21.5251 7.04608C22.0818 8.36742 22.3685 9.78676 22.3685 11.2206C22.3685 12.6544 22.0818 14.0737 21.5251 15.3951C20.4424 17.9593 18.4032 20.0007 15.8401 21.0861C14.5233 21.6514 13.1041 21.9391 11.6711 21.9311H11.6671ZM11.6671 20.7421C13.8642 20.7377 15.9919 19.9719 17.6879 18.575C19.3838 17.1781 20.5431 15.2366 20.9684 13.081C21.3937 10.9254 21.0587 8.68902 20.0204 6.75269C18.9821 4.81635 17.3047 3.29975 15.2739 2.46118C13.243 1.62262 10.9844 1.51391 8.88239 2.15356C6.78041 2.79322 4.96513 4.14175 3.74567 5.96942C2.52621 7.79709 1.97795 9.99095 2.19427 12.1774C2.4106 14.3639 3.37811 16.4078 4.93207 17.9611C5.80521 18.86 6.85325 19.5706 8.0116 20.0489C9.16994 20.5272 10.414 20.7631 11.6671 20.7421Z" fill="black"/>
</svg>
