<svg width="66" height="66" viewBox="0 0 66 66" fill="none" xmlns="http://www.w3.org/2000/svg">
<g id="Instagram">
<path id="Vector" d="M32.51 65.51C14.58 65.51 0 50.93 0 33C0 15.07 14.58 0.490051 32.51 0.490051C50.44 0.490051 65.02 15.07 65.02 33C65.03 50.92 50.44 65.51 32.51 65.51ZM32.51 1.48004C15.13 1.48004 1 15.6201 1 32.9901C1 50.3601 15.14 64.5 32.51 64.5C49.88 64.5 64.02 50.3601 64.02 32.9901C64.02 15.6201 49.89 1.48004 32.51 1.48004Z" fill="#F1F1F1"/>
<path id="XMLID_00000068637214295399397570000011924474647126802341_" d="M32.7694 20.97C36.6594 20.97 37.1195 20.98 38.6595 21.06C40.0795 21.12 40.8495 21.36 41.3695 21.56C42.0495 21.82 42.5395 22.14 43.0495 22.65C43.5595 23.16 43.8794 23.65 44.1395 24.33C44.3395 24.84 44.5795 25.62 44.6395 27.04C44.7094 28.58 44.7295 29.04 44.7295 32.93C44.7295 36.82 44.7094 37.28 44.6395 38.82C44.5695 40.24 44.3395 41.01 44.1395 41.53C43.8794 42.21 43.5595 42.7 43.0495 43.21C42.5395 43.72 42.0495 44.04 41.3695 44.3C40.8595 44.5 40.0795 44.74 38.6595 44.8C37.1195 44.87 36.6594 44.88 32.7694 44.88C28.8794 44.88 28.4194 44.87 26.8794 44.8C25.4594 44.74 24.6894 44.5 24.1694 44.3C23.4894 44.04 22.9994 43.72 22.4894 43.21C21.9794 42.7 21.6595 42.21 21.3995 41.53C21.1995 41.02 20.9595 40.24 20.8995 38.82C20.8295 37.28 20.8195 36.82 20.8195 32.93C20.8195 29.04 20.8295 28.58 20.8995 27.04C20.9695 25.62 21.1995 24.85 21.3995 24.33C21.6595 23.65 21.9794 23.16 22.4894 22.65C22.9994 22.14 23.4894 21.82 24.1694 21.56C24.6794 21.36 25.4594 21.12 26.8794 21.06C28.4094 20.98 28.8794 20.97 32.7694 20.97ZM32.7694 18.34C28.8094 18.34 28.3095 18.36 26.7595 18.43C25.2095 18.5 24.1495 18.75 23.2195 19.11C22.2595 19.48 21.4495 19.98 20.6395 20.79C19.8295 21.6 19.3294 22.41 18.9594 23.37C18.5994 24.3 18.3494 25.36 18.2794 26.91C18.2094 28.47 18.1895 28.96 18.1895 32.92C18.1895 36.88 18.2094 37.38 18.2794 38.93C18.3494 40.48 18.5994 41.54 18.9594 42.47C19.3294 43.43 19.8295 44.24 20.6395 45.05C21.4495 45.86 22.2595 46.36 23.2195 46.73C24.1495 47.09 25.2095 47.34 26.7595 47.41C28.3095 47.48 28.8094 47.5 32.7694 47.5C36.7294 47.5 37.2295 47.48 38.7794 47.41C40.3294 47.34 41.3895 47.09 42.3195 46.73C43.2794 46.36 44.0895 45.86 44.8995 45.05C45.7095 44.24 46.2095 43.43 46.5795 42.47C46.9395 41.54 47.1895 40.48 47.2595 38.93C47.3295 37.38 47.3494 36.88 47.3494 32.92C47.3494 28.96 47.3295 28.46 47.2595 26.91C47.1895 25.36 46.9395 24.3 46.5795 23.37C46.2095 22.41 45.7095 21.6 44.8995 20.79C44.0895 19.98 43.2794 19.48 42.3195 19.11C41.3895 18.75 40.3294 18.5 38.7794 18.43C37.2194 18.36 36.7294 18.34 32.7694 18.34Z" fill="#F1F1F1"/>
<path id="XMLID_00000075156615399910786500000010107766369977272200_" d="M32.7693 25.43C28.6393 25.43 25.2793 28.78 25.2793 32.92C25.2793 37.06 28.6293 40.41 32.7693 40.41C36.8993 40.41 40.2593 37.06 40.2593 32.92C40.2593 28.78 36.8993 25.43 32.7693 25.43ZM32.7693 37.78C30.0893 37.78 27.9093 35.6 27.9093 32.92C27.9093 30.24 30.0893 28.06 32.7693 28.06C35.4493 28.06 37.6293 30.24 37.6293 32.92C37.6293 35.6 35.4493 37.78 32.7693 37.78Z" fill="#F1F1F1"/>
<path id="XMLID_00000162325412081897991410000000492431010229996444_" d="M42.3008 25.13C42.3008 26.1 41.5208 26.88 40.5508 26.88C39.5808 26.88 38.8008 26.1 38.8008 25.13C38.8008 24.16 39.5808 23.38 40.5508 23.38C41.5208 23.39 42.3008 24.17 42.3008 25.13Z" fill="#F1F1F1"/>
</g>
</svg>
