<svg width="538" height="636" viewBox="0 0 538 636" fill="none" xmlns="http://www.w3.org/2000/svg">
<path d="M497.25 418.19L496.73 418.13L109.04 369.931L108.92 369.661L3.76953 117.28L4.27954 117.11L358.59 0.320312H358.7L527.099 20.0605V20.5405L497.25 418.19ZM109.74 369.01L496.33 417.01L526.03 20.9106L358.7 1.30029L5.09955 117.891L109.74 369.01Z" fill="white"/>
<path d="M465.829 635.329H465.609L119.609 582.269L107.609 568.269V419.129L123.609 405.129H123.829L479.879 451.309L492.179 466.249L482.179 622.249L465.829 635.329ZM120.089 581.329L465.539 634.329L481.139 621.789L491.139 466.619L479.309 452.189L123.879 406.089L108.569 419.539V567.839L120.089 581.329Z" fill="white"/>
<path d="M184.989 390.5C185.944 390.571 186.84 390.987 187.509 391.67C187.796 391.985 188.006 392.362 188.124 392.771C188.242 393.181 188.264 393.611 188.189 394.03C188.167 394.464 188.042 394.886 187.824 395.261C187.607 395.637 187.304 395.955 186.939 396.19C186.109 396.652 185.143 396.808 184.209 396.63L184.039 396.71L181.649 396.391L181.109 400.51L179.449 400.291L180.809 389.99L184.989 390.5ZM184.229 395.271C184.758 395.384 185.309 395.309 185.789 395.061C185.985 394.923 186.146 394.742 186.26 394.532C186.375 394.322 186.439 394.089 186.449 393.851C186.499 393.619 186.496 393.379 186.441 393.149C186.385 392.919 186.279 392.704 186.129 392.521C185.734 392.15 185.22 391.931 184.679 391.9L182.259 391.581L181.819 394.95L184.229 395.271ZM185.169 395.75L187.849 401.351L185.929 401.101L183.649 396.21L185.169 395.75Z" fill="#EEEEEE"/>
<path d="M192.3 402.101C191.816 402.04 191.349 401.88 190.93 401.63C190.529 401.398 190.208 401.049 190.01 400.63C189.799 400.1 189.741 399.522 189.84 398.96L190.51 393.811L192.18 394.03L191.56 398.76C191.496 399.016 191.485 399.283 191.53 399.543C191.575 399.803 191.674 400.051 191.82 400.271C192.138 400.605 192.57 400.808 193.03 400.84C193.289 400.88 193.552 400.88 193.81 400.84C194.07 400.776 194.315 400.661 194.53 400.5C194.767 400.323 194.956 400.089 195.08 399.82C195.238 399.506 195.343 399.168 195.39 398.82L195.94 394.59L197.61 394.811L196.61 402.621L195.14 402.42L195.23 401.15C194.92 401.579 194.488 401.903 193.99 402.081C193.436 402.22 192.857 402.227 192.3 402.101Z" fill="#EEEEEE"/>
<path d="M204.36 398.441C204.403 398.222 204.403 397.997 204.358 397.779C204.313 397.561 204.226 397.354 204.1 397.171C203.961 397.003 203.789 396.865 203.595 396.765C203.401 396.666 203.188 396.606 202.971 396.59C202.551 396.518 202.118 396.574 201.73 396.751C201.335 396.975 201.028 397.328 200.86 397.751L199.531 396.97C199.806 396.364 200.288 395.875 200.891 395.59C201.62 395.273 202.426 395.176 203.211 395.311C203.778 395.374 204.326 395.554 204.821 395.84C205.253 396.085 205.602 396.454 205.821 396.901C206.059 397.401 206.133 397.965 206.031 398.51L205.571 401.99C205.549 402.068 205.545 402.149 205.56 402.228C205.575 402.306 205.608 402.381 205.657 402.444C205.705 402.508 205.768 402.56 205.839 402.596C205.911 402.632 205.99 402.65 206.071 402.651C206.256 402.676 206.445 402.676 206.631 402.651L206.391 403.791C206.089 403.879 205.771 403.899 205.461 403.851C205.15 403.81 204.851 403.708 204.581 403.55C204.339 403.399 204.148 403.18 204.031 402.921C203.909 402.623 203.874 402.297 203.931 401.981V401.871H204.281C204.139 402.246 203.888 402.57 203.561 402.8C203.232 403.026 202.861 403.183 202.471 403.26C202.076 403.32 201.675 403.32 201.281 403.26C200.829 403.206 200.391 403.067 199.99 402.851C199.625 402.66 199.33 402.357 199.15 401.986C198.97 401.615 198.914 401.196 198.99 400.791C199.02 400.525 199.102 400.267 199.233 400.033C199.363 399.8 199.539 399.595 199.751 399.431C200.259 399.086 200.856 398.894 201.471 398.881L204.571 398.691L204.401 399.86L202.141 400.021C201.795 400.025 201.453 400.103 201.141 400.251C201.023 400.314 200.922 400.405 200.849 400.517C200.776 400.629 200.731 400.757 200.721 400.891C200.697 401.025 200.708 401.163 200.752 401.292C200.795 401.421 200.871 401.538 200.971 401.631C201.207 401.849 201.51 401.982 201.831 402.01C202.086 402.04 202.345 402.04 202.6 402.01C202.846 401.985 203.084 401.91 203.3 401.791C203.52 401.681 203.706 401.516 203.841 401.311C203.981 401.071 204.073 400.806 204.11 400.53L204.36 398.441Z" fill="#EEEEEE"/>
<path d="M221.999 403.08C221.73 403.647 221.337 404.145 220.849 404.54C220.384 404.916 219.841 405.182 219.259 405.32C218.504 405.484 217.722 405.489 216.964 405.334C216.207 405.179 215.49 404.868 214.859 404.42C214.194 403.908 213.693 403.213 213.419 402.42C213.123 401.476 213.048 400.477 213.199 399.5C213.311 398.514 213.654 397.569 214.199 396.74C214.668 396.023 215.34 395.462 216.129 395.13C216.966 394.794 217.878 394.69 218.769 394.83C219.394 394.902 220.002 395.078 220.569 395.35C221.066 395.582 221.504 395.924 221.849 396.35C222.198 396.797 222.44 397.316 222.559 397.87L220.889 398.37C220.829 397.813 220.572 397.295 220.166 396.908C219.759 396.522 219.229 396.292 218.669 396.26C218.081 396.173 217.481 396.257 216.939 396.5C216.402 396.747 215.952 397.152 215.649 397.66C215.288 398.272 215.06 398.954 214.979 399.66C214.867 400.37 214.901 401.094 215.079 401.79C215.222 402.358 215.536 402.868 215.979 403.25C216.444 403.632 217.011 403.869 217.609 403.93C218.194 404.019 218.793 403.921 219.319 403.65C219.858 403.353 220.278 402.88 220.509 402.31L221.999 403.08Z" fill="#EEEEEE"/>
<path d="M226.941 406.67C226.219 406.597 225.529 406.335 224.941 405.91C224.394 405.517 223.977 404.97 223.741 404.34C223.482 403.62 223.413 402.845 223.541 402.09C223.62 401.333 223.888 400.607 224.321 399.98C224.704 399.428 225.244 399.003 225.871 398.76C226.508 398.52 227.196 398.445 227.871 398.54C228.55 398.605 229.197 398.858 229.741 399.27C230.204 399.646 230.551 400.145 230.741 400.71C230.954 401.316 231.015 401.965 230.921 402.6C230.903 402.779 230.873 402.956 230.831 403.13C230.808 403.276 230.774 403.42 230.731 403.56L224.461 402.73L224.631 401.45L230.171 402.19L229.311 402.33C229.424 401.744 229.309 401.135 228.991 400.63C228.828 400.411 228.621 400.229 228.383 400.096C228.145 399.964 227.882 399.883 227.611 399.86C227.2 399.804 226.782 399.859 226.401 400.02C226.029 400.199 225.721 400.489 225.521 400.85C225.263 401.302 225.103 401.803 225.051 402.32C224.971 402.827 225.001 403.346 225.141 403.84C225.262 404.231 225.495 404.579 225.811 404.84C226.154 405.102 226.562 405.264 226.991 405.31C227.428 405.386 227.877 405.341 228.291 405.18C228.645 405.026 228.947 404.772 229.161 404.45L230.411 405.25C230.174 405.599 229.872 405.897 229.521 406.13C229.153 406.368 228.741 406.531 228.311 406.61C227.86 406.7 227.398 406.72 226.941 406.67Z" fill="#EEEEEE"/>
<path d="M235.679 396.189L234.469 405.319C234.405 405.595 234.441 405.886 234.569 406.139C234.648 406.233 234.746 406.309 234.856 406.362C234.966 406.416 235.087 406.445 235.209 406.449C235.369 406.463 235.529 406.463 235.689 406.449C235.865 406.442 236.039 406.415 236.209 406.369L235.849 407.589C235.644 407.653 235.433 407.693 235.219 407.709C234.986 407.734 234.752 407.734 234.519 407.709C234.237 407.696 233.962 407.623 233.71 407.495C233.458 407.368 233.237 407.188 233.059 406.969C232.758 406.445 232.662 405.829 232.789 405.239L234.009 395.969L235.679 396.189Z" fill="#EEEEEE"/>
<path d="M238.649 405.911C238.963 405.942 239.253 406.092 239.459 406.331C239.635 406.582 239.71 406.89 239.67 407.194C239.629 407.497 239.475 407.775 239.239 407.97C239.112 408.062 238.968 408.127 238.815 408.162C238.662 408.196 238.503 408.199 238.349 408.171C238.028 408.145 237.73 407.994 237.519 407.751C237.337 407.5 237.261 407.187 237.309 406.881C237.322 406.728 237.367 406.579 237.441 406.445C237.515 406.31 237.617 406.193 237.739 406.101C238.006 405.921 238.333 405.853 238.649 405.911Z" fill="#EEEEEE"/>
<path d="M255.71 401.281L249.93 400.521L249.54 403.521L254.06 404.121L253.87 405.551L249.35 404.951L248.76 409.391L247.09 409.171L248.45 398.871L255.9 399.871L255.71 401.281Z" fill="#EEEEEE"/>
<path d="M258.94 410.889C258.221 410.813 257.532 410.555 256.94 410.139C256.393 409.744 255.979 409.194 255.75 408.559C255.514 407.836 255.442 407.069 255.541 406.315C255.64 405.56 255.906 404.837 256.32 404.199C256.708 403.654 257.247 403.233 257.87 402.989C258.507 402.748 259.195 402.669 259.87 402.759C260.548 402.83 261.193 403.082 261.74 403.489C262.222 403.857 262.586 404.358 262.79 404.929C263.002 405.539 263.064 406.191 262.97 406.829L262.88 407.359C262.88 407.519 262.81 407.659 262.78 407.789L256.5 406.959L256.67 405.679L262.21 406.409L261.35 406.549C261.471 405.964 261.359 405.354 261.04 404.849C260.877 404.632 260.67 404.451 260.432 404.32C260.194 404.189 259.931 404.11 259.66 404.089C259.25 404.022 258.829 404.078 258.45 404.249C258.076 404.424 257.765 404.71 257.56 405.069C257.311 405.524 257.155 406.024 257.1 406.539C257.017 407.046 257.044 407.564 257.18 408.059C257.298 408.455 257.536 408.804 257.86 409.059C258.199 409.321 258.604 409.483 259.03 409.529C259.47 409.61 259.924 409.565 260.34 409.399C260.693 409.248 260.995 408.998 261.21 408.679L262.46 409.479C262.223 409.825 261.921 410.12 261.57 410.349C261.206 410.594 260.793 410.757 260.36 410.829C259.893 410.924 259.414 410.945 258.94 410.889Z" fill="#EEEEEE"/>
<path d="M264.59 411.47L265.59 403.67L267.01 403.86V405.28C267.259 404.844 267.636 404.495 268.09 404.28C268.587 404.066 269.135 403.997 269.67 404.08C269.825 404.107 269.979 404.144 270.13 404.19C270.261 404.223 270.386 404.278 270.5 404.35L270.08 405.79C269.962 405.728 269.838 405.678 269.71 405.64C269.522 405.59 269.332 405.55 269.14 405.52C268.8 405.48 268.456 405.529 268.14 405.66C267.789 405.796 267.484 406.028 267.26 406.33C266.988 406.702 266.823 407.141 266.78 407.6L266.24 411.73L264.59 411.47Z" fill="#EEEEEE"/>
<path d="M271.051 412.33L272.051 404.52L273.531 404.719L273.371 406.719L273.181 406.469C273.371 406.087 273.636 405.747 273.961 405.469C274.271 405.214 274.638 405.036 275.031 404.949C275.441 404.879 275.86 404.879 276.271 404.949C276.788 405.006 277.285 405.185 277.721 405.469C278.129 405.733 278.449 406.113 278.641 406.56C278.861 407.091 278.923 407.674 278.821 408.239L278.151 413.299L276.481 413.08L277.081 408.529C277.151 408.249 277.163 407.958 277.119 407.673C277.074 407.388 276.973 407.115 276.821 406.87C276.535 406.527 276.125 406.311 275.681 406.27C275.343 406.227 275.001 406.264 274.681 406.379C274.321 406.514 274.006 406.746 273.771 407.049C273.486 407.457 273.313 407.934 273.271 408.43L272.721 412.58L271.051 412.33Z" fill="#EEEEEE"/>
<path d="M285.879 409.19C285.923 408.973 285.921 408.748 285.875 408.532C285.829 408.315 285.738 408.111 285.609 407.93C285.471 407.762 285.301 407.624 285.109 407.522C284.916 407.421 284.706 407.359 284.489 407.34C284.068 407.275 283.637 407.334 283.249 407.51C282.846 407.727 282.534 408.082 282.369 408.51L281.049 407.73C281.325 407.123 281.807 406.634 282.409 406.35C283.138 406.028 283.945 405.93 284.729 406.07C285.295 406.135 285.842 406.312 286.339 406.59C286.771 406.841 287.118 407.213 287.339 407.66C287.568 408.164 287.641 408.724 287.549 409.27L287.089 412.75C287.068 412.827 287.064 412.908 287.079 412.987C287.094 413.066 287.127 413.14 287.176 413.204C287.224 413.268 287.287 413.32 287.358 413.355C287.43 413.391 287.509 413.41 287.589 413.41C287.775 413.435 287.964 413.435 288.149 413.41L287.899 414.55C287.598 414.638 287.28 414.659 286.969 414.61C286.662 414.568 286.367 414.466 286.099 414.31C285.858 414.159 285.667 413.94 285.549 413.68C285.424 413.384 285.386 413.057 285.439 412.74V412.63H285.779C285.647 413.007 285.398 413.333 285.069 413.56C284.74 413.784 284.37 413.941 283.979 414.02C283.582 414.08 283.177 414.08 282.779 414.02C282.327 413.966 281.89 413.826 281.489 413.61C281.125 413.418 280.831 413.115 280.651 412.744C280.471 412.373 280.414 411.955 280.489 411.55C280.519 411.284 280.601 411.027 280.731 410.793C280.862 410.559 281.038 410.354 281.249 410.19C281.755 409.846 282.348 409.655 282.959 409.64L286.069 409.45L285.899 410.62L283.639 410.78C283.293 410.784 282.952 410.862 282.639 411.01C282.521 411.073 282.421 411.165 282.348 411.276C282.274 411.388 282.23 411.517 282.219 411.65C282.197 411.783 282.207 411.92 282.248 412.049C282.29 412.178 282.363 412.295 282.459 412.39C282.699 412.61 283.005 412.744 283.329 412.77C283.585 412.8 283.843 412.8 284.099 412.77C284.345 412.743 284.582 412.668 284.799 412.55C285.016 412.44 285.199 412.274 285.329 412.07C285.479 411.834 285.571 411.567 285.599 411.29L285.879 409.19Z" fill="#EEEEEE"/>
<path d="M289.609 414.769L290.609 406.969L292.089 407.169L291.929 409.169L291.739 408.919C291.927 408.535 292.193 408.195 292.519 407.919C292.83 407.664 293.197 407.485 293.589 407.399C294 407.329 294.419 407.329 294.829 407.399C295.342 407.456 295.835 407.631 296.269 407.909C296.681 408.176 297.005 408.559 297.199 409.009C297.413 409.541 297.476 410.123 297.379 410.689L296.709 415.739L295.039 415.519L295.639 410.979C295.708 410.698 295.72 410.407 295.673 410.122C295.627 409.836 295.524 409.563 295.369 409.319C295.231 409.148 295.059 409.007 294.865 408.904C294.671 408.801 294.458 408.738 294.239 408.719C293.902 408.676 293.559 408.714 293.239 408.829C292.879 408.958 292.563 409.186 292.329 409.489C292.04 409.895 291.864 410.372 291.819 410.869L291.279 415.019L289.609 414.769Z" fill="#EEEEEE"/>
<path d="M302.241 416.601C301.621 416.526 301.035 416.276 300.551 415.881C300.061 415.472 299.694 414.936 299.491 414.331C299.266 413.61 299.212 412.847 299.331 412.101C299.405 411.332 299.67 410.592 300.101 409.951C300.472 409.417 300.985 408.998 301.581 408.741C302.16 408.491 302.797 408.408 303.421 408.501C304.036 408.556 304.61 408.829 305.041 409.271C305.449 409.689 305.706 410.231 305.771 410.811L305.561 410.951L306.291 405.461L307.961 405.681L306.461 417.001L304.981 416.801L305.141 414.661L305.351 414.711C305.231 415.143 305 415.536 304.681 415.851C304.366 416.15 303.986 416.372 303.571 416.501C303.139 416.624 302.686 416.659 302.241 416.601ZM302.781 415.301C303.191 415.369 303.612 415.302 303.981 415.111C304.353 414.913 304.659 414.61 304.861 414.241C305.109 413.789 305.265 413.293 305.321 412.781C305.393 412.304 305.366 411.817 305.241 411.351C305.132 410.966 304.917 410.62 304.621 410.351C304.223 410.038 303.729 409.872 303.222 409.881C302.716 409.89 302.228 410.074 301.841 410.401C301.348 410.921 301.051 411.596 301.001 412.311C300.869 413.012 300.974 413.737 301.301 414.371C301.455 414.634 301.669 414.855 301.927 415.017C302.185 415.179 302.478 415.276 302.781 415.301Z" fill="#EEEEEE"/>
<path d="M313.489 409.82C314.211 409.889 314.9 410.148 315.489 410.57C316.03 410.968 316.441 411.518 316.669 412.15C316.926 412.867 316.999 413.637 316.88 414.39C316.797 415.15 316.529 415.877 316.099 416.51C315.711 417.055 315.173 417.475 314.549 417.72C313.888 417.951 313.181 418.024 312.486 417.932C311.791 417.84 311.128 417.586 310.549 417.19C310.006 416.791 309.592 416.242 309.359 415.61C309.103 414.892 309.03 414.122 309.15 413.37C309.226 412.61 309.498 411.883 309.94 411.26C310.327 410.712 310.866 410.288 311.489 410.04C312.129 409.806 312.815 409.73 313.489 409.82ZM313.32 411.14C312.9 411.067 312.467 411.122 312.08 411.3C311.709 411.481 311.403 411.771 311.2 412.13C310.718 413.052 310.58 414.115 310.81 415.13C310.914 415.519 311.134 415.867 311.44 416.13C311.773 416.387 312.169 416.553 312.587 416.609C313.004 416.665 313.43 416.61 313.82 416.45C314.187 416.263 314.49 415.97 314.69 415.61C314.947 415.161 315.107 414.664 315.159 414.15C315.235 413.64 315.211 413.121 315.09 412.62C314.987 412.217 314.762 411.856 314.444 411.587C314.127 411.318 313.734 411.155 313.32 411.12V411.14Z" fill="#EEEEEE"/>
<path d="M335.62 410.359L334.26 420.659L332.71 420.459L333.5 414.459L334 411.629L329.71 420.019L328.32 419.839L326.32 410.619L326.07 413.479L325.28 419.479L323.74 419.269L325.09 408.969L327.58 409.299L328.86 415.529L329.26 418.079L330.32 415.729L333.16 410.039L335.62 410.359Z" fill="#EEEEEE"/>
<path d="M342.18 416.61C342.223 416.391 342.221 416.165 342.175 415.947C342.128 415.729 342.038 415.522 341.91 415.34C341.772 415.172 341.602 415.034 341.41 414.934C341.217 414.834 341.006 414.775 340.79 414.76C340.365 414.689 339.93 414.749 339.54 414.93C339.138 415.147 338.828 415.502 338.67 415.93L337.34 415.15C337.619 414.545 338.105 414.059 338.71 413.78C339.434 413.456 340.238 413.355 341.02 413.49C341.589 413.558 342.14 413.738 342.64 414.02C343.07 414.267 343.418 414.635 343.64 415.08C343.869 415.587 343.942 416.151 343.85 416.7L343.39 420.18C343.368 420.257 343.364 420.337 343.379 420.415C343.394 420.494 343.427 420.567 343.476 420.631C343.524 420.694 343.587 420.745 343.659 420.78C343.731 420.814 343.81 420.831 343.89 420.83C344.072 420.855 344.257 420.855 344.44 420.83L344.2 421.98C343.897 422.064 343.579 422.081 343.27 422.03C342.962 421.992 342.665 421.89 342.4 421.73C342.151 421.584 341.955 421.364 341.84 421.1C341.722 420.801 341.688 420.477 341.74 420.16V420.05H342.09C341.951 420.423 341.704 420.748 341.38 420.98C341.052 421.208 340.681 421.364 340.29 421.44C339.892 421.504 339.487 421.504 339.09 421.44C338.637 421.39 338.198 421.251 337.8 421.03C337.449 420.839 337.16 420.55 336.97 420.2C336.783 419.822 336.72 419.395 336.79 418.98C336.815 418.713 336.895 418.454 337.026 418.22C337.157 417.985 337.335 417.781 337.55 417.62C338.053 417.264 338.653 417.072 339.27 417.07L342.38 416.87L342.21 418.04L339.94 418.19C339.594 418.2 339.255 418.278 338.94 418.42C338.822 418.484 338.722 418.578 338.65 418.692C338.578 418.805 338.537 418.935 338.53 419.07C338.507 419.202 338.517 419.337 338.559 419.465C338.601 419.592 338.673 419.707 338.77 419.8C339.004 420.022 339.308 420.156 339.63 420.18C339.885 420.21 340.144 420.21 340.4 420.18C340.647 420.148 340.887 420.073 341.11 419.96C341.324 419.843 341.507 419.675 341.64 419.47C341.789 419.234 341.881 418.967 341.91 418.69L342.18 416.61Z" fill="#EEEEEE"/>
<path d="M350.309 414.68C350.855 414.737 351.385 414.9 351.869 415.16C352.266 415.39 352.607 415.704 352.869 416.08C353.122 416.453 353.302 416.87 353.399 417.31L351.739 417.73C351.693 417.293 351.519 416.879 351.239 416.54C350.947 416.233 350.552 416.043 350.129 416.01C349.709 415.941 349.278 415.997 348.889 416.17C348.517 416.349 348.21 416.639 348.009 417C347.759 417.45 347.602 417.947 347.549 418.46C347.468 418.966 347.492 419.483 347.619 419.98C347.726 420.37 347.949 420.719 348.259 420.98C348.588 421.245 348.988 421.408 349.409 421.45C349.723 421.502 350.045 421.482 350.349 421.39C350.624 421.315 350.873 421.166 351.069 420.96C351.279 420.741 351.436 420.478 351.529 420.19L352.979 420.91C352.778 421.342 352.489 421.727 352.129 422.04C351.769 422.354 351.341 422.58 350.879 422.7C350.353 422.834 349.806 422.861 349.269 422.78C348.549 422.705 347.861 422.447 347.269 422.03C346.72 421.635 346.302 421.085 346.069 420.45C345.836 419.719 345.791 418.942 345.939 418.19C346.015 417.432 346.284 416.705 346.719 416.08C347.106 415.527 347.649 415.102 348.279 414.86C348.93 414.629 349.628 414.567 350.309 414.68Z" fill="#EEEEEE"/>
<path d="M354.66 423.349L356.15 412.039L357.82 412.259L357.19 417.019C357.481 416.589 357.901 416.263 358.39 416.089C358.877 415.917 359.399 415.866 359.91 415.939C360.425 416.005 360.92 416.183 361.36 416.459C361.768 416.727 362.089 417.11 362.28 417.559C362.5 418.09 362.562 418.673 362.46 419.239L361.79 424.289L360.12 424.069L360.72 419.549C360.856 418.98 360.763 418.38 360.46 417.879C360.321 417.706 360.148 417.563 359.952 417.458C359.756 417.354 359.541 417.289 359.32 417.269C358.983 417.225 358.64 417.263 358.32 417.379C357.955 417.508 357.636 417.741 357.4 418.049C357.109 418.462 356.933 418.945 356.89 419.449L356.35 423.569L354.66 423.349Z" fill="#EEEEEE"/>
<path d="M369.49 420.19C369.533 419.971 369.532 419.745 369.485 419.527C369.439 419.309 369.349 419.102 369.22 418.919C369.081 418.753 368.911 418.616 368.718 418.517C368.526 418.417 368.316 418.357 368.1 418.339C367.679 418.269 367.247 418.329 366.86 418.509C366.455 418.725 366.142 419.08 365.98 419.509L364.66 418.739C364.935 418.133 365.418 417.644 366.02 417.359C366.748 417.037 367.556 416.94 368.34 417.08C368.907 417.14 369.455 417.317 369.95 417.6C370.379 417.849 370.726 418.217 370.95 418.66C371.18 419.167 371.253 419.73 371.16 420.279L370.7 423.759C370.68 423.836 370.678 423.916 370.694 423.994C370.71 424.071 370.743 424.144 370.791 424.207C370.84 424.269 370.901 424.32 370.972 424.355C371.043 424.39 371.121 424.409 371.2 424.41C371.386 424.435 371.574 424.435 371.76 424.41L371.51 425.549C371.208 425.634 370.89 425.652 370.58 425.6C370.271 425.569 369.973 425.466 369.71 425.299C369.465 425.153 369.272 424.932 369.16 424.669C369.034 424.373 368.995 424.047 369.05 423.73V423.62H369.39C369.257 423.997 369.009 424.322 368.68 424.549C368.353 424.777 367.982 424.934 367.59 425.009C367.193 425.074 366.787 425.074 366.39 425.009C365.937 424.96 365.499 424.821 365.1 424.6C364.748 424.414 364.461 424.124 364.28 423.77C364.093 423.392 364.03 422.965 364.1 422.549C364.125 422.282 364.205 422.023 364.336 421.789C364.467 421.555 364.645 421.35 364.86 421.19C365.361 420.836 365.957 420.644 366.57 420.64L369.68 420.44L369.51 421.609L367.25 421.77C366.905 421.783 366.566 421.861 366.25 422C366.132 422.065 366.032 422.159 365.959 422.272C365.885 422.385 365.841 422.515 365.83 422.649C365.807 422.783 365.817 422.92 365.859 423.049C365.901 423.178 365.973 423.295 366.07 423.39C366.311 423.606 366.617 423.736 366.94 423.759C367.196 423.794 367.455 423.794 367.71 423.759C367.955 423.732 368.193 423.657 368.41 423.54C368.624 423.427 368.807 423.262 368.94 423.06C369.091 422.821 369.183 422.55 369.21 422.27L369.49 420.19Z" fill="#EEEEEE"/>
<path d="M376.18 426.351C375.559 426.278 374.972 426.028 374.49 425.631C373.994 425.228 373.625 424.689 373.43 424.081C373.201 423.361 373.143 422.598 373.26 421.851C373.342 421.082 373.609 420.344 374.039 419.701C374.402 419.173 374.906 418.758 375.492 418.502C376.079 418.246 376.726 418.159 377.359 418.251C377.955 418.309 378.513 418.571 378.939 418.991C379.365 419.412 379.634 419.966 379.7 420.561L379.49 420.701L380.22 415.211L381.89 415.431L380.4 426.751L378.909 426.551L379.07 424.411L379.289 424.461C379.168 424.886 378.939 425.272 378.626 425.584C378.313 425.896 377.925 426.121 377.5 426.241C377.073 426.373 376.622 426.411 376.18 426.351ZM376.71 425.051C377.12 425.119 377.541 425.052 377.909 424.861C378.284 424.666 378.59 424.363 378.789 423.991C379.042 423.541 379.198 423.044 379.25 422.531C379.327 422.054 379.3 421.566 379.169 421.101C379.068 420.713 378.852 420.365 378.55 420.101C378.251 419.846 377.881 419.689 377.49 419.651C377.184 419.595 376.869 419.611 376.57 419.698C376.272 419.785 375.998 419.94 375.77 420.151C375.277 420.671 374.98 421.346 374.93 422.061C374.797 422.762 374.903 423.487 375.229 424.121C375.384 424.383 375.599 424.603 375.857 424.765C376.114 424.927 376.407 425.025 376.71 425.051Z" fill="#EEEEEE"/>
<path d="M387.421 419.569C388.125 419.648 388.796 419.906 389.371 420.319C389.912 420.718 390.322 421.268 390.551 421.899C390.808 422.617 390.88 423.387 390.761 424.14C390.681 424.9 390.413 425.628 389.981 426.259C389.595 426.806 389.056 427.227 388.431 427.469C387.769 427.701 387.063 427.774 386.368 427.682C385.673 427.59 385.009 427.335 384.431 426.939C383.891 426.538 383.477 425.989 383.241 425.359C383 424.638 382.928 423.871 383.028 423.117C383.129 422.363 383.4 421.642 383.821 421.009C384.211 420.459 384.753 420.035 385.381 419.79C386.032 419.547 386.733 419.471 387.421 419.569ZM387.251 420.89C386.831 420.816 386.399 420.872 386.011 421.049C385.643 421.23 385.339 421.52 385.141 421.879C384.882 422.327 384.722 422.825 384.671 423.339C384.59 423.845 384.614 424.363 384.741 424.859C384.845 425.249 385.065 425.597 385.371 425.859C385.701 426.131 386.105 426.298 386.531 426.339C386.942 426.412 387.365 426.356 387.741 426.176C388.118 425.997 388.429 425.704 388.631 425.339C388.88 424.888 389.037 424.392 389.091 423.879C389.177 423.37 389.153 422.849 389.021 422.35C388.917 421.96 388.697 421.612 388.391 421.35C388.065 421.086 387.668 420.926 387.251 420.89Z" fill="#EEEEEE"/>
<path d="M101.8 57.9295C102.653 57.5784 103.604 57.5462 104.48 57.8392C104.871 57.9889 105.224 58.2262 105.51 58.533C105.796 58.8398 106.008 59.2079 106.13 59.6092C106.291 59.9916 106.359 60.4072 106.328 60.8211C106.296 61.235 106.167 61.6353 105.95 61.9891C105.447 62.7558 104.689 63.3196 103.81 63.5794L103.73 63.699L101.33 64.5594L102.78 68.6195L101.6 69.0394L98.0996 59.2591L101.8 57.9295ZM103.44 62.5491C104.012 62.3968 104.51 62.0414 104.84 61.5491C104.961 61.3209 105.028 61.0681 105.037 60.8099C105.045 60.5517 104.995 60.2952 104.89 60.0594C104.819 59.8077 104.692 59.5754 104.519 59.3797C104.346 59.184 104.131 59.0301 103.89 58.9295C103.32 58.7652 102.711 58.8073 102.17 59.0491L99.6596 59.9393L100.91 63.4393L103.44 62.5491ZM104.2 62.5491L109.2 66.3294L107.79 66.8392L103.44 63.5594L104.2 62.5491Z" fill="#EEEEEE"/>
<path d="M113.8 64.8394C113.342 65.0056 112.856 65.0805 112.37 65.0596C111.884 65.0281 111.418 64.8542 111.03 64.5596C110.584 64.1829 110.254 63.6867 110.08 63.1294L108.34 58.2695L109.53 57.8496L111.16 62.3994C111.221 62.6852 111.342 62.9549 111.514 63.1909C111.686 63.427 111.906 63.6242 112.16 63.7695C112.661 63.9339 113.206 63.9087 113.69 63.6992C113.967 63.6018 114.224 63.4565 114.45 63.2695C114.684 63.0788 114.875 62.8399 115.01 62.5693C115.162 62.258 115.241 61.9159 115.24 61.5693C115.243 61.1591 115.168 60.7522 115.02 60.3696L113.58 56.3696L114.77 55.9492L117.42 63.3594L116.42 63.7295L115.94 62.6294C115.856 63.1423 115.61 63.6151 115.24 63.9795C114.831 64.3712 114.339 64.6651 113.8 64.8394Z" fill="#EEEEEE"/>
<path d="M122.83 56.0501C122.762 55.813 122.647 55.5919 122.493 55.3997C122.338 55.2074 122.147 55.0481 121.93 54.9304C121.707 54.8312 121.465 54.7795 121.22 54.7795C120.976 54.7795 120.734 54.8312 120.51 54.9304C120.045 55.0773 119.632 55.3548 119.32 55.7302C119.028 56.1169 118.886 56.5967 118.92 57.0803L117.74 56.8303C117.745 56.2001 117.963 55.5901 118.36 55.1004C118.829 54.5279 119.455 54.1038 120.16 53.8801C120.658 53.6939 121.189 53.6089 121.72 53.6301C122.196 53.6497 122.655 53.8097 123.04 54.0901C123.462 54.4232 123.772 54.8769 123.93 55.3904L125.21 58.9802C125.229 59.0582 125.266 59.1308 125.318 59.1921C125.369 59.2535 125.435 59.3018 125.508 59.3337C125.582 59.3657 125.662 59.3803 125.742 59.3762C125.822 59.3721 125.9 59.3496 125.97 59.3103C126.154 59.2426 126.329 59.1518 126.49 59.0403L126.77 59.99C126.562 60.1814 126.317 60.328 126.05 60.4202C125.785 60.5184 125.502 60.5559 125.22 60.53C124.957 60.5052 124.708 60.3965 124.51 60.22C124.276 60.0144 124.103 59.7478 124.01 59.45L123.96 59.3103L124.27 59.2503C124.298 59.652 124.204 60.0527 124 60.4002C123.804 60.7412 123.542 61.04 123.23 61.28C122.928 61.5154 122.591 61.7013 122.23 61.8303C121.813 61.9771 121.373 62.0482 120.93 62.0403C120.528 62.036 120.135 61.9143 119.8 61.6902C119.454 61.444 119.194 61.0937 119.06 60.6902C118.962 60.4381 118.917 60.1681 118.929 59.8977C118.941 59.6273 119.01 59.3627 119.13 59.1204C119.418 58.5722 119.864 58.1228 120.41 57.8303L123.14 56.2L123.49 57.2L121.28 58.5403C120.916 58.7363 120.599 59.0091 120.35 59.3401C120.263 59.4655 120.208 59.6112 120.192 59.7634C120.177 59.9157 120.2 60.0695 120.26 60.2102C120.311 60.3549 120.394 60.486 120.503 60.5935C120.612 60.701 120.745 60.7822 120.89 60.8303C121.265 60.9353 121.664 60.9069 122.02 60.7503C122.297 60.6536 122.56 60.5191 122.8 60.3503C123.028 60.1876 123.227 59.9879 123.39 59.76C123.539 59.5306 123.635 59.2712 123.67 59.0003C123.702 58.7015 123.661 58.3997 123.55 58.1204L122.83 56.0501Z" fill="#EEEEEE"/>
<path d="M133.201 46.7104C133.844 46.4425 134.534 46.3047 135.231 46.3047C135.927 46.3047 136.617 46.4425 137.261 46.7104C137.889 47.0295 138.446 47.4749 138.895 48.0186C139.344 48.5623 139.676 49.1928 139.871 49.8706C140.155 50.515 140.301 51.2113 140.301 51.9155C140.301 52.6197 140.155 53.3161 139.871 53.9604C139.541 54.5742 139.093 55.1162 138.552 55.5557C138.011 55.9951 137.389 56.3232 136.721 56.5205L133.561 57.6504L130.061 47.8706L133.201 46.7104ZM136.421 55.3403C136.913 55.1946 137.369 54.9467 137.758 54.6123C138.148 54.278 138.462 53.8648 138.681 53.4004C139.069 52.3966 139.051 51.2813 138.631 50.2905C138.325 49.2538 137.63 48.3755 136.691 47.8403C136.224 47.6171 135.714 47.4962 135.197 47.4858C134.68 47.4755 134.166 47.5758 133.691 47.7803L131.601 48.5303L134.301 56.0806L136.421 55.3403Z" fill="#EEEEEE"/>
<path d="M146.739 53.0698C146.282 53.2377 145.795 53.3092 145.309 53.2798C144.822 53.2532 144.355 53.0788 143.969 52.7798C143.522 52.4085 143.192 51.9153 143.019 51.3599L141.279 46.4897L142.469 46.0698L144.089 50.6201C144.158 50.9107 144.287 51.1832 144.468 51.4209C144.649 51.6586 144.878 51.856 145.139 52C145.642 52.1612 146.186 52.1326 146.669 51.9199C146.947 51.8243 147.204 51.6783 147.429 51.4897C147.667 51.3018 147.858 51.0627 147.989 50.79C148.142 50.4787 148.22 50.1366 148.219 49.79C148.222 49.383 148.147 48.9792 147.999 48.6001L146.559 44.6001L147.749 44.1699L150.399 51.5898L149.399 51.96L148.919 50.8599C148.833 51.3692 148.588 51.838 148.219 52.1997C147.798 52.5977 147.292 52.8952 146.739 53.0698Z" fill="#EEEEEE"/>
<path d="M159.62 51.8105L157.78 46.6704L158.04 46.7402C158.125 47.168 158.09 47.6111 157.94 48.0205C157.775 48.402 157.53 48.7432 157.22 49.0205C156.892 49.3117 156.512 49.5389 156.1 49.6904C155.503 49.9002 154.862 49.9486 154.24 49.8306C153.601 49.7001 153.011 49.3914 152.54 48.9404C151.986 48.4188 151.573 47.7652 151.34 47.0405C151.055 46.3201 150.965 45.5369 151.08 44.7705C151.182 44.1154 151.466 43.502 151.9 43.0005C152.32 42.516 152.857 42.1478 153.46 41.9307C153.858 41.7927 154.279 41.7315 154.7 41.7505C155.099 41.7775 155.488 41.8901 155.84 42.0806C156.195 42.2719 156.492 42.5549 156.7 42.9004L156.52 42.9604L156 41.1904L157 40.8203L160.76 51.3506L159.62 51.8105ZM155.84 48.6406C156.279 48.501 156.663 48.2281 156.94 47.8604C157.217 47.4845 157.381 47.0366 157.41 46.5703C157.444 46.0186 157.359 45.466 157.16 44.9502C156.996 44.4276 156.715 43.9491 156.34 43.5503C156.029 43.2236 155.629 42.9946 155.19 42.8906C154.745 42.804 154.285 42.842 153.86 43.0005C153.528 43.1033 153.225 43.2825 152.975 43.5239C152.724 43.7654 152.534 44.0624 152.42 44.3906C152.186 45.1322 152.221 45.9324 152.52 46.6504C152.747 47.3943 153.219 48.0395 153.86 48.4805C154.153 48.6644 154.486 48.7749 154.83 48.8027C155.175 48.8306 155.521 48.7752 155.84 48.6406Z" fill="#EEEEEE"/>
<path d="M165.18 46.48C164.723 46.6479 164.236 46.7193 163.75 46.6899C163.263 46.6633 162.795 46.4889 162.41 46.1899C161.944 45.8256 161.596 45.3316 161.41 44.77L159.67 39.8999L160.86 39.48L162.49 44.0298C162.546 44.3175 162.665 44.5894 162.837 44.8262C163.01 45.0629 163.233 45.2588 163.49 45.3999C163.991 45.5642 164.536 45.5395 165.02 45.3301C165.296 45.2304 165.553 45.0849 165.78 44.8999C166.017 44.7119 166.209 44.4724 166.34 44.1997C166.492 43.8884 166.571 43.5463 166.57 43.1997C166.573 42.7926 166.499 42.3887 166.35 42.0098L164.91 38.0098L166.1 37.5801L168.75 44.9897L167.75 45.3599L167.27 44.2598C167.186 44.7726 166.941 45.2455 166.57 45.6099C166.175 45.9966 165.7 46.2934 165.18 46.48Z" fill="#EEEEEE"/>
<path d="M174.739 43.059C174.101 43.2982 173.413 43.3704 172.739 43.269C172.083 43.1576 171.474 42.8549 170.989 42.3989C170.455 41.8611 170.045 41.2122 169.789 40.4985C169.534 39.7848 169.438 39.0238 169.509 38.269C169.594 37.6115 169.868 36.9926 170.299 36.4887C170.738 35.9758 171.309 35.5923 171.949 35.3789C172.563 35.1381 173.231 35.0724 173.879 35.1889C174.467 35.3022 175.009 35.5836 175.439 35.999C175.893 36.4349 176.236 36.9731 176.439 37.5688C176.499 37.7388 176.549 37.899 176.589 38.039C176.629 38.179 176.659 38.3089 176.679 38.4189L170.679 40.559L170.309 39.5087L175.779 37.5087L175.209 37.8491C175.121 37.5429 174.971 37.2576 174.77 37.0102C174.569 36.7628 174.321 36.5586 174.039 36.4091C173.764 36.2925 173.468 36.2324 173.169 36.2324C172.87 36.2324 172.574 36.2925 172.299 36.4091C171.85 36.5507 171.454 36.8219 171.159 37.1889C170.882 37.5496 170.718 37.9848 170.689 38.4389C170.656 38.9915 170.744 39.5448 170.949 40.059C171.114 40.5866 171.398 41.0688 171.779 41.4687C172.101 41.8049 172.515 42.0385 172.969 42.1391C173.442 42.2331 173.932 42.1876 174.379 42.0087C174.851 41.868 175.274 41.598 175.599 41.2289C175.867 40.8997 176.046 40.5071 176.119 40.0888L177.249 40.2988C177.185 40.698 177.046 41.0818 176.839 41.4291C176.635 41.7965 176.355 42.1167 176.019 42.3691C175.636 42.6721 175.203 42.9056 174.739 43.059Z" fill="#EEEEEE"/>
<path d="M188.151 38.27C187.555 38.4851 186.912 38.5336 186.291 38.4102C185.654 38.279 185.066 37.9741 184.591 37.5298C184.037 37.0042 183.624 36.3476 183.391 35.6201C183.105 34.9032 183.016 34.1229 183.131 33.3599C183.235 32.7023 183.519 32.0864 183.951 31.5801C184.369 31.0962 184.907 30.7306 185.511 30.52C186.073 30.3042 186.688 30.2691 187.271 30.4199C187.816 30.5675 188.293 30.8997 188.621 31.3599L188.511 31.52L186.681 26.4199L187.871 26L191.741 36.8198L190.741 37.1899L190.001 35.4302L190.131 35.2798C190.217 35.7115 190.179 36.1589 190.021 36.5698C189.864 36.9534 189.621 37.2956 189.311 37.5698C188.977 37.8813 188.582 38.12 188.151 38.27ZM187.941 37.1899C188.385 37.0444 188.772 36.7651 189.051 36.3901C189.327 36.0067 189.487 35.5519 189.511 35.0801C189.533 34.5175 189.441 33.9565 189.241 33.4302C189.074 32.9256 188.798 32.4644 188.431 32.0801C188.124 31.7603 187.732 31.5349 187.301 31.4302C186.864 31.3394 186.409 31.3737 185.991 31.5298C185.653 31.6324 185.343 31.8127 185.086 32.0557C184.829 32.2986 184.632 32.598 184.511 32.9302C184.285 33.677 184.324 34.4782 184.621 35.1997C184.848 35.9437 185.32 36.5888 185.961 37.0298C186.255 37.2114 186.587 37.3208 186.932 37.3486C187.276 37.3765 187.622 37.322 187.941 37.1899Z" fill="#EEEEEE"/>
<path d="M197.649 34.8699C197.011 35.1091 196.323 35.1813 195.649 35.0799C194.989 34.971 194.376 34.668 193.889 34.2098C193.339 33.6846 192.927 33.0321 192.689 32.3099C192.416 31.6002 192.32 30.8349 192.409 30.0799C192.494 29.4224 192.768 28.8035 193.199 28.2996C193.64 27.7845 194.214 27.4006 194.859 27.1897C195.472 26.9485 196.141 26.8828 196.789 26.9998C197.373 27.1154 197.911 27.3967 198.339 27.8099C198.791 28.2473 199.134 28.785 199.339 29.3797C199.399 29.5497 199.449 29.7099 199.489 29.8499C199.529 29.9899 199.549 30.1198 199.569 30.2298L193.569 32.3797L193.199 31.3196L198.669 29.3699L198.099 29.6995C198.013 29.3932 197.865 29.1082 197.664 28.8621C197.463 28.616 197.212 28.4143 196.929 28.2698C196.655 28.1504 196.358 28.0887 196.059 28.0887C195.76 28.0887 195.464 28.1504 195.189 28.2698C194.742 28.4141 194.346 28.6848 194.049 29.0496C193.776 29.4129 193.613 29.8466 193.579 30.2996C193.551 30.8551 193.64 31.4106 193.839 31.93C194.01 32.4518 194.293 32.9296 194.669 33.3299C194.99 33.6693 195.404 33.9056 195.859 34.0096C196.339 34.0761 196.828 34.0275 197.285 33.8675C197.743 33.7075 198.155 33.4409 198.489 33.0896C198.757 32.7604 198.936 32.3678 199.009 31.9495L200.139 32.16C200.072 32.5602 199.937 32.9455 199.739 33.2996C199.524 33.6568 199.247 33.9722 198.919 34.2298C198.535 34.5138 198.106 34.7303 197.649 34.8699Z" fill="#EEEEEE"/>
<path d="M215.321 25.5596C215.314 26.1627 215.185 26.7582 214.941 27.3096C214.708 27.8407 214.368 28.3174 213.941 28.7095C213.363 29.1974 212.687 29.5536 211.958 29.7539C211.23 29.9543 210.466 29.994 209.721 29.8697C208.892 29.6968 208.131 29.2867 207.531 28.6895C206.858 27.9751 206.34 27.1292 206.009 26.2051C205.679 25.281 205.543 24.2985 205.611 23.3194C205.71 22.471 206.058 21.6711 206.611 21.0196C207.18 20.3406 207.928 19.8348 208.771 19.5596C209.34 19.3452 209.942 19.2269 210.551 19.2095C211.081 19.2004 211.607 19.3095 212.091 19.5293C212.583 19.7505 213.023 20.0746 213.381 20.4795L212.381 21.4795C212.026 21.0065 211.521 20.6683 210.948 20.521C210.375 20.3738 209.769 20.4262 209.231 20.6695C208.612 20.8765 208.064 21.2542 207.651 21.7593C207.255 22.2678 207.012 22.8784 206.951 23.5196C206.891 24.2922 207.007 25.0683 207.291 25.7896C207.526 26.5309 207.918 27.213 208.441 27.7896C208.877 28.2592 209.445 28.5866 210.071 28.7295C210.709 28.8634 211.373 28.8076 211.981 28.5694C212.593 28.3722 213.128 27.9873 213.511 27.4693C213.886 26.9208 214.069 26.2634 214.031 25.5997L215.321 25.5596Z" fill="#EEEEEE"/>
<path d="M220.94 21.0001C220.801 20.5191 220.477 20.1129 220.04 19.8702C219.813 19.7759 219.57 19.7272 219.325 19.7272C219.079 19.7272 218.836 19.7759 218.61 19.8702C218.15 20.0232 217.742 20.2998 217.43 20.67C217.135 21.0593 216.992 21.5429 217.03 22.0299L215.85 21.7799C215.854 21.1466 216.073 20.5337 216.47 20.0402C216.885 19.5641 217.401 19.1862 217.981 18.9337C218.56 18.6812 219.188 18.5605 219.82 18.5802C220.298 18.6002 220.761 18.7601 221.15 19.0402C221.57 19.3741 221.88 19.827 222.04 20.34L223.32 23.92C223.337 23.9992 223.372 24.0733 223.424 24.1359C223.475 24.1985 223.541 24.2477 223.615 24.2799C223.689 24.3122 223.77 24.3266 223.851 24.3214C223.932 24.3162 224.01 24.2916 224.08 24.2501C224.266 24.1885 224.442 24.0973 224.6 23.9801L224.87 24.9801C224.669 25.1738 224.426 25.3176 224.16 25.4C223.894 25.4962 223.612 25.5372 223.33 25.5201C223.066 25.4953 222.817 25.3866 222.62 25.2101C222.387 25.0025 222.215 24.7367 222.12 24.4401V24.2902L222.43 24.2301C222.456 24.6349 222.362 25.0386 222.16 25.3903C221.961 25.7299 221.7 26.0285 221.39 26.2701C221.086 26.5004 220.749 26.6826 220.39 26.8102C219.974 26.9647 219.533 27.0391 219.09 27.0299C218.683 27.0223 218.287 26.8974 217.95 26.67C217.564 26.3807 217.288 25.9684 217.168 25.5011C217.048 25.0338 217.091 24.5398 217.29 24.1002C217.581 23.5572 218.027 23.1117 218.57 22.8199L221.3 21.1901L221.65 22.1901L219.44 23.5299C219.075 23.7259 218.758 23.9992 218.51 24.3302C218.422 24.4555 218.367 24.6007 218.349 24.7526C218.332 24.9045 218.353 25.0579 218.41 25.1998C218.461 25.3456 218.546 25.4775 218.657 25.5851C218.768 25.6927 218.902 25.7731 219.05 25.8199C219.425 25.9201 219.822 25.8918 220.18 25.7399C220.457 25.6397 220.72 25.5021 220.96 25.3302C221.192 25.1761 221.39 24.9748 221.54 24.7399C221.694 24.5161 221.793 24.2592 221.83 23.9899C221.858 23.6879 221.817 23.384 221.71 23.1002L220.94 21.0001Z" fill="#EEEEEE"/>
<path d="M224.72 16.6694L228.04 18.9692L228.15 19.0493L232.7 22.1694L231.24 22.6895L227.8 20.2993L227.6 20.1797L223.24 17.1797L224.72 16.6694ZM230 14.7793L228.48 19.7793H228.41L227.09 24.1494L225.71 24.6396L227.42 19.2295H227.51L228.61 15.2793L230 14.7793Z" fill="#EEEEEE"/>
<path d="M232 12.459C231.885 12.5088 231.761 12.5347 231.635 12.5347C231.51 12.5347 231.386 12.5088 231.27 12.459C231.156 12.4033 231.055 12.3248 230.972 12.2285C230.89 12.1322 230.828 12.0201 230.79 11.8989C230.741 11.7837 230.715 11.6597 230.715 11.5342C230.715 11.4086 230.741 11.2842 230.79 11.1689C230.909 10.9434 231.109 10.7718 231.35 10.689C231.466 10.6392 231.59 10.6133 231.715 10.6133C231.841 10.6133 231.965 10.6392 232.08 10.689C232.195 10.741 232.297 10.8167 232.38 10.9116C232.463 11.0065 232.524 11.1181 232.56 11.2388C232.61 11.354 232.636 11.4785 232.636 11.604C232.636 11.7295 232.61 11.8535 232.56 11.9688C232.444 12.198 232.243 12.3738 232 12.459ZM233.1 13.6689L235.75 21.0791L234.56 21.5088L231.91 14.0991L233.1 13.6689Z" fill="#EEEEEE"/>
<path d="M241.119 13.7601C241.052 13.5223 240.938 13.3007 240.784 13.1082C240.629 12.9157 240.437 12.7567 240.219 12.6404C239.996 12.5412 239.754 12.4896 239.509 12.4896C239.265 12.4896 239.023 12.5412 238.799 12.6404C238.334 12.7873 237.921 13.0648 237.609 13.4402C237.324 13.8304 237.182 14.3076 237.209 14.7903L236.039 14.5403C236.04 13.9111 236.255 13.301 236.649 12.8104C237.124 12.2397 237.752 11.8162 238.459 11.5901C238.955 11.4075 239.481 11.3226 240.009 11.3401C240.489 11.3607 240.953 11.5246 241.339 11.8104C241.757 12.1405 242.064 12.5907 242.219 13.1004L243.509 16.6902C243.629 17.0502 243.879 17.1503 244.259 17.0203C244.443 16.9526 244.618 16.8618 244.779 16.7503L245.059 17.7503C244.849 17.937 244.603 18.0802 244.337 18.1712C244.071 18.2622 243.79 18.299 243.509 18.2801C243.247 18.2567 242.999 18.152 242.799 17.9803C242.572 17.77 242.404 17.5048 242.309 17.2103L242.249 17.0604L242.569 17.0003C242.594 17.405 242.5 17.8084 242.299 18.1605C242.097 18.4974 241.832 18.7923 241.519 19.0301C240.871 19.5408 240.064 19.8098 239.239 19.7903C238.833 19.7863 238.437 19.6646 238.099 19.4402C237.71 19.1535 237.431 18.7416 237.309 18.2737C237.187 17.8059 237.229 17.3107 237.429 16.8704C237.724 16.324 238.173 15.8756 238.719 15.5804L241.449 13.9603L241.789 14.9603L239.579 16.3001C239.214 16.4993 238.897 16.7757 238.649 17.1102C238.566 17.2355 238.514 17.3793 238.498 17.5291C238.482 17.6789 238.503 17.8301 238.559 17.97C238.61 18.1147 238.693 18.2463 238.802 18.3538C238.911 18.4613 239.044 18.542 239.189 18.5901C239.564 18.6951 239.963 18.6668 240.319 18.5101C240.6 18.4154 240.866 18.2807 241.109 18.1102C241.334 17.9472 241.53 17.748 241.689 17.5203C241.842 17.2931 241.938 17.0322 241.969 16.7601C242.006 16.4613 241.965 16.1582 241.849 15.8802L241.119 13.7601Z" fill="#EEEEEE"/>
<path d="M249.619 16.2899C248.929 16.5429 248.19 16.6317 247.459 16.5497C246.769 16.4718 246.118 16.1897 245.59 15.7397L246.34 14.6498C246.705 15.0193 247.171 15.2731 247.679 15.3798C248.237 15.4844 248.812 15.4288 249.34 15.2196C249.777 15.0876 250.166 14.8306 250.459 14.4799C250.564 14.3478 250.633 14.1914 250.661 14.0253C250.689 13.8592 250.675 13.6887 250.619 13.5297C250.542 13.3222 250.398 13.1464 250.209 13.0297C249.935 12.8903 249.62 12.8515 249.319 12.9198L247.4 13.1898C246.791 13.3209 246.157 13.2544 245.59 12.9999C245.15 12.7567 244.818 12.3567 244.659 11.8798C244.518 11.4809 244.501 11.049 244.609 10.64C244.741 10.1982 244.986 9.7982 245.319 9.47988C245.721 9.09613 246.203 8.80578 246.729 8.62979C247.364 8.37849 248.054 8.29917 248.729 8.39981C249.323 8.50247 249.872 8.7853 250.299 9.20986L249.539 10.2099C249.247 9.85468 248.834 9.61954 248.379 9.54971C247.95 9.48 247.51 9.51814 247.099 9.66006C246.786 9.76253 246.495 9.92159 246.239 10.1298C246.041 10.2921 245.892 10.5071 245.809 10.7499C245.737 10.9605 245.737 11.1892 245.809 11.3998C245.886 11.6214 246.038 11.8093 246.239 11.9301C246.552 12.0757 246.906 12.1074 247.239 12.0199L249.239 11.7499C249.805 11.6187 250.398 11.675 250.929 11.9101C251.322 12.1276 251.618 12.4845 251.759 12.9101C251.927 13.341 251.951 13.8138 251.829 14.2597C251.698 14.7168 251.437 15.1266 251.079 15.4398C250.655 15.8191 250.159 16.1084 249.619 16.2899Z" fill="#EEEEEE"/>
<path d="M12.0306 172.261C12.423 173.095 12.5011 174.044 12.2506 174.931C12.1197 175.329 11.9007 175.692 11.6098 175.993C11.3189 176.294 10.9636 176.526 10.5706 176.671C10.1974 176.85 9.7871 176.937 9.37341 176.927C8.95973 176.916 8.55439 176.808 8.19061 176.611C7.39708 176.145 6.79195 175.416 6.48062 174.551L6.37061 174.481L5.37061 172.131L1.37061 173.781L0.890625 172.621L10.4806 168.621L12.0306 172.261ZM7.5506 174.891L4.03061 180.081L3.45062 178.701L6.50061 174.191L7.5506 174.891ZM7.50061 174.131C7.68372 174.695 8.0635 175.174 8.57062 175.481C8.80267 175.594 9.05745 175.653 9.31561 175.653C9.57378 175.653 9.82855 175.594 10.0606 175.481C10.3018 175.402 10.5231 175.271 10.7095 175.099C10.8958 174.926 11.0429 174.715 11.1406 174.481C11.2781 173.904 11.2036 173.297 10.9306 172.771L9.9306 170.311L6.50061 171.741L7.50061 174.131Z" fill="#EEEEEE"/>
<path d="M5.7392 184.601C5.55037 184.151 5.45185 183.668 5.44922 183.181C5.4556 182.693 5.60896 182.219 5.88922 181.82C6.23731 181.359 6.71395 181.011 7.25922 180.82L12.0192 178.82L12.5092 179.98L8.04919 181.84C7.7634 181.922 7.49811 182.063 7.27063 182.254C7.04315 182.446 6.85865 182.683 6.72922 182.95C6.58989 183.461 6.64327 184.006 6.87921 184.48C6.99126 184.753 7.15035 185.003 7.34921 185.22C7.55007 185.447 7.79969 185.624 8.07922 185.74C8.3935 185.879 8.73632 185.941 9.07922 185.92C9.48648 185.901 9.88656 185.806 10.2592 185.641L14.2092 183.99L14.6892 185.161L7.4292 188.161L6.99921 187.161L8.07922 186.621C7.56623 186.561 7.08415 186.345 6.69922 186C6.28031 185.61 5.95252 185.132 5.7392 184.601Z" fill="#EEEEEE"/>
<path d="M14.9405 193.19C15.1778 193.123 15.397 193.002 15.5818 192.839C15.7667 192.675 15.9124 192.472 16.0084 192.245C16.1043 192.017 16.1481 191.771 16.1363 191.525C16.1246 191.278 16.0576 191.037 15.9405 190.82C15.7679 190.363 15.4698 189.965 15.0805 189.67C14.6727 189.403 14.1848 189.287 13.7005 189.34L13.8905 188.16C14.5226 188.126 15.1476 188.309 15.6605 188.68C16.1569 189.073 16.5604 189.571 16.8422 190.138C17.1239 190.705 17.277 191.327 17.2905 191.96C17.2968 192.439 17.1611 192.909 16.9004 193.31C16.5888 193.746 16.1532 194.076 15.6504 194.26L12.1305 195.73C12.0545 195.754 11.9849 195.794 11.927 195.848C11.8691 195.903 11.8244 195.97 11.7964 196.044C11.7684 196.119 11.7579 196.198 11.7655 196.277C11.7731 196.356 11.7988 196.433 11.8404 196.5C11.9187 196.679 12.0196 196.847 12.1405 197L11.2005 197.33C10.9967 197.134 10.8395 196.895 10.7404 196.63C10.6259 196.372 10.5713 196.092 10.5805 195.81C10.5991 195.546 10.6928 195.293 10.8505 195.08C11.0494 194.845 11.3037 194.663 11.5904 194.55L11.7404 194.49L11.8205 194.8C11.4183 194.845 11.0117 194.772 10.6504 194.59C10.2987 194.41 9.98604 194.162 9.73046 193.86C9.18742 193.237 8.8765 192.446 8.85045 191.62C8.83906 191.213 8.94305 190.811 9.15044 190.46C9.3846 190.093 9.73761 189.818 10.1504 189.68C10.3986 189.575 10.6656 189.52 10.9354 189.52C11.2053 189.52 11.4723 189.575 11.7204 189.68C12.2803 189.946 12.7498 190.37 13.0705 190.9L14.8404 193.54L13.8404 193.94L12.3905 191.8C12.1717 191.448 11.8823 191.145 11.5405 190.91C11.407 190.835 11.2579 190.791 11.1048 190.782C10.9518 190.774 10.7988 190.801 10.6576 190.861C10.5165 190.921 10.3911 191.012 10.291 191.128C10.1909 191.244 10.1189 191.382 10.0805 191.53C9.99417 191.912 10.0437 192.312 10.2204 192.66C10.329 192.934 10.4773 193.19 10.6605 193.42C10.8348 193.637 11.0444 193.823 11.2804 193.97C11.5148 194.109 11.7785 194.192 12.0504 194.21C12.3523 194.228 12.654 194.173 12.9304 194.05L14.9405 193.19Z" fill="#EEEEEE"/>
<path d="M15.4295 207.87C15.0602 207.05 14.9286 206.142 15.0495 205.25C15.1763 204.413 15.5447 203.631 16.1095 203C16.7783 202.278 17.6023 201.717 18.5195 201.36C19.4198 200.957 20.4048 200.778 21.3895 200.84C22.2491 200.909 23.0713 201.221 23.7595 201.74C24.4691 202.288 25.0183 203.017 25.3495 203.85C25.7234 204.645 25.8721 205.527 25.7795 206.4C25.6565 207.191 25.3094 207.93 24.7795 208.53L23.7795 207.71C24.2236 207.309 24.5195 206.77 24.6195 206.181C24.7027 205.543 24.6057 204.895 24.3395 204.31C24.1007 203.701 23.6953 203.17 23.1695 202.78C22.6384 202.395 22.0051 202.176 21.3495 202.15C20.5797 202.119 19.8131 202.266 19.1095 202.58C18.3916 202.858 17.7382 203.28 17.1895 203.82C16.7352 204.265 16.4341 204.843 16.3295 205.47C16.2321 206.151 16.3327 206.845 16.6195 207.47C16.7757 207.83 16.981 208.166 17.2295 208.47C17.4595 208.759 17.7408 209.003 18.0595 209.19C18.3684 209.355 18.7097 209.451 19.0595 209.47C19.4657 209.478 19.8685 209.396 20.2395 209.23L20.5695 209.09L19.2995 206.04L20.3895 205.59L22.0995 209.7L17.2595 211.7L16.8795 210.78L18.6495 209.98V210.24C17.9699 210.248 17.3062 210.034 16.7595 209.63C16.1644 209.175 15.7046 208.567 15.4295 207.87Z" fill="#EEEEEE"/>
<path d="M19.3698 217.339C19.0968 216.71 18.99 216.022 19.0598 215.339C19.1301 214.674 19.4023 214.046 19.8398 213.54C20.3357 212.96 20.968 212.513 21.6798 212.239C22.3747 211.934 23.1326 211.801 23.8899 211.85C24.5507 211.898 25.1831 212.138 25.7098 212.54C26.2385 212.961 26.6485 213.512 26.8998 214.14C27.1701 214.741 27.2704 215.405 27.1899 216.06C27.1021 216.648 26.8489 217.199 26.4598 217.649C26.0453 218.124 25.5245 218.494 24.9399 218.73L24.4799 218.899C24.3567 218.947 24.2295 218.984 24.0999 219.009L21.6599 213.14L22.6599 212.71L24.8899 218.069L24.5299 217.52C24.8299 217.416 25.1058 217.252 25.3413 217.039C25.5767 216.826 25.7666 216.568 25.8998 216.279C26.0088 216 26.0596 215.703 26.0493 215.403C26.039 215.104 25.9677 214.81 25.8398 214.54C25.6717 214.102 25.3798 213.723 24.9999 213.449C24.6274 213.188 24.1848 213.045 23.7299 213.04C23.1745 213.031 22.6243 213.147 22.1198 213.379C21.6073 213.579 21.1435 213.885 20.7599 214.279C20.4389 214.616 20.2263 215.041 20.1498 215.5C20.0807 215.979 20.1501 216.468 20.3499 216.91C20.5204 217.373 20.8143 217.781 21.1999 218.089C21.544 218.334 21.9419 218.491 22.3599 218.549L22.1999 219.69C21.7995 219.639 21.4106 219.52 21.0498 219.339C20.671 219.148 20.3317 218.887 20.0498 218.569C19.758 218.199 19.5283 217.784 19.3698 217.339Z" fill="#EEEEEE"/>
<path d="M21.75 222.629L29.01 219.629L29.44 220.629L27.85 221.409L27.93 221.149C28.3426 221.141 28.752 221.224 29.13 221.389C29.4755 221.548 29.7799 221.784 30.02 222.079C30.272 222.38 30.4776 222.717 30.63 223.079C30.8397 223.568 30.9388 224.097 30.92 224.629C30.9025 225.133 30.7354 225.62 30.44 226.029C30.0813 226.488 29.599 226.835 29.05 227.029L24.4 228.969L23.91 227.799L28.16 226.039C28.4737 225.946 28.765 225.789 29.0161 225.58C29.2671 225.37 29.4726 225.111 29.62 224.819C29.7875 224.339 29.766 223.814 29.56 223.349C29.4089 222.988 29.1762 222.666 28.88 222.409C28.5545 222.121 28.1507 221.937 27.72 221.879C27.1653 221.813 26.6034 221.907 26.1 222.149L22.23 223.759L21.75 222.629Z" fill="#EEEEEE"/>
<path d="M27.4791 231.479C27.5344 231.603 27.564 231.737 27.5661 231.872C27.5682 232.008 27.5428 232.142 27.4913 232.268C27.4399 232.393 27.3635 232.506 27.2669 232.601C27.1703 232.696 27.0553 232.77 26.9291 232.819C26.8043 232.873 26.6699 232.901 26.5341 232.901C26.3983 232.901 26.2639 232.873 26.1391 232.819C26.0135 232.767 25.8998 232.689 25.8053 232.591C25.7107 232.493 25.6371 232.377 25.5891 232.25C25.5355 232.125 25.5078 231.99 25.5078 231.854C25.5078 231.719 25.5355 231.584 25.5891 231.459C25.6524 231.256 25.7793 231.077 25.9511 230.951C26.1229 230.824 26.3307 230.756 26.5441 230.756C26.7575 230.756 26.9653 230.824 27.1371 230.951C27.309 231.077 27.4358 231.256 27.4991 231.459L27.4791 231.479Z" fill="#EEEEEE"/>
<path d="M29.2598 240.67L38.8498 236.67L40.2697 240.09C40.7157 240.945 40.8297 241.936 40.5898 242.87C40.4552 243.236 40.2423 243.568 39.9659 243.842C39.6895 244.117 39.3563 244.328 38.9897 244.46C38.5189 244.659 37.9964 244.701 37.4998 244.58C36.983 244.464 36.5335 244.147 36.2498 243.7C36.3836 244.254 36.3151 244.837 36.0565 245.345C35.798 245.853 35.3665 246.252 34.8398 246.47C34.4708 246.637 34.0676 246.716 33.6628 246.698C33.258 246.681 32.863 246.569 32.5098 246.37C31.654 245.832 31.0082 245.016 30.6797 244.06L29.2598 240.67ZM30.8298 241.37L31.8798 243.89C32.0622 244.454 32.4375 244.935 32.9398 245.25C33.1599 245.344 33.3966 245.392 33.6359 245.393C33.8751 245.393 34.112 245.345 34.3323 245.251C34.5526 245.158 34.7518 245.021 34.918 244.849C35.0842 244.677 35.2141 244.473 35.2997 244.25C35.4231 243.675 35.3455 243.075 35.0798 242.55L34.0298 240.03L30.8298 241.37ZM35.1198 239.59L36.0598 241.86C36.6298 243.21 37.4298 243.67 38.4798 243.24C39.5298 242.81 39.7498 241.91 39.1898 240.56L38.2397 238.29L35.1198 239.59Z" fill="#EEEEEE"/>
<path d="M34.2398 253.039C33.9663 252.41 33.8563 251.722 33.9199 251.039C34.0008 250.377 34.2717 249.751 34.6999 249.239C35.1963 248.663 35.8287 248.219 36.5399 247.949C37.2325 247.636 37.9915 247.499 38.7499 247.549C39.411 247.604 40.0426 247.847 40.5699 248.249C41.1044 248.665 41.5157 249.218 41.7599 249.849C42.0354 250.446 42.1359 251.108 42.0498 251.759C41.9683 252.352 41.7145 252.909 41.3199 253.359C40.903 253.829 40.3826 254.195 39.7998 254.429C39.6537 254.496 39.5034 254.553 39.3499 254.599C39.2233 254.647 39.0928 254.684 38.9598 254.709L36.5198 248.839L37.5198 248.409L39.7599 253.769L39.3899 253.229C39.6922 253.127 39.97 252.963 40.2058 252.748C40.4416 252.533 40.6303 252.271 40.7599 251.979C40.8681 251.701 40.9194 251.403 40.9108 251.104C40.9022 250.805 40.8339 250.511 40.7098 250.239C40.5392 249.803 40.2478 249.425 39.8698 249.149C39.4917 248.892 39.0471 248.749 38.5898 248.739C38.0354 248.74 37.4872 248.856 36.9799 249.079C36.4661 249.281 36.0021 249.591 35.6198 249.989C35.2973 250.324 35.0845 250.75 35.0099 251.209C34.9464 251.685 35.0156 252.17 35.2098 252.609C35.3785 253.074 35.6728 253.482 36.0598 253.789C36.4016 254.038 36.8006 254.196 37.2199 254.249L37.0699 255.389C36.6692 255.34 36.2801 255.222 35.9199 255.039C35.5393 254.851 35.1995 254.589 34.9199 254.269C34.629 253.898 34.3995 253.483 34.2398 253.039Z" fill="#EEEEEE"/>
<path d="M36.6094 258.32L43.8794 255.32L44.2993 256.32L42.7094 257.101L42.7894 256.851C43.2018 256.833 43.6127 256.911 43.9893 257.081C44.3383 257.243 44.6461 257.482 44.8894 257.78C45.1403 258.08 45.3427 258.418 45.4893 258.78C45.7028 259.268 45.8053 259.798 45.7894 260.331C45.7701 260.834 45.6032 261.321 45.3094 261.73C44.9472 262.19 44.4615 262.537 43.9094 262.73L39.2594 264.67L38.7794 263.51L43.0193 261.74C43.333 261.647 43.6244 261.491 43.8754 261.281C44.1265 261.071 44.332 260.813 44.4794 260.521C44.6474 260.045 44.6295 259.523 44.4294 259.061C44.2777 258.679 44.0418 258.338 43.7393 258.061C43.4152 257.771 43.0107 257.586 42.5794 257.53C42.025 257.474 41.4657 257.568 40.9594 257.8L37.0894 259.411L36.6094 258.32Z" fill="#EEEEEE"/>
<path d="M50.3591 265.049L43.0291 268.099C42.8779 268.148 42.7395 268.23 42.6237 268.339C42.5078 268.448 42.4175 268.581 42.3591 268.729C42.2685 269.027 42.2935 269.348 42.4291 269.629C42.5216 269.881 42.6724 270.107 42.8691 270.289C43.0545 270.458 43.2676 270.593 43.4991 270.689L42.6891 271.499C42.3854 271.349 42.1111 271.146 41.8791 270.899C41.6163 270.606 41.4095 270.267 41.269 269.899C41.1211 269.547 41.043 269.17 41.0391 268.789C41.0381 268.433 41.1425 268.085 41.3391 267.789C41.5947 267.447 41.9411 267.184 42.3391 267.029L49.5391 264.029L50.3591 265.049ZM49.3591 268.549L48.3591 268.969L46.1691 263.709L47.1691 263.289L49.3591 268.549Z" fill="#EEEEEE"/>
<path d="M51.5098 273.19C51.7873 273.817 51.8942 274.507 51.8198 275.19C51.7385 275.846 51.4674 276.465 51.0398 276.969C50.542 277.547 49.9102 277.993 49.1998 278.27C48.5046 278.585 47.7408 278.719 46.9798 278.66C46.3211 278.608 45.692 278.364 45.1698 277.96C44.6397 277.522 44.2243 276.962 43.9595 276.328C43.6946 275.694 43.5883 275.004 43.6497 274.32C43.7308 273.66 44.0018 273.038 44.4297 272.53C44.9275 271.952 45.5593 271.506 46.2697 271.23C46.9648 270.925 47.7225 270.792 48.4798 270.84C49.1466 270.89 49.7834 271.137 50.3097 271.55C50.8466 271.982 51.2605 272.547 51.5098 273.19ZM50.5098 273.61C50.3415 273.156 50.0421 272.763 49.6497 272.48C49.2693 272.22 48.8207 272.077 48.3598 272.07C47.8045 272.062 47.2544 272.178 46.7497 272.41C46.2366 272.608 45.7726 272.915 45.3898 273.31C45.0651 273.637 44.8486 274.055 44.7697 274.51C44.6922 274.988 44.7583 275.479 44.9597 275.92C45.1318 276.368 45.4306 276.758 45.8198 277.04C46.2033 277.301 46.6555 277.444 47.1197 277.449C47.6697 277.447 48.2137 277.335 48.7197 277.12C49.2345 276.915 49.701 276.605 50.0897 276.21C50.4082 275.88 50.6207 275.461 50.6998 275.01C50.7691 274.547 50.7031 274.075 50.5098 273.65V273.61Z" fill="#EEEEEE"/>
<path d="M62.0899 292.479L52.4999 296.479L52.0399 295.379L58.0399 292.869L60.6199 291.939L50.7499 292.349L50.3399 291.349L57.5899 284.629L55.1199 285.809L49.1199 288.329L48.6699 287.219L58.2599 283.219L58.9999 284.999L54.0499 289.539L51.9599 291.259L54.6499 291.009L61.3599 290.669L62.0899 292.479Z" fill="#EEEEEE"/>
<path d="M60.1401 301.59C60.3782 301.507 60.5965 301.375 60.7807 301.203C60.965 301.031 61.1112 300.822 61.21 300.59C61.2969 300.363 61.3356 300.12 61.3235 299.877C61.3115 299.634 61.249 299.397 61.1401 299.18C60.971 298.721 60.6722 298.321 60.2801 298.03C59.8785 297.757 59.3916 297.64 58.9101 297.7L59.1001 296.52C59.7292 296.485 60.351 296.669 60.8601 297.04C61.4551 297.482 61.91 298.086 62.1701 298.78C62.381 299.266 62.4932 299.79 62.5001 300.32C62.4983 300.799 62.3595 301.267 62.1001 301.67C61.7908 302.107 61.3544 302.439 60.8501 302.62L57.34 304.09C57.2632 304.112 57.1926 304.151 57.1336 304.205C57.0745 304.259 57.0287 304.326 56.9997 304.401C56.9707 304.475 56.9592 304.555 56.9662 304.635C56.9732 304.715 56.9985 304.791 57.0401 304.86C57.1183 305.038 57.2192 305.206 57.34 305.36L56.4 305.69C56.1963 305.494 56.0391 305.254 55.9401 304.99C55.824 304.733 55.7725 304.451 55.7901 304.17C55.7994 303.904 55.894 303.648 56.0601 303.44C56.2569 303.202 56.5118 303.02 56.8 302.91L56.9401 302.85L57.02 303.16C56.6179 303.205 56.2113 303.132 55.8501 302.95C55.4983 302.769 55.1856 302.521 54.93 302.22C54.6821 301.919 54.483 301.582 54.34 301.22C54.1665 300.814 54.0715 300.38 54.0601 299.94C54.0451 299.533 54.1457 299.131 54.3501 298.78C54.5899 298.418 54.9409 298.144 55.3501 298C55.5982 297.894 55.8652 297.839 56.1351 297.839C56.4049 297.839 56.6719 297.894 56.9201 298C57.481 298.268 57.9531 298.691 58.2801 299.22L60.0401 301.86L59.0401 302.26L57.59 300.12C57.3713 299.768 57.0818 299.465 56.74 299.23C56.6063 299.158 56.4568 299.12 56.305 299.12C56.1532 299.12 56.0038 299.158 55.87 299.23C55.7276 299.287 55.6004 299.377 55.498 299.491C55.3957 299.605 55.3211 299.742 55.2801 299.89C55.1987 300.272 55.248 300.67 55.4201 301.02C55.5327 301.291 55.6807 301.547 55.8601 301.78C56.0357 301.999 56.249 302.186 56.49 302.33C56.7208 302.469 56.9813 302.551 57.2501 302.57C57.5519 302.587 57.8536 302.533 58.1301 302.41L60.1401 301.59Z" fill="#EEEEEE"/>
<path d="M57.0996 307.529L64.3696 304.529L64.7596 305.469L63.6396 306.129C64.1356 306.131 64.6172 306.296 65.0096 306.6C65.43 306.938 65.7513 307.384 65.9396 307.89C65.9896 308.02 66.0396 308.159 66.0896 308.319C66.1129 308.462 66.1129 308.607 66.0896 308.75L64.9396 308.989C64.9371 308.861 64.9203 308.734 64.8896 308.609C64.8353 308.422 64.7685 308.238 64.6896 308.06C64.5522 307.74 64.3311 307.463 64.0496 307.259C63.7261 307.017 63.3421 306.868 62.9396 306.83C62.436 306.778 61.9278 306.864 61.4696 307.08L57.5496 308.709L57.0996 307.529Z" fill="#EEEEEE"/>
<path d="M69.4294 310.859L62.1094 313.859C61.9575 313.91 61.8188 313.994 61.703 314.104C61.5872 314.215 61.4972 314.35 61.4394 314.5C61.3504 314.797 61.3717 315.116 61.4994 315.399C61.5989 315.65 61.7526 315.875 61.9494 316.06C62.1289 316.228 62.3395 316.36 62.5694 316.449L61.7693 317.259C61.461 317.122 61.185 316.921 60.9594 316.669C60.6923 316.379 60.485 316.04 60.3494 315.669C60.1938 315.32 60.1121 314.942 60.1094 314.56C60.1101 314.203 60.2181 313.854 60.4194 313.56C60.6761 313.219 61.0222 312.955 61.4194 312.799L68.6294 309.799L69.4294 310.859ZM68.4294 314.359L67.4294 314.779L65.2393 309.52L66.2393 309.1L68.4294 314.359Z" fill="#EEEEEE"/>
<path d="M69.6797 317.25L62.4097 320.25L61.9297 319.09L69.1897 316.09L69.6797 317.25ZM70.8297 316.09C70.7805 315.974 70.7551 315.851 70.7551 315.725C70.7551 315.6 70.7805 315.475 70.8297 315.36C70.9376 315.127 71.1309 314.944 71.3697 314.85C71.4851 314.801 71.6093 314.775 71.7347 314.775C71.8602 314.775 71.9843 314.801 72.0997 314.85C72.2154 314.899 72.3196 314.971 72.4057 315.062C72.4918 315.153 72.5579 315.262 72.5997 315.38C72.6581 315.493 72.6912 315.618 72.6967 315.746C72.7021 315.873 72.6799 316 72.6313 316.118C72.5828 316.236 72.5093 316.342 72.4157 316.428C72.3222 316.515 72.211 316.581 72.0897 316.62C71.9765 316.675 71.8529 316.705 71.7272 316.709C71.6014 316.713 71.4763 316.69 71.36 316.642C71.2438 316.593 71.1391 316.521 71.0529 316.429C70.9666 316.338 70.9008 316.229 70.8597 316.11L70.8297 316.09Z" fill="#EEEEEE"/>
<path d="M63.5293 322.98L70.7993 319.98L71.2293 320.98L69.6393 321.76L69.7193 321.5C70.1319 321.493 70.5413 321.575 70.9193 321.74C71.2632 321.902 71.5671 322.138 71.8093 322.431C72.0578 322.734 72.2631 323.071 72.4193 323.431C72.6242 323.921 72.723 324.449 72.7093 324.98C72.6918 325.484 72.5247 325.972 72.2293 326.38C71.8706 326.839 71.3884 327.186 70.8393 327.38L66.1893 329.32L65.6993 328.15L69.9393 326.391C70.2548 326.299 70.548 326.143 70.8009 325.933C71.0538 325.723 71.2608 325.464 71.4093 325.17C71.5768 324.691 71.5553 324.165 71.3493 323.7C71.1982 323.339 70.9655 323.017 70.6693 322.76C70.3438 322.472 69.94 322.288 69.5093 322.23C68.9514 322.166 68.3867 322.26 67.8793 322.5L64.0193 324.11L63.5293 322.98Z" fill="#EEEEEE"/>
<path d="M68.2197 334.65C67.9351 333.975 67.8118 333.242 67.8597 332.51C67.9005 331.817 68.1477 331.152 68.5697 330.6L69.6897 331.3C69.3385 331.68 69.1118 332.158 69.0397 332.67C68.9659 333.232 69.049 333.803 69.2797 334.32C69.4317 334.752 69.7105 335.129 70.0797 335.4C70.2218 335.505 70.3891 335.571 70.5648 335.59C70.7405 335.61 70.9181 335.582 71.0797 335.51C71.2827 335.424 71.4515 335.273 71.5596 335.08C71.6789 334.795 71.6966 334.477 71.6097 334.181L71.2497 332.28C71.0858 331.679 71.1209 331.04 71.3497 330.46C71.5618 330.052 71.9009 329.724 72.3158 329.526C72.7307 329.327 73.1988 329.269 73.6496 329.36C74.1006 329.466 74.515 329.69 74.8497 330.01C75.251 330.392 75.5649 330.856 75.7696 331.37C76.0554 331.996 76.1693 332.686 76.0997 333.37C76.0317 333.968 75.7761 334.527 75.3696 334.97L74.3696 334.26C74.709 333.951 74.9226 333.527 74.9697 333.07C75.0225 332.638 74.9605 332.2 74.7897 331.8C74.6673 331.492 74.4912 331.207 74.2696 330.96C74.0978 330.775 73.8808 330.637 73.6397 330.56C73.4204 330.502 73.1876 330.519 72.9797 330.61C72.7644 330.701 72.5875 330.863 72.4797 331.07C72.3611 331.393 72.3611 331.747 72.4797 332.07L72.8597 334.07C73.0141 334.631 72.9861 335.227 72.7797 335.77C72.5679 336.178 72.2112 336.492 71.7797 336.65C71.3545 336.834 70.8834 336.883 70.4296 336.79C69.9657 336.681 69.5425 336.442 69.2096 336.1C68.7809 335.692 68.4435 335.198 68.2197 334.65Z" fill="#EEEEEE"/>
<path d="M519.509 270.82C519.532 269.899 519.887 269.019 520.509 268.34C520.805 268.042 521.166 267.816 521.563 267.679C521.96 267.542 522.383 267.498 522.799 267.55C523.213 267.561 523.619 267.669 523.984 267.865C524.348 268.061 524.662 268.341 524.899 268.68C525.386 269.458 525.591 270.379 525.479 271.29L525.549 271.41L525.359 273.95L529.659 274.28L529.559 275.53L519.199 274.74L519.509 270.82ZM524.389 271.21C524.487 270.624 524.366 270.023 524.049 269.52C523.89 269.317 523.687 269.152 523.455 269.04C523.222 268.927 522.967 268.869 522.709 268.87C522.452 268.832 522.19 268.85 521.941 268.924C521.692 268.999 521.463 269.127 521.269 269.3C520.89 269.758 520.684 270.335 520.689 270.93L520.479 273.58L524.189 273.86L524.389 271.21ZM524.699 270.5L530.179 267.5L530.069 268.99L525.309 271.63L524.699 270.5Z" fill="#EEEEEE"/>
<path d="M530.711 262.669C530.674 263.157 530.542 263.633 530.32 264.069C530.096 264.496 529.747 264.845 529.32 265.069C528.799 265.334 528.21 265.435 527.63 265.359L522.48 264.969L522.581 263.719L527.391 264.079C527.663 264.16 527.951 264.172 528.23 264.117C528.508 264.061 528.769 263.938 528.99 263.759C529.21 263.58 529.384 263.349 529.496 263.088C529.607 262.827 529.654 262.542 529.63 262.259C529.659 261.966 529.632 261.672 529.55 261.389C529.469 261.098 529.33 260.825 529.141 260.589C528.925 260.335 528.655 260.133 528.35 259.999C527.984 259.824 527.586 259.725 527.18 259.709L522.91 259.389L523 258.129L530.85 258.729L530.771 259.819H529.57C530 260.108 530.329 260.524 530.51 261.009C530.699 261.541 530.767 262.108 530.711 262.669Z" fill="#EEEEEE"/>
<path d="M526.351 250.85C526.106 250.814 525.857 250.827 525.618 250.891C525.379 250.955 525.155 251.066 524.961 251.219C524.779 251.382 524.634 251.581 524.534 251.803C524.434 252.025 524.382 252.266 524.381 252.509C524.329 252.992 524.412 253.481 524.621 253.919C524.862 254.343 525.244 254.669 525.701 254.839L524.991 255.839C524.414 255.583 523.944 255.134 523.661 254.569C523.392 253.997 523.252 253.372 523.252 252.739C523.252 252.107 523.392 251.482 523.661 250.91C523.888 250.485 524.236 250.136 524.661 249.91C525.134 249.661 525.67 249.56 526.201 249.62L530.001 249.91C530.381 249.91 530.581 249.759 530.611 249.359C530.641 249.164 530.641 248.965 530.611 248.77L531.611 248.91C531.706 249.175 531.74 249.459 531.711 249.739C531.697 250.021 531.614 250.296 531.471 250.54C531.341 250.772 531.142 250.957 530.901 251.069C530.617 251.189 530.307 251.234 530.001 251.199H529.841L529.921 250.89C530.296 251.036 530.622 251.285 530.861 251.609C531.096 251.925 531.262 252.286 531.351 252.669C531.442 253.039 531.476 253.42 531.451 253.799C531.417 254.24 531.302 254.671 531.111 255.069C530.944 255.439 530.673 255.752 530.331 255.969C529.965 256.182 529.541 256.273 529.121 256.229C528.851 256.214 528.586 256.144 528.344 256.024C528.102 255.904 527.886 255.735 527.711 255.529C527.332 255.039 527.105 254.448 527.061 253.83L526.681 250.68L527.681 250.75L528.001 253.319C528.038 253.732 528.157 254.133 528.351 254.5C528.436 254.626 528.548 254.731 528.68 254.807C528.812 254.883 528.959 254.929 529.111 254.939C529.264 254.951 529.417 254.927 529.559 254.87C529.701 254.813 529.829 254.724 529.931 254.609C530.184 254.311 530.323 253.931 530.321 253.54C530.345 253.249 530.328 252.956 530.271 252.669C530.216 252.394 530.115 252.13 529.971 251.89C529.824 251.66 529.626 251.468 529.391 251.33C529.133 251.175 528.841 251.086 528.541 251.069L526.351 250.85Z" fill="#EEEEEE"/>
<path d="M532.62 237.541C532.574 238.437 532.28 239.302 531.77 240.041C531.268 240.736 530.573 241.268 529.77 241.57C528.851 241.912 527.866 242.039 526.89 241.94C525.902 241.896 524.94 241.607 524.09 241.101C523.354 240.653 522.76 240.004 522.38 239.23C521.995 238.418 521.836 237.516 521.92 236.621C521.95 235.745 522.22 234.894 522.7 234.161C523.183 233.511 523.843 233.015 524.6 232.73L525.14 233.931C524.561 234.091 524.053 234.444 523.7 234.931C523.34 235.461 523.133 236.08 523.1 236.72C523.044 237.374 523.165 238.03 523.45 238.621C523.758 239.198 524.223 239.676 524.79 240C525.467 240.373 526.219 240.589 526.99 240.63C527.752 240.71 528.521 240.632 529.25 240.4C529.859 240.211 530.391 239.833 530.77 239.32C531.16 238.76 531.386 238.102 531.42 237.42C531.45 237.012 531.423 236.601 531.34 236.2C531.266 235.843 531.123 235.503 530.92 235.2C530.718 234.907 530.452 234.664 530.14 234.49C529.783 234.295 529.387 234.182 528.98 234.161H528.62L528.37 237.46L527.19 237.371L527.53 232.931L532.76 233.32L532.68 234.32L530.74 234.24L530.81 233.98C531.42 234.282 531.915 234.773 532.22 235.38C532.547 236.051 532.686 236.798 532.62 237.541Z" fill="#EEEEEE"/>
<path d="M533.399 227.31C533.356 228.004 533.136 228.675 532.759 229.26C532.388 229.814 531.863 230.248 531.249 230.51C530.539 230.779 529.778 230.888 529.021 230.83C528.264 230.771 527.529 230.545 526.869 230.17C526.305 229.827 525.853 229.326 525.569 228.73C525.276 228.107 525.158 227.415 525.229 226.73C525.263 226.073 525.474 225.437 525.839 224.89C526.185 224.408 526.66 224.034 527.209 223.81C527.796 223.575 528.43 223.483 529.059 223.54L529.539 223.59C529.671 223.608 529.801 223.635 529.929 223.67L529.449 230.01L528.329 229.92L528.769 224.13L528.849 224.78C528.533 224.738 528.212 224.76 527.905 224.844C527.597 224.928 527.31 225.073 527.059 225.27C526.837 225.47 526.658 225.713 526.532 225.985C526.407 226.256 526.338 226.551 526.329 226.85C526.279 227.315 526.366 227.784 526.579 228.2C526.808 228.609 527.157 228.937 527.579 229.14C528.072 229.396 528.614 229.542 529.169 229.57C529.717 229.625 530.269 229.561 530.789 229.38C531.228 229.225 531.611 228.943 531.889 228.57C532.166 228.172 532.325 227.704 532.349 227.22C532.407 226.731 532.327 226.236 532.119 225.79C531.93 225.415 531.648 225.094 531.299 224.86L531.949 223.91C532.286 224.134 532.58 224.414 532.819 224.74C533.062 225.08 533.238 225.464 533.339 225.87C533.44 226.343 533.461 226.83 533.399 227.31Z" fill="#EEEEEE"/>
<path d="M533.68 221.519L525.83 220.919L525.92 219.819H527.68L527.49 220.009C527.105 219.837 526.763 219.58 526.49 219.259C526.264 218.961 526.101 218.621 526.01 218.259C525.924 217.878 525.897 217.487 525.93 217.099C525.958 216.567 526.105 216.047 526.36 215.579C526.613 215.15 526.985 214.802 527.43 214.579C527.962 214.324 528.554 214.224 529.14 214.289L534.14 214.669L534.05 215.929L529.46 215.579C529.139 215.517 528.809 215.522 528.491 215.595C528.173 215.667 527.873 215.805 527.61 215.999C527.242 216.348 527.021 216.823 526.99 217.329C526.972 217.72 527.033 218.112 527.17 218.479C527.328 218.886 527.608 219.235 527.97 219.479C528.438 219.785 528.981 219.955 529.54 219.969L533.72 220.289L533.68 221.519Z" fill="#EEEEEE"/>
<path d="M532.581 211.03C532.597 210.755 532.719 210.497 532.921 210.31C533.026 210.224 533.147 210.159 533.278 210.122C533.409 210.084 533.546 210.073 533.681 210.09C533.818 210.094 533.952 210.127 534.076 210.185C534.2 210.244 534.31 210.327 534.401 210.43C534.563 210.647 534.642 210.915 534.622 211.186C534.601 211.456 534.484 211.71 534.291 211.9C534.186 211.988 534.065 212.054 533.935 212.094C533.804 212.133 533.666 212.145 533.531 212.13C533.394 212.126 533.259 212.093 533.135 212.035C533.012 211.976 532.901 211.893 532.811 211.79C532.723 211.686 532.657 211.564 532.617 211.434C532.578 211.303 532.565 211.165 532.581 211.03Z" fill="#EEEEEE"/>
<path d="M535.739 194.41L535.639 195.74L532.639 196.62L532.279 201.32L535.069 202.64L534.969 203.95L524.939 199.13L525.059 197.64L535.739 194.41ZM531.189 200.77L531.469 196.99L526.229 198.5L531.189 200.77Z" fill="#EEEEEE"/>
<path d="M536.25 189.851C536.215 190.339 536.082 190.815 535.859 191.251C535.628 191.673 535.281 192.02 534.859 192.251C534.335 192.507 533.749 192.607 533.169 192.541L528.02 192.141L528.12 190.891L532.93 191.251C533.221 191.311 533.522 191.307 533.812 191.239C534.102 191.172 534.374 191.043 534.609 190.861C534.964 190.472 535.163 189.967 535.169 189.441C535.193 189.145 535.166 188.848 535.09 188.561C535.008 188.27 534.869 187.997 534.68 187.761C534.462 187.51 534.192 187.308 533.89 187.171C533.518 187.001 533.118 186.902 532.71 186.881L528.44 186.561L528.539 185.301L536.39 185.901L536.299 187.001H535.109C535.539 187.29 535.868 187.706 536.049 188.191C536.232 188.724 536.301 189.29 536.25 189.851Z" fill="#EEEEEE"/>
<path d="M526.67 180.379L534.59 180.979C534.747 181.003 534.907 180.993 535.059 180.948C535.211 180.903 535.351 180.825 535.47 180.719C535.684 180.495 535.809 180.2 535.82 179.89C535.846 179.619 535.811 179.346 535.72 179.089C535.634 178.863 535.508 178.653 535.35 178.469L536.43 178.109C536.636 178.374 536.789 178.676 536.88 179C536.987 179.373 537.021 179.763 536.98 180.149C536.958 180.532 536.86 180.906 536.69 181.25C536.531 181.578 536.272 181.848 535.95 182.02C535.567 182.213 535.137 182.293 534.71 182.25L526.92 181.66L526.67 180.379ZM529.12 177.689L530.2 177.77L529.77 183.459L528.69 183.37L529.12 177.689Z" fill="#EEEEEE"/>
<path d="M529.349 172.56C529.393 171.872 529.613 171.207 529.989 170.63C530.362 170.078 530.886 169.648 531.499 169.39C532.21 169.121 532.97 169.011 533.727 169.07C534.485 169.129 535.219 169.354 535.879 169.73C536.444 170.077 536.896 170.581 537.179 171.18C537.455 171.81 537.571 172.497 537.519 173.182C537.467 173.867 537.247 174.529 536.879 175.11C536.507 175.661 535.983 176.092 535.369 176.35C534.668 176.641 533.905 176.751 533.15 176.67C532.387 176.635 531.645 176.412 530.989 176.02C530.422 175.672 529.97 175.164 529.689 174.56C529.406 173.934 529.289 173.245 529.349 172.56ZM530.439 172.65C530.389 173.127 530.475 173.61 530.689 174.04C530.923 174.448 531.27 174.778 531.689 174.99C532.178 175.247 532.718 175.394 533.27 175.42C533.817 175.47 534.369 175.406 534.889 175.23C535.33 175.083 535.716 174.808 535.999 174.44C536.279 174.047 536.439 173.582 536.46 173.1C536.513 172.621 536.423 172.137 536.199 171.71C535.981 171.279 535.63 170.929 535.199 170.71C534.713 170.456 534.177 170.31 533.629 170.28C533.08 170.22 532.523 170.282 531.999 170.46C531.561 170.611 531.178 170.889 530.9 171.26C530.608 171.665 530.447 172.15 530.439 172.65Z" fill="#EEEEEE"/>
<path d="M328.47 468.519C334.628 468.519 339.62 463.527 339.62 457.369C339.62 451.211 334.628 446.219 328.47 446.219C322.312 446.219 317.32 451.211 317.32 457.369C317.32 463.527 322.312 468.519 328.47 468.519Z" fill="#EEEEEE"/>
<path d="M325.991 541.33C325.371 541.33 324.751 541.33 324.121 541.28C314.061 540.82 305.711 536.92 299.321 529.7C292.931 522.48 289.981 513.7 290.451 503.3C290.781 496.11 294.001 488.3 300.311 479.47C306.909 470.512 314.724 462.518 323.531 455.72L328.211 452L332.531 456.13C340.679 463.707 347.73 472.384 353.481 481.91C358.961 491.32 361.481 499.38 361.111 506.55C360.641 516.91 356.851 525.48 349.861 532.03C343.433 538.142 334.859 541.482 325.991 541.33Z" fill="#121315"/>
<path d="M354.251 506.19C353.871 514.73 350.844 521.657 345.171 526.97C342.418 529.579 339.153 531.587 335.582 532.864C332.011 534.142 328.213 534.662 324.431 534.391C316.271 534.011 309.604 530.917 304.431 525.11C299.257 519.304 296.874 512.127 297.281 503.581C297.541 497.807 300.404 491.087 305.871 483.42C312.089 474.983 319.457 467.457 327.761 461.061C335.444 468.192 342.095 476.361 347.521 485.331C352.281 493.497 354.524 500.45 354.251 506.19Z" fill="#EEEEEE"/>
<path d="M351.63 483.13C346.457 474.463 338.607 465.03 328.08 454.83C316.653 464.037 307.967 472.703 302.02 480.83C296.073 488.957 292.947 496.473 292.64 503.38C292.18 513.273 295.02 521.573 301.16 528.28C307.145 534.734 315.427 538.576 324.22 538.978C333.012 539.38 341.611 536.311 348.16 530.43C354.88 524.31 358.47 516.31 358.93 506.43C359.243 499.544 356.81 491.777 351.63 483.13ZM345.17 527.01C342.418 529.619 339.152 531.626 335.581 532.904C332.01 534.181 328.213 534.701 324.43 534.43C316.27 534.05 309.603 530.957 304.43 525.15C299.257 519.343 296.873 512.167 297.28 503.62C297.54 497.847 300.403 491.127 305.87 483.46C312.088 475.023 319.456 467.496 327.76 461.1C335.443 468.232 342.094 476.4 347.52 485.37C352.26 493.51 354.493 500.463 354.22 506.23C353.86 514.77 350.843 521.696 345.17 527.01Z" fill="#EEEEEE"/>
<path d="M325.77 517.06C333.425 517.06 339.63 510.854 339.63 503.2C339.63 495.545 333.425 489.34 325.77 489.34C318.116 489.34 311.91 495.545 311.91 503.2C311.91 510.854 318.116 517.06 325.77 517.06Z" fill="#1C1C1B"/>
</svg>
