<svg width="22" height="22" viewBox="0 0 22 22" fill="none" xmlns="http://www.w3.org/2000/svg">
<path d="M9.80039 16.2004H12.2004V12.2004H16.2004V9.80039H12.2004V5.80039H9.80039V9.80039H5.80039V12.2004H9.80039V16.2004ZM11.0004 21.8504C9.48372 21.8504 8.06717 21.5664 6.75072 20.9983C5.43425 20.4302 4.28911 19.6593 3.31529 18.6855C2.34147 17.7117 1.57054 16.5665 1.00249 15.2501C0.434424 13.9336 0.150391 12.5171 0.150391 11.0004C0.150391 9.48372 0.434424 8.06717 1.00249 6.75072C1.57054 5.43425 2.34147 4.28911 3.31529 3.31529C4.28911 2.34147 5.43425 1.57054 6.75072 1.00249C8.06717 0.434424 9.48372 0.150391 11.0004 0.150391C12.5171 0.150391 13.9336 0.434424 15.2501 1.00249C16.5665 1.57054 17.7117 2.34147 18.6855 3.31529C19.6593 4.28911 20.4302 5.43425 20.9983 6.75072C21.5664 8.06717 21.8504 9.48372 21.8504 11.0004C21.8504 12.5171 21.5664 13.9336 20.9983 15.2501C20.4302 16.5665 19.6593 17.7117 18.6855 18.6855C17.7117 19.6593 16.5665 20.4302 15.2501 20.9983C13.9336 21.5664 12.5171 21.8504 11.0004 21.8504Z" fill="white"/>
</svg>
