<svg width="26" height="19" viewBox="0 0 26 19" fill="none" xmlns="http://www.w3.org/2000/svg">
<path d="M14.734 10.2853C14.1151 10.2757 13.5186 10.0525 13.0455 9.6535C12.5724 9.25446 12.2518 8.70408 12.138 8.0957C12.0243 7.48733 12.1243 6.85834 12.4213 6.31531C12.7182 5.77227 13.1938 5.3486 13.7674 5.11609C14.341 4.88358 14.9773 4.85656 15.5686 5.03955C16.1598 5.22254 16.6696 5.60431 17.0116 6.12018C17.3536 6.63605 17.5067 7.25428 17.4449 7.87012C17.3832 8.48595 17.1105 9.06151 16.673 9.49927C16.4206 9.75578 16.1183 9.95789 15.7849 10.0931C15.4514 10.2283 15.0937 10.2937 14.734 10.2853ZM6.29797 14.6343C5.71523 14.6319 5.15703 14.3994 4.74497 13.9873C4.3329 13.5752 4.10033 13.017 4.09796 12.4343V2.68829C4.09981 2.10539 4.3322 1.54682 4.74439 1.13464C5.15657 0.722463 5.71507 0.490127 6.29797 0.488281H23.17C23.753 0.489865 24.3116 0.722162 24.7238 1.1344C25.1361 1.54664 25.3684 2.1053 25.37 2.68829V12.4343C25.3681 13.0172 25.1358 13.5757 24.7236 13.9879C24.3114 14.4 23.7529 14.6324 23.17 14.6343H6.29797ZM7.65997 13.2712H21.807C21.807 12.6878 22.0387 12.1282 22.4513 11.7156C22.8639 11.3031 23.4235 11.0713 24.007 11.0713V4.05029C23.4235 4.05029 22.8639 3.81846 22.4513 3.40588C22.0387 2.9933 21.807 2.43376 21.807 1.85028H7.65997C7.65997 2.43376 7.42817 2.9933 7.01559 3.40588C6.60301 3.81846 6.04344 4.05029 5.45996 4.05029V11.0713C6.04344 11.0713 6.60301 11.3031 7.01559 11.7156C7.42817 12.1282 7.65997 12.6878 7.65997 13.2712ZM20.655 18.7213H2.21097C1.62822 18.7189 1.07003 18.4863 0.657959 18.0743C0.245892 17.6622 0.0133257 17.104 0.0109563 16.5212V5.19928C0.00946501 5.10935 0.0261175 5.02001 0.0598759 4.93665C0.0936344 4.85328 0.143816 4.7776 0.207459 4.71405C0.271102 4.6505 0.346887 4.60041 0.430298 4.56677C0.51371 4.53314 0.603039 4.51663 0.692963 4.51825C0.782803 4.51676 0.872028 4.53338 0.955323 4.56708C1.03862 4.60077 1.11429 4.65088 1.17783 4.71442C1.24136 4.77795 1.29147 4.85359 1.32517 4.93689C1.35886 5.02018 1.37545 5.10944 1.37396 5.19928V16.5173C1.38849 16.7347 1.48144 16.9396 1.63556 17.0937C1.78968 17.2478 1.9945 17.3408 2.21198 17.3553H20.656C20.7477 17.3518 20.8391 17.3668 20.9249 17.3995C21.0106 17.4321 21.0889 17.4817 21.155 17.5453C21.2211 17.609 21.2737 17.6853 21.3096 17.7698C21.3456 17.8542 21.3641 17.945 21.3641 18.0367C21.3641 18.1285 21.3456 18.2193 21.3096 18.3038C21.2737 18.3882 21.2211 18.4645 21.155 18.5281C21.0889 18.5918 21.0106 18.6414 20.9249 18.6741C20.8391 18.7067 20.7477 18.7218 20.656 18.7183L20.655 18.7213ZM6.29797 13.2712H5.45996V1.84924H6.29797C6.07661 1.85209 5.8651 1.9413 5.70856 2.09784C5.55202 2.25438 5.46281 2.46589 5.45996 2.68726V12.4333C5.4623 12.6548 5.55136 12.8666 5.70801 13.0233C5.86466 13.1799 6.07645 13.2689 6.29797 13.2712Z" fill="black"/>
</svg>
