<svg width="164" height="143" viewBox="0 0 164 143" fill="none" xmlns="http://www.w3.org/2000/svg">
<path d="M163.25 142.2H87.3203V84C87.3203 62.75 91.8203 45.73 100.68 33.41C109.54 21.09 124.9 10.0999 146.36 0.689941L146.79 0.5L163.44 32L162.96 32.22C149.89 38.36 140.73 44.54 135.75 50.6C130.871 56.5677 127.973 63.9083 127.46 71.6H163.25V142.2ZM88.3203 141.2H162.25V72.61H126.39V72.08C126.837 63.9912 129.854 56.2561 135 50C140 43.9 149.13 37.6999 162.08 31.5699L146.36 1.78003C125.29 11.08 110.2 21.91 101.51 33.99C92.8203 46.07 88.3403 62.99 88.3403 83.99L88.3203 141.2Z" fill="white"/>
<path d="M75.42 141.7H0.5V84.0004C0.5 62.7604 4.92001 45.9937 13.76 33.7003C22.6 21.407 37.7567 10.5571 59.23 1.15039L75.42 31.8104C62.22 38.0104 53.0933 44.1803 48.04 50.3203C42.971 56.4954 40.0131 64.1319 39.6 72.1104H75.42V141.7Z" fill="#EEEEEE"/>
</svg>
