<svg width="66" height="66" viewBox="0 0 66 66" fill="none" xmlns="http://www.w3.org/2000/svg">
<path d="M32.52 65.1904C26.0882 65.1904 19.8008 63.2832 14.4529 59.7098C9.10498 56.1365 4.93681 51.0575 2.47545 45.1153C0.0140901 39.173 -0.629914 32.6344 0.624877 26.3261C1.87967 20.0178 4.97689 14.2233 9.5249 9.67529C14.0729 5.12729 19.8674 2.03006 26.1757 0.775265C32.4839 -0.479526 39.0226 0.164489 44.9649 2.62585C50.9071 5.08721 55.9861 9.25538 59.5594 14.6033C63.1328 19.9512 65.04 26.2386 65.04 32.6704C65.0294 41.292 61.5998 49.5575 55.5034 55.6539C49.407 61.7503 41.1416 65.1798 32.52 65.1904ZM32.52 1.19043C26.2855 1.19043 20.1911 3.03927 15.0074 6.50317C9.82375 9.96708 5.78376 14.8905 3.39838 20.6506C1.013 26.4107 0.389378 32.7488 1.6064 38.8633C2.82341 44.9779 5.82639 50.5942 10.2355 55.0019C14.6447 59.4097 20.262 62.4109 26.3769 63.626C32.4918 64.841 38.8298 64.2155 44.5891 61.8282C50.3485 59.441 55.2705 55.3995 58.7328 50.2147C62.1951 45.03 64.042 38.9349 64.04 32.7004C64.0294 24.345 60.7049 16.3349 54.7957 10.4277C48.8866 4.5204 40.8755 1.19836 32.52 1.19043Z" fill="white"/>
<path d="M40.5662 32.2218C40.421 32.1496 40.2735 32.08 40.1241 32.0134C39.8639 27.0356 37.2444 24.1858 32.8458 24.1566C32.8259 24.1565 32.8061 24.1565 32.7862 24.1565C30.1553 24.1565 27.9672 25.3226 26.6204 27.4444L29.0395 29.1674C30.0456 27.5825 31.6245 27.2446 32.7873 27.2446C32.8008 27.2446 32.8142 27.2446 32.8275 27.2448C34.2758 27.2543 35.3687 27.6916 36.076 28.5442C36.5908 29.165 36.935 30.0228 37.1055 31.1054C35.8215 30.8788 34.4328 30.8091 32.9482 30.8975C28.7663 31.1476 26.0778 33.6801 26.2584 37.1991C26.35 38.9841 27.2064 40.5197 28.6698 41.5228C29.907 42.3709 31.5005 42.7856 33.1567 42.6917C35.3438 42.5672 37.0595 41.7008 38.2565 40.1165C39.1656 38.9133 39.7405 37.3542 39.9944 35.3896C41.0367 36.0428 41.8092 36.9023 42.2358 37.9355C42.9612 39.6919 43.0035 42.5781 40.7354 44.9311C38.7482 46.9925 36.3596 47.8843 32.7496 47.9118C28.7451 47.881 25.7166 46.5475 23.7476 43.9484C21.9037 41.5146 20.9508 37.9993 20.9152 33.5C20.9508 29.0006 21.9037 25.4853 23.7476 23.0515C25.7166 20.4525 28.7451 19.119 32.7495 19.0881C36.783 19.1192 39.8643 20.4591 41.9087 23.0707C42.9112 24.3514 43.667 25.962 44.1652 27.8399L47 27.0546C46.3961 24.7431 45.4458 22.7513 44.1526 21.0994C41.5316 17.7512 37.6984 16.0356 32.7594 16H32.7396C27.8107 16.0355 24.0204 17.7576 21.4741 21.1186C19.2082 24.1095 18.0394 28.2711 18.0001 33.4877L18 33.5L18.0001 33.5123C18.0394 38.7289 19.2082 42.8906 21.4741 45.8814C24.0204 49.2423 27.8107 50.9646 32.7396 51H32.7594C37.1415 50.9685 40.2303 49.7772 42.7749 47.1374C46.1041 43.6839 46.0039 39.355 44.9066 36.6976C44.1194 34.7919 42.6185 33.2441 40.5662 32.2218ZM33.0001 39.608C31.1672 39.7152 29.2631 38.861 29.1692 37.0314C29.0996 35.6747 30.099 34.161 33.1126 33.9807C33.4577 33.96 33.7964 33.9499 34.129 33.9499C35.2237 33.9499 36.2477 34.0603 37.1787 34.2716C36.8315 38.7746 34.7946 39.5058 33.0001 39.608Z" fill="white"/>
</svg>
