<svg width="66" height="66" viewBox="0 0 66 66" fill="none" xmlns="http://www.w3.org/2000/svg">
<g id="Twitter">
<path id="Vector" d="M32.51 66.0001C14.58 66.0001 0 51.4201 0 33.4901C0 15.5601 14.58 0.980042 32.51 0.980042C50.44 0.980042 65.02 15.5601 65.02 33.4901C65.03 51.41 50.44 66.0001 32.51 66.0001ZM32.51 1.97003C15.13 1.97003 1 16.11 1 33.48C1 50.85 15.14 64.9901 32.51 64.9901C49.88 64.9901 64.02 50.85 64.02 33.48C64.02 16.11 49.89 1.97003 32.51 1.97003Z" fill="#F1F1F1"/>
<path id="XMLID_00000040550013087105238690000007279789366302277035_" d="M17.8301 42.71C20.5001 44.42 23.6601 45.42 27.0701 45.42C38.2601 45.42 44.5801 35.9701 44.2001 27.4901C45.3801 26.6401 46.4001 25.58 47.2101 24.37C46.1301 24.85 44.9701 25.17 43.7501 25.32C44.9901 24.58 45.9501 23.3901 46.4001 21.9901C45.2401 22.6801 43.9501 23.18 42.5701 23.45C41.4701 22.28 39.9001 21.55 38.1701 21.55C34.2801 21.55 31.4201 25.18 32.3001 28.95C27.2901 28.7 22.8501 26.3 19.8801 22.65C18.3001 25.36 19.0601 28.9 21.7501 30.7C20.7601 30.67 19.8301 30.4 19.0201 29.95C18.9501 32.74 20.9601 35.35 23.8501 35.94C23.0001 36.17 22.0701 36.22 21.1301 36.04C21.9001 38.44 24.1201 40.18 26.7601 40.23C24.2101 42.2 21.0201 43.09 17.8301 42.71Z" fill="#F1F1F1"/>
</g>
</svg>
