<svg width="24" height="23" viewBox="0 0 24 23" fill="none" xmlns="http://www.w3.org/2000/svg">
<path d="M2.879 20.5676L2.35199 20.3316C2.03902 20.2048 1.75736 20.0116 1.52649 19.7652C1.29563 19.5188 1.12111 19.2251 1.01502 18.9046C0.90065 18.5909 0.849942 18.2577 0.865911 17.9242C0.881879 17.5908 0.964191 17.2638 1.10801 16.9625L2.879 13.1626V20.5676ZM8.362 22.4216C7.6988 22.4176 7.06398 22.1519 6.59577 21.6821C6.12755 21.2124 5.86384 20.5768 5.862 19.9136V14.0006L8.63001 21.6005C8.69268 21.7625 8.75301 21.9075 8.81101 22.0355C8.87416 22.1722 8.95592 22.2994 9.05399 22.4136L8.362 22.4216ZM13.817 21.2075C13.5684 21.3056 13.3024 21.3521 13.0353 21.3442C12.7681 21.3363 12.5054 21.2742 12.263 21.1616C12.0192 21.0535 11.8003 20.8963 11.6199 20.6999C11.4396 20.5034 11.3018 20.2717 11.215 20.0196L6.13801 6.07656C6.03972 5.82832 5.99404 5.56242 6.00385 5.29561C6.01366 5.02881 6.07876 4.76692 6.19501 4.52657C6.30708 4.28348 6.46716 4.0656 6.66565 3.88601C6.86415 3.70642 7.09695 3.56885 7.35001 3.48159L15.366 0.547568C15.6142 0.449286 15.8802 0.403601 16.147 0.413412C16.4138 0.423224 16.6756 0.488326 16.916 0.604574C17.1591 0.716642 17.377 0.876722 17.5566 1.07522C17.7362 1.27371 17.8737 1.50648 17.961 1.75954L23.046 15.7016C23.144 15.9495 23.1905 16.2148 23.1826 16.4813C23.1747 16.7478 23.1126 17.0099 23 17.2515C22.8917 17.4949 22.7344 17.7133 22.5379 17.8931C22.3414 18.0729 22.11 18.2103 21.858 18.2966L13.817 21.2075ZM13.399 19.9926L21.399 17.0825C21.4959 17.0485 21.5851 16.9957 21.6614 16.927C21.7378 16.8584 21.7999 16.7753 21.844 16.6826C21.8875 16.5908 21.9111 16.4909 21.9132 16.3894C21.9153 16.2878 21.8958 16.187 21.856 16.0936L16.813 2.2156C16.7436 2.02027 16.5999 1.8603 16.413 1.77059C16.3211 1.72703 16.221 1.70344 16.1193 1.70138C16.0176 1.69931 15.9166 1.71878 15.823 1.75857L7.831 4.6686C7.63567 4.73796 7.4757 4.88171 7.38599 5.06856C7.34245 5.16031 7.31888 5.26025 7.31681 5.36178C7.31474 5.46331 7.33423 5.56411 7.374 5.65755L12.411 19.5355C12.445 19.6325 12.4978 19.7217 12.5664 19.7981C12.6351 19.8745 12.7182 19.9365 12.811 19.9806C12.9028 20.024 13.0027 20.0475 13.1042 20.0496C13.2057 20.0516 13.3065 20.0322 13.4 19.9926H13.399Z" fill="black"/>
</svg>
