<svg width="66" height="66" viewBox="0 0 66 66" fill="none" xmlns="http://www.w3.org/2000/svg">
<g id="Whatsapp">
<path id="Vector" d="M32.51 65.02C14.58 65.02 0 50.44 0 32.51C0 14.58 14.58 0 32.51 0C50.44 0 65.02 14.58 65.02 32.51C65.03 50.43 50.44 65.02 32.51 65.02ZM32.51 1C15.13 1 1 15.14 1 32.51C1 49.88 15.14 64.02 32.51 64.02C49.88 64.02 64.02 49.88 64.02 32.51C64.02 15.14 49.89 1 32.51 1Z" fill="#F1F1F1"/>
<path id="Vector_2" fill-rule="evenodd" clip-rule="evenodd" d="M49.3407 31.68C49.1207 23.02 41.9907 16.07 33.2107 16.07C24.5407 16.07 17.4707 22.86 17.0907 31.38C17.0807 31.61 17.0707 31.85 17.0707 32.08C17.0707 35.11 17.9207 37.94 19.3807 40.35L16.4707 48.94L25.4107 46.1C27.7207 47.37 30.3807 48.09 33.2107 48.09C42.1207 48.09 49.3507 40.92 49.3507 32.07C49.3507 31.95 49.3507 31.81 49.3407 31.68ZM33.2107 45.55C30.4507 45.55 27.8907 44.73 25.7507 43.32L20.5407 44.98L22.2307 39.98C20.6107 37.76 19.6507 35.03 19.6507 32.09C19.6507 31.65 19.6707 31.21 19.7207 30.78C20.3807 23.97 26.1907 18.62 33.2207 18.62C40.3407 18.62 46.2007 24.1 46.7407 31.03C46.7707 31.38 46.7907 31.73 46.7907 32.08C46.7807 39.51 40.6907 45.55 33.2107 45.55Z" fill="#F1F1F1"/>
<path id="Vector_3" fill-rule="evenodd" clip-rule="evenodd" d="M40.6096 35.32C40.2096 35.12 38.2696 34.17 37.9096 34.04C37.5496 33.9 37.2796 33.8401 37.0196 34.2401C36.7596 34.6301 35.9896 35.52 35.7696 35.77C35.5396 36.03 35.3096 36.06 34.9096 35.87C34.5196 35.67 33.2396 35.27 31.7296 33.92C30.5596 32.89 29.7596 31.6 29.5296 31.21C29.2996 30.82 29.5096 30.61 29.6996 30.41C29.8796 30.23 30.0896 29.95 30.2996 29.72C30.3496 29.65 30.3996 29.59 30.4396 29.53C30.5296 29.39 30.5996 29.25 30.6896 29.06C30.8296 28.8 30.7596 28.57 30.6596 28.37C30.5596 28.17 29.7696 26.24 29.4396 25.45C29.1196 24.66 28.7796 24.8 28.5496 24.8C28.3196 24.8 28.0596 24.76 27.7896 24.76C27.5296 24.76 27.0896 24.86 26.7296 25.25C26.3696 25.64 25.3496 26.59 25.3496 28.53C25.3496 28.98 25.4296 29.44 25.5496 29.87C25.9496 31.25 26.8096 32.39 26.9596 32.59C27.1596 32.85 29.6896 36.94 33.7096 38.52C37.7396 40.08 37.7396 39.5601 38.4596 39.4901C39.1896 39.4301 40.7996 38.55 41.1296 37.62C41.4596 36.71 41.4596 35.92 41.3596 35.75C41.2596 35.61 40.9996 35.51 40.6096 35.32Z" fill="#F1F1F1"/>
</g>
</svg>
