<svg width="217" height="197" viewBox="0 0 217 197" fill="none" xmlns="http://www.w3.org/2000/svg">
<path d="M8.34015 107.95C12.3056 107.95 15.5201 104.735 15.5201 100.77C15.5201 96.8044 12.3056 93.5898 8.34015 93.5898C4.37474 93.5898 1.16016 96.8044 1.16016 100.77C1.16016 104.735 4.37474 107.95 8.34015 107.95Z" fill="#1C1C1B"/>
<path d="M208.37 107.95C212.336 107.95 215.55 104.735 215.55 100.77C215.55 96.8044 212.336 93.5898 208.37 93.5898C204.405 93.5898 201.19 96.8044 201.19 100.77C201.19 104.735 204.405 107.95 208.37 107.95Z" fill="#1C1C1B"/>
<path d="M108.35 137.349C60.6104 137.349 21.3504 96.3994 20.9304 95.9794L20.6904 95.7294L20.9304 95.4694C21.3304 95.0594 60.6104 54.1094 108.35 54.1094C156.09 54.1094 195.35 95.0594 195.77 95.4694L196.01 95.7294L195.77 95.9794C195.38 96.3994 156.09 137.349 108.35 137.349ZM21.7204 95.7294C25.1304 99.1994 62.9104 136.599 108.35 136.599C153.79 136.599 191.58 99.1994 194.99 95.7294C191.58 92.2494 153.8 54.8494 108.35 54.8494C62.9004 54.8494 25.1304 92.2494 21.7204 95.7294Z" fill="#121315"/>
<path d="M108.35 148C60.6104 148 21.3504 107 20.9304 106.64L20.6904 106.38L20.9304 106.13C21.3304 105.71 60.6104 64.7598 108.35 64.7598C156.09 64.7598 195.35 105.71 195.77 106.13L196.01 106.38L195.77 106.64C195.38 107 156.09 148 108.35 148ZM21.7204 106.37C25.1304 109.85 62.9104 147.25 108.35 147.25C153.79 147.25 191.58 109.85 194.99 106.37C191.58 102.9 153.8 65.4998 108.35 65.4998C62.9004 65.4998 25.1304 102.9 21.7204 106.37Z" fill="#121315"/>
<path d="M108.41 108.009C117.583 108.009 125.02 100.573 125.02 91.3991C125.02 82.2256 117.583 74.7891 108.41 74.7891C99.2364 74.7891 91.7998 82.2256 91.7998 91.3991C91.7998 100.573 99.2364 108.009 108.41 108.009Z" fill="#1C1C1B"/>
<path d="M108.41 110.241L108.04 108.081C105.93 95.5606 104.25 93.8906 91.7303 91.7706L89.5703 91.4005L91.7303 91.0405C104.25 88.9205 105.92 87.2405 108.04 74.7305L108.41 72.5605L108.78 74.7305C110.89 87.2405 112.57 88.9205 125.09 91.0405L127.25 91.4005L125.09 91.7706C112.57 93.8906 110.89 95.5606 108.78 108.081L108.41 110.241ZM93.9203 91.4005C104.26 93.3405 106.48 95.5505 108.41 105.891C110.34 95.5505 112.56 93.3405 122.9 91.4005C112.56 89.4705 110.34 87.2606 108.41 76.9106C106.48 87.2606 104.26 89.4705 93.9203 91.4005Z" fill="#121315"/>
<path d="M108.31 196.789L107.95 194.629C107.05 189.349 106.42 188.709 101.13 187.819L98.9697 187.449L101.13 187.089C106.42 186.189 107.05 185.549 107.95 180.269L108.31 178.109L108.68 180.269C109.57 185.549 110.21 186.189 115.49 187.089L117.65 187.449L115.49 187.819C110.21 188.709 109.57 189.349 108.68 194.629L108.31 196.789ZM103.16 187.449C106.5 188.199 107.56 189.269 108.31 192.599C109.07 189.269 110.13 188.199 113.47 187.449C110.13 186.699 109.07 185.629 108.31 182.299C107.56 185.629 106.5 186.699 103.16 187.449Z" fill="#121315"/>
<path d="M108.55 120.049C97.3682 119.946 86.6438 115.595 78.55 107.879C69.9975 99.7 64.2117 89.0549 62 77.4293L62.73 77.2793C67.64 102.029 86.47 119.279 108.5 119.279C130.53 119.279 149.29 102.039 154.24 77.3593L154.97 77.5093C152.741 89.1079 146.953 99.7235 138.41 107.879C130.351 115.562 119.683 119.909 108.55 120.049Z" fill="#121315"/>
<path d="M108.92 119.68H108.18V136.98H108.92V119.68Z" fill="#121315"/>
<path d="M108.72 0.320312H107.98V41.1703H108.72V0.320312Z" fill="#121315"/>
<path d="M82.7579 2.50189L82.041 2.68555L92.291 42.6934L93.0078 42.5098L82.7579 2.50189Z" fill="#121315"/>
<path d="M58.3452 9.08855L57.6787 9.41016L75.8842 47.1372L76.5507 46.8156L58.3452 9.08855Z" fill="#121315"/>
<path d="M37.9224 19.2337L37.3096 19.6484L60.458 53.8514L61.0708 53.4366L37.9224 19.2337Z" fill="#121315"/>
<path d="M20.6014 31.1861L20.0332 31.6602L45.7615 62.4965L46.3297 62.0224L20.6014 31.1861Z" fill="#121315"/>
<path d="M1.34326 46.546L0.845703 47.0938L30.4396 73.975L30.9372 73.4272L1.34326 46.546Z" fill="#121315"/>
<path d="M134.808 2.93765L125.035 42.7559L125.754 42.9322L135.527 3.11404L134.808 2.93765Z" fill="#121315"/>
<path d="M159.263 10.4178L141.351 47.2422L142.016 47.5659L159.929 10.7415L159.263 10.4178Z" fill="#121315"/>
<path d="M180.105 19.2137L156.796 54.0195L157.411 54.4313L180.72 19.6254L180.105 19.2137Z" fill="#121315"/>
<path d="M197.45 31.1943L171.62 62.8418L172.193 63.3097L198.023 31.6622L197.45 31.1943Z" fill="#121315"/>
<path d="M215.667 44.4782L185.205 72.9844L185.711 73.5247L216.173 45.0185L215.667 44.4782Z" fill="#121315"/>
<path d="M108.72 147.619H107.98V172.459H108.72V147.619Z" fill="#121315"/>
</svg>
