<svg width="213" height="198" viewBox="0 0 213 198" fill="none" xmlns="http://www.w3.org/2000/svg">
<path d="M105.96 34.5387C106.15 34.5588 106.35 34.5687 106.54 34.5987L110 1.02875C109.81 1.00875 109.62 0.98875 109.42 0.96875L105.96 34.5387Z" fill="black"/>
<path d="M104 59.1596C103.81 59.1396 103.61 59.1296 103.42 59.0996L99.96 92.6696C100.15 92.6896 100.34 92.7096 100.54 92.7296L104 59.1596Z" fill="black"/>
<path d="M117.29 47.8301C117.27 48.0201 117.26 48.2201 117.23 48.4101L150.8 51.8701C150.82 51.6801 150.84 51.4901 150.86 51.2901L117.29 47.8301Z" fill="black"/>
<path d="M92.6696 45.8701C92.6896 45.6801 92.6996 45.4801 92.7296 45.2901L59.1596 41.8301C59.1396 42.0201 59.1196 42.2101 59.0996 42.4101L92.6696 45.8701Z" fill="black"/>
<path d="M96.9602 37.4501C97.1102 37.3202 97.2602 37.2101 97.4102 37.0901L76.1201 10.9102C75.9701 11.0302 75.8102 11.1501 75.6602 11.2701L96.9602 37.4501Z" fill="black"/>
<path d="M113 56.25C112.85 56.38 112.7 56.49 112.55 56.61L133.84 82.79C133.99 82.67 134.15 82.55 134.3 82.43L113 56.25Z" fill="black"/>
<path d="M95.58 54.8699C95.45 54.7199 95.34 54.5699 95.22 54.4199L69.04 75.7099C69.16 75.8599 69.28 76.0199 69.4 76.1699L95.58 54.8699Z" fill="black"/>
<path d="M114.38 38.8291C114.51 38.9791 114.62 39.1291 114.74 39.2791L140.93 17.9991C140.81 17.8491 140.69 17.6891 140.57 17.5391L114.38 38.8291Z" fill="black"/>
<path d="M108.74 58.6289C108.56 58.6889 108.37 58.7289 108.18 58.7789L117.69 91.1589C117.88 91.1089 118.06 91.0589 118.25 90.9989L108.74 58.6289Z" fill="black"/>
<path d="M101.22 35.0788C101.4 35.0188 101.59 34.9788 101.78 34.9288L92.27 2.54883C92.08 2.59883 91.9 2.64882 91.71 2.70882L101.22 35.0788Z" fill="black"/>
<path d="M149.14 33.5801L116.76 43.0901C116.82 43.2701 116.86 43.4601 116.91 43.6501L149.29 34.1401C149.24 33.9601 149.19 33.7701 149.14 33.5801Z" fill="black"/>
<path d="M93.2097 50.6088C93.1497 50.4288 93.1097 50.2388 93.0597 50.0488L60.6797 59.5588C60.7297 59.7488 60.7797 59.9288 60.8397 60.1188L93.2097 50.6088Z" fill="black"/>
<path d="M93.9999 41.1898C94.0899 41.0198 94.1799 40.8498 94.2799 40.6798L64.6599 24.5098C64.5699 24.6798 64.4699 24.8498 64.3799 25.0198L93.9999 41.1898Z" fill="black"/>
<path d="M115.96 52.5195C115.87 52.6895 115.78 52.8595 115.68 53.0295L145.3 69.1995C145.39 69.0295 145.49 68.8595 145.58 68.6895L115.96 52.5195Z" fill="black"/>
<path d="M99.3197 57.8288C99.1497 57.7388 98.9796 57.6488 98.8096 57.5488L82.6396 87.1688C82.8096 87.2588 82.9796 87.3588 83.1496 87.4488L99.3197 57.8288Z" fill="black"/>
<path d="M110.65 35.87C110.82 35.96 110.99 36.05 111.16 36.15L127.33 6.53C127.16 6.44 126.99 6.34 126.82 6.25L110.65 35.87Z" fill="black"/>
<path d="M103.451 34.5892C103.641 34.5692 103.831 34.5492 104.031 34.5292L100.641 0.949219C100.451 0.969219 100.251 0.979222 100.061 0.999222L103.451 34.5892Z" fill="black"/>
<path d="M106.51 59.1094C106.32 59.1294 106.13 59.1494 105.93 59.1694L109.32 92.7494C109.51 92.7294 109.71 92.7194 109.9 92.6994L106.51 59.1094Z" fill="black"/>
<path d="M92.7201 48.3788C92.7001 48.1888 92.6801 47.9988 92.6601 47.7988L59.0801 51.1888C59.1001 51.3788 59.1101 51.5788 59.1301 51.7688L92.7201 48.3788Z" fill="black"/>
<path d="M117.24 45.3197C117.26 45.5097 117.28 45.6997 117.3 45.8997L150.88 42.5097C150.86 42.3197 150.85 42.1197 150.83 41.9297L117.24 45.3197Z" fill="black"/>
<path d="M95.2296 39.2688C95.3496 39.1188 95.4696 38.9688 95.5996 38.8188L69.4596 17.4688C69.3396 17.6188 69.2196 17.7687 69.0996 17.9187L95.2296 39.2688Z" fill="black"/>
<path d="M114.73 54.4395C114.61 54.5895 114.49 54.7395 114.36 54.8895L140.5 76.2395C140.62 76.0895 140.74 75.9394 140.86 75.7894L114.73 54.4395Z" fill="black"/>
<path d="M97.3996 56.5985C97.2496 56.4785 97.0996 56.3585 96.9496 56.2285L75.5996 82.3685C75.7496 82.4885 75.8996 82.6085 76.0496 82.7285L97.3996 56.5985Z" fill="black"/>
<path d="M112.57 37.0988C112.72 37.2188 112.87 37.3388 113.02 37.4688L134.37 11.3288C134.22 11.2088 134.07 11.0887 133.92 10.9688L112.57 37.0988Z" fill="black"/>
<path d="M111.04 57.6191C110.87 57.7091 110.7 57.7991 110.53 57.8891L126.38 87.6891C126.55 87.5991 126.73 87.5191 126.9 87.4291L111.04 57.6191Z" fill="black"/>
<path d="M98.9205 36.0798C99.0905 35.9898 99.2605 35.8998 99.4305 35.8098L83.5806 6.00977C83.4106 6.09977 83.2305 6.17976 83.0605 6.26976L98.9205 36.0798Z" fill="black"/>
<path d="M115.75 40.7897C115.84 40.9597 115.93 41.1297 116.02 41.2997L145.82 25.4497C145.73 25.2797 145.65 25.0997 145.56 24.9297L115.75 40.7897Z" fill="black"/>
<path d="M94.2097 52.9084C94.1197 52.7384 94.0297 52.5684 93.9397 52.3984L64.1396 68.2484C64.2296 68.4184 64.3096 68.5984 64.3996 68.7684L94.2097 52.9084Z" fill="black"/>
<path d="M93.0903 43.5196C93.1403 43.3296 93.2003 43.1496 93.2603 42.9596L60.9803 33.0996C60.9203 33.2796 60.8703 33.4696 60.8203 33.6596L93.0903 43.5196Z" fill="black"/>
<path d="M116.88 50.1797C116.83 50.3697 116.77 50.5497 116.71 50.7397L149 60.5997C149.06 60.4197 149.11 60.2297 149.16 60.0397L116.88 50.1797Z" fill="black"/>
<path d="M101.65 58.7501C101.46 58.7001 101.28 58.6401 101.09 58.5801L91.2305 90.8601C91.4105 90.9201 91.6005 90.9701 91.7905 91.0201L101.65 58.7501Z" fill="black"/>
<path d="M108.311 34.9594C108.501 35.0094 108.681 35.0694 108.871 35.1294L118.731 2.84945C118.551 2.78945 118.361 2.73945 118.171 2.68945L108.311 34.9594Z" fill="black"/>
<path d="M104.97 44.5391L67.5898 114.999H142.41L104.97 44.5391Z" fill="#EEEEEE"/>
<path d="M104.98 52.8598C108.299 52.8598 110.99 50.1691 110.99 46.8499C110.99 43.5306 108.299 40.8398 104.98 40.8398C101.66 40.8398 98.9697 43.5306 98.9697 46.8499C98.9697 50.1691 101.66 52.8598 104.98 52.8598Z" fill="#231F20"/>
<path d="M73.2497 197.968H30.1797L105 59.2383L179.59 197.538L179.08 197.818L105.11 60.6683L73.2497 197.968ZM31.1497 197.388H72.7897L104.23 61.8983L31.1497 197.388Z" fill="black"/>
<path d="M28.6299 173.838H0.169922L49.2999 112.488L65.7399 133.028L65.2899 133.388L49.3999 113.548L28.6299 173.838ZM1.36993 173.258H28.2099L48.4699 114.438L1.36993 173.258Z" fill="black"/>
<path d="M212.38 173.728L164.19 113.538L152.25 148.218L145.55 135.648L164.09 112.488L212.84 173.368L212.38 173.728ZM146.23 135.698L152.13 146.758L163.27 114.428L146.23 135.698Z" fill="black"/>
<path d="M49.2895 112.939L28.4195 173.549H0.769531L49.2895 112.939Z" fill="#231F20"/>
<path d="M164.09 112.939L152.19 147.489L145.89 135.669L164.09 112.939Z" fill="#231F20"/>
<path d="M105 59.8496L73.0199 197.68H30.6699L105 59.8496Z" fill="#231F20"/>
</svg>
