<svg width="123" height="198" viewBox="0 0 123 198" fill="none" xmlns="http://www.w3.org/2000/svg">
<path d="M89.33 131.65C92.6879 131.65 95.41 128.928 95.41 125.57C95.41 122.212 92.6879 119.49 89.33 119.49C85.9721 119.49 83.25 122.212 83.25 125.57C83.25 128.928 85.9721 131.65 89.33 131.65Z" fill="#161616"/>
<path d="M89.3303 133.831L88.9703 131.711C88.2103 127.231 87.6703 126.691 83.1903 125.931L81.0703 125.571L83.1903 125.211C87.6703 124.451 88.2103 123.911 88.9703 119.431L89.3303 117.311L89.6903 119.431C90.4503 123.911 90.9903 124.451 95.4703 125.211L97.5903 125.571L95.4703 125.931C90.9903 126.691 90.4503 127.231 89.6903 131.711L89.3303 133.831ZM85.1403 125.571C87.8003 126.201 88.7003 127.111 89.3303 129.761C89.9603 127.101 90.8703 126.201 93.5203 125.571C90.8603 124.941 89.9603 124.031 89.3303 121.381C88.7003 124.031 87.8003 124.941 85.1403 125.571Z" fill="#1C1C1B"/>
<path d="M29.7101 120.541L29.3501 118.421C28.2101 111.711 27.4101 110.901 20.7001 109.771L18.5801 109.411L20.7001 109.051C27.4101 107.911 28.2201 107.111 29.3501 100.401L29.7101 98.2812L30.0701 100.401C31.2101 107.111 32.0101 107.921 38.7201 109.051L40.8401 109.411L38.7201 109.771C32.0101 110.911 31.2001 111.711 30.0701 118.421L29.7101 120.541ZM22.7601 109.411C27.4701 110.391 28.7401 111.661 29.7201 116.361C30.7001 111.651 31.9701 110.381 36.6801 109.411C31.9701 108.431 30.7001 107.161 29.7201 102.461C28.7401 107.161 27.4701 108.431 22.7601 109.411Z" fill="#1C1C1B"/>
<path d="M117.15 197.79H5.84985C3.07985 197.79 0.839844 195.55 0.839844 192.78C0.839844 190.01 3.07985 187.77 5.84985 187.77H117.15C119.92 187.77 122.16 190.01 122.16 192.78C122.16 195.55 119.92 197.79 117.15 197.79Z" fill="#161616"/>
<path d="M115.27 188.75H7.70996V53.9304C7.70996 24.2804 31.84 0.150391 61.49 0.150391C91.14 0.150391 115.27 24.2804 115.27 53.9304V188.75ZM8.42995 188.02H114.54V53.9204C114.54 24.6704 90.74 0.870392 61.49 0.870392C32.24 0.870392 8.43996 24.6704 8.43996 53.9204V188.02H8.42995Z" fill="#1C1C1B"/>
<path d="M60.9502 61.541C61.1502 62.011 61.8302 62.011 62.0302 61.541C64.1502 56.581 68.1002 49.881 74.9102 46.221C75.8202 45.731 76.7602 45.301 77.7502 44.931C78.3702 44.701 78.2002 43.791 77.5502 43.791H45.4302C44.7702 43.791 44.6102 44.701 45.2302 44.931C46.2202 45.301 47.1702 45.731 48.0702 46.221C54.8702 49.891 58.8302 56.581 60.9502 61.541Z" fill="#161616"/>
<path d="M91.01 44.961C90.74 52.601 87.89 59.531 83.34 64.811C83.25 64.921 83.12 64.981 82.99 65.011C80.33 65.441 77.63 66.251 75.09 67.621C67.93 71.471 63.99 78.741 62.03 83.681C61.83 84.181 61.13 84.181 60.94 83.681C58.98 78.741 55.03 71.481 47.88 67.621C45.35 66.261 42.65 65.451 39.99 65.011C39.85 64.991 39.73 64.921 39.64 64.811C35.09 59.531 32.23 52.591 31.97 44.961C31.96 44.641 32.21 44.371 32.53 44.351C33.21 44.311 33.91 44.291 34.62 44.291C39.61 44.291 43.98 45.281 47.59 47.231C55.31 51.391 59.23 59.631 60.93 64.411C60.93 64.421 60.93 64.421 60.94 64.431C61.13 64.961 61.87 64.961 62.06 64.431C62.06 64.421 62.06 64.421 62.07 64.411C63.77 59.631 67.69 51.391 75.41 47.231C79.02 45.281 83.39 44.291 88.38 44.291C89.09 44.291 89.79 44.311 90.47 44.351C90.78 44.361 91.02 44.641 91.01 44.961Z" fill="#161616"/>
<path d="M61.3497 88.512C61.4297 88.822 61.2597 89.132 60.9497 89.222C58.2397 90.042 45.7197 93.372 36.0297 88.152C26.3497 82.942 22.7197 70.952 22.0197 68.262C21.9397 67.952 22.1097 67.642 22.4197 67.552C25.1297 66.732 37.6497 63.402 47.3397 68.622C57.0197 73.832 60.6497 85.822 61.3497 88.512Z" fill="#161616"/>
<path d="M61.6193 88.512C61.5393 88.822 61.7093 89.132 62.0193 89.222C64.7293 90.042 77.2493 93.372 86.9393 88.152C96.6193 82.942 100.249 70.952 100.949 68.262C101.029 67.952 100.859 67.642 100.549 67.552C97.8393 66.732 85.3193 63.402 75.6293 68.622C65.9593 73.832 62.3293 85.822 61.6193 88.512Z" fill="#161616"/>
<path d="M61.7695 137.45C61.7695 137.45 64.2495 132.38 68.6195 131.06C72.9995 129.75 77.6095 132.7 77.6095 132.7C77.6095 132.7 75.1295 137.77 70.7595 139.09C66.3795 140.4 61.7695 137.45 61.7695 137.45Z" fill="#161616"/>
<path d="M61.4893 95.2301C61.4893 95.2301 66.8293 93.3901 70.8493 95.5601C74.8693 97.7301 76.0493 103.08 76.0493 103.08C76.0493 103.08 70.7093 104.92 66.6893 102.75C62.6693 100.58 61.4893 95.2301 61.4893 95.2301Z" fill="#161616"/>
<path d="M61.4897 95.2301C61.4897 95.2301 56.1497 93.3901 52.1297 95.5601C48.1097 97.7301 46.9297 103.08 46.9297 103.08C46.9297 103.08 52.2697 104.92 56.2897 102.75C60.3097 100.58 61.4897 95.2301 61.4897 95.2301Z" fill="#161616"/>
<path d="M62.9598 104.85H60.0498V178.72H62.9598V104.85Z" fill="#1C1C1B"/>
<path d="M111.589 139.42H110.859V174.49H111.589V139.42Z" fill="#1C1C1B"/>
<path d="M111.589 122.08H110.859V132.52H111.589V122.08Z" fill="#1C1C1B"/>
<path d="M14.6502 41.5007L13.9502 41.3107C14.8702 37.8207 16.1902 34.4307 17.8602 31.2207L18.5102 31.5607C16.8502 34.7207 15.5602 38.0607 14.6502 41.5007Z" fill="#1C1C1B"/>
<path d="M22.4796 25.19L21.8896 24.76C31.1296 12.23 45.9397 4.75 61.4897 4.75V5.48C46.1697 5.48 31.5896 12.85 22.4796 25.19Z" fill="#1C1C1B"/>
</svg>
