<svg width="121" height="197" viewBox="0 0 121 197" fill="none" xmlns="http://www.w3.org/2000/svg">
<path d="M112.91 186.54H8.09961V150.74C8.09961 148.93 8.18961 147.1 8.37961 145.32C8.98961 139.39 10.5896 133.67 13.1396 128.29C20.4996 112.8 34.9596 101.87 51.8196 99.0501C52.0596 99.0101 52.1496 98.8401 52.1496 98.6901C52.1496 98.5401 52.0696 98.3601 51.8196 98.3201C26.4896 94.1001 8.1096 72.3601 8.1096 46.6301V10.8301H112.92V46.6301C112.92 72.6101 93.5496 94.9201 67.8496 98.5301C67.7196 98.5501 67.6996 98.6401 67.6996 98.6901C67.6996 98.7401 67.7196 98.8301 67.8496 98.8501C80.8596 100.67 92.6396 107.29 101.02 117.5C102.03 118.72 103.02 120.05 103.97 121.45C109.83 130.11 112.92 140.24 112.92 150.75V186.54H112.91ZM8.79961 185.84H112.2V150.74C112.2 140.38 109.15 130.38 103.37 121.84C102.44 120.46 101.46 119.15 100.46 117.95C92.1996 107.88 80.5796 101.35 67.7396 99.5501C67.2896 99.4901 66.9796 99.1301 66.9796 98.6901C66.9796 98.2501 67.2896 97.9001 67.7396 97.8301C93.0896 94.2801 112.2 72.2701 112.2 46.6301V11.5401H8.79961V46.6301C8.79961 72.0101 26.9396 93.4501 51.9196 97.6201C52.4596 97.7101 52.8396 98.1501 52.8396 98.6801C52.8396 99.2101 52.4596 99.6501 51.9196 99.7401C35.2896 102.52 21.0296 113.3 13.7696 128.58C11.2496 133.88 9.66961 139.53 9.07961 145.38C8.89961 147.14 8.79961 148.94 8.79961 150.73V185.84Z" fill="#1C1C1B"/>
<path d="M102.12 70.6205L101.5 70.2805C105.73 62.6605 107.96 54.0005 107.96 45.2305H108.67C108.67 54.1105 106.4 62.8905 102.12 70.6205Z" fill="#1C1C1B"/>
<path d="M114.94 10.9094H6.06015C3.35015 10.9094 1.16016 8.70938 1.16016 6.00938C1.16016 3.29938 3.36015 1.10938 6.06015 1.10938H114.95C117.66 1.10938 119.85 3.30938 119.85 6.00938C119.85 8.70938 117.65 10.9094 114.94 10.9094Z" fill="#231F20"/>
<path d="M114.94 11.2602H6.0598C3.1598 11.2602 0.799805 8.90024 0.799805 6.00024C0.799805 3.10024 3.1598 0.740234 6.0598 0.740234H114.95C117.85 0.740234 120.21 3.10024 120.21 6.00024C120.2 8.90024 117.84 11.2602 114.94 11.2602ZM6.0598 1.46024C3.5498 1.46024 1.5098 3.50024 1.5098 6.01024C1.5098 8.52024 3.5498 10.5602 6.0598 10.5602H114.95C117.46 10.5602 119.5 8.52024 119.5 6.01024C119.5 3.50024 117.46 1.46024 114.95 1.46024H6.0598Z" fill="#1C1C1B"/>
<path d="M114.94 196.269H6.06015C3.35015 196.269 1.16016 194.069 1.16016 191.369C1.16016 188.659 3.36015 186.469 6.06015 186.469H114.95C117.66 186.469 119.85 188.669 119.85 191.369C119.85 194.079 117.65 196.269 114.94 196.269Z" fill="#231F20"/>
<path d="M114.94 196.629H6.0598C3.1598 196.629 0.799805 194.269 0.799805 191.369C0.799805 188.469 3.1598 186.109 6.0598 186.109H114.95C117.85 186.109 120.21 188.469 120.21 191.369C120.2 194.269 117.84 196.629 114.94 196.629ZM6.0598 186.819C3.5498 186.819 1.5098 188.859 1.5098 191.369C1.5098 193.879 3.5498 195.919 6.0598 195.919H114.95C117.46 195.919 119.5 193.879 119.5 191.369C119.5 188.859 117.46 186.819 114.95 186.819H6.0598Z" fill="#1C1C1B"/>
<path d="M12.96 181.679V150.739C12.96 150.469 12.96 150.189 12.97 149.919C15.73 150.049 18.3199 150.369 20.2599 150.809C22.0799 151.219 23.9 151.749 25.82 152.309C30.19 153.579 34.72 154.899 39.57 154.899C40.48 154.899 41.39 154.849 42.27 154.759C52.4 153.669 59.47 146.789 66.31 140.129C68.42 138.079 70.41 136.139 72.47 134.389C79.71 128.229 88.97 124.069 98.78 122.529C99.17 123.059 99.56 123.609 99.94 124.169C105.25 132.019 108.06 141.209 108.06 150.739V181.679H12.96Z" fill="#231F20"/>
<path d="M41.5696 144.811C44.3145 144.811 46.5396 142.586 46.5396 139.841C46.5396 137.096 44.3145 134.871 41.5696 134.871C38.8248 134.871 36.5996 137.096 36.5996 139.841C36.5996 142.586 38.8248 144.811 41.5696 144.811Z" fill="#231F20"/>
<path d="M54.4496 127.12C52.7596 127.12 51.3896 125.75 51.3896 124.06C51.3896 122.37 52.7596 121 54.4496 121C56.1396 121 57.5096 122.37 57.5096 124.06C57.5096 125.75 56.1296 127.12 54.4496 127.12ZM54.4496 121.71C53.1496 121.71 52.0997 122.76 52.0997 124.06C52.0997 125.36 53.1496 126.41 54.4496 126.41C55.7496 126.41 56.7997 125.36 56.7997 124.06C56.7997 122.76 55.7496 121.71 54.4496 121.71Z" fill="#231F20"/>
<path d="M63.19 92.5206C60.19 92.5206 57.75 90.0806 57.75 87.0806C57.75 84.0806 60.19 81.6406 63.19 81.6406C66.19 81.6406 68.63 84.0806 68.63 87.0806C68.63 90.0806 66.19 92.5206 63.19 92.5206ZM63.19 82.3406C60.58 82.3406 58.45 84.4606 58.45 87.0806C58.45 89.6906 60.57 91.8206 63.19 91.8206C65.8 91.8206 67.93 89.7006 67.93 87.0806C67.93 84.4606 65.8 82.3406 63.19 82.3406Z" fill="#231F20"/>
<path d="M60.5394 113.001C62.5277 113.001 64.1395 111.389 64.1395 109.401C64.1395 107.413 62.5277 105.801 60.5394 105.801C58.5512 105.801 56.9395 107.413 56.9395 109.401C56.9395 111.389 58.5512 113.001 60.5394 113.001Z" fill="#231F20"/>
<path d="M48.8002 81.6102C54.9306 81.6102 59.9002 76.6405 59.9002 70.5101C59.9002 64.3798 54.9306 59.4102 48.8002 59.4102C42.6698 59.4102 37.7002 64.3798 37.7002 70.5101C37.7002 76.6405 42.6698 81.6102 48.8002 81.6102Z" fill="#231F20"/>
<path d="M108.67 31.1094H107.96V39.5794H108.67V31.1094Z" fill="#1C1C1B"/>
</svg>
