<svg width="209" height="209" viewBox="0 0 209 209" fill="none" xmlns="http://www.w3.org/2000/svg">
<path d="M110.411 5.74547L104.414 104.527L105.063 104.567L111.06 5.78485L110.411 5.74547Z" fill="#231F20"/>
<path d="M125.701 20.5457L104.383 104.469L105.013 104.629L126.331 20.7058L125.701 20.5457Z" fill="#231F20"/>
<path d="M110.411 5.74547L104.414 104.527L105.063 104.567L111.06 5.78485L110.411 5.74547Z" fill="#231F20"/>
<path d="M125.701 20.5457L104.383 104.469L105.013 104.629L126.331 20.7058L125.701 20.5457Z" fill="#231F20"/>
<path d="M147.163 15.162L104.422 104.414L105.008 104.695L147.749 15.4428L147.163 15.162Z" fill="#231F20"/>
<path d="M155.799 34.6368L104.425 104.342L104.956 104.733L156.33 35.0284L155.799 34.6368Z" fill="#231F20"/>
<path d="M177.702 37.7325L104.472 104.293L104.916 104.781L178.146 38.2209L177.702 37.7325Z" fill="#231F20"/>
<path d="M178.315 58.9321L104.549 104.279L104.889 104.833L178.655 59.4858L178.315 58.9321Z" fill="#231F20"/>
<path d="M197.493 70.1114L104.589 104.203L104.816 104.823L197.72 70.731L197.493 70.1114Z" fill="#231F20"/>
<path d="M190.06 90.0074L104.647 104.217L104.754 104.858L190.167 90.6485L190.06 90.0074Z" fill="#231F20"/>
<path d="M104.714 104.231L104.692 104.891L203.593 108.196L203.615 107.536L104.714 104.231Z" fill="#231F20"/>
<path d="M104.778 104.212L104.634 104.855L189.12 123.836L189.264 123.192L104.778 104.212Z" fill="#231F20"/>
<path d="M104.841 104.249L104.572 104.852L194.962 145.128L195.231 144.525L104.841 104.249Z" fill="#231F20"/>
<path d="M104.908 104.278L104.531 104.82L175.665 154.203L176.041 153.66L104.908 104.278Z" fill="#231F20"/>
<path d="M104.931 104.333L104.463 104.783L173.052 176.114L173.521 175.663L104.931 104.333Z" fill="#231F20"/>
<path d="M104.447 104.319L35.0566 174.867L35.52 175.323L104.911 104.774L104.447 104.319Z" fill="#231F20"/>
<path d="M104.552 104.29L33.3574 153.586L33.7275 154.12L104.922 104.825L104.552 104.29Z" fill="#231F20"/>
<path d="M104.565 104.245L13.7197 143.482L13.9775 144.079L104.823 104.841L104.565 104.245Z" fill="#231F20"/>
<path d="M104.63 104.21L20.1357 123.139L20.28 123.783L104.775 104.854L104.63 104.21Z" fill="#231F20"/>
<path d="M104.7 104.182L5.76953 106.408L5.78416 107.058L104.714 104.831L104.7 104.182Z" fill="#231F20"/>
<path d="M19.3611 89.9526L19.2539 90.5938L104.658 104.872L104.765 104.231L19.3611 89.9526Z" fill="#231F20"/>
<path d="M12.3387 69.0214L12.1074 69.6289L104.595 104.839L104.827 104.231L12.3387 69.0214Z" fill="#231F20"/>
<path d="M31.1208 58.9092L30.7803 59.4629L104.538 104.827L104.878 104.274L31.1208 58.9092Z" fill="#231F20"/>
<path d="M35.2213 34.0974L34.7529 34.5625L104.49 104.785L104.958 104.319L35.2213 34.0974Z" fill="#231F20"/>
<path d="M56.4809 32.6224L55.9424 32.9863L104.424 104.726L104.963 104.362L56.4809 32.6224Z" fill="#231F20"/>
<path d="M69.1126 12.2173L68.5068 12.4531L104.41 104.674L105.015 104.438L69.1126 12.2173Z" fill="#231F20"/>
<path d="M89.2113 19.3618L88.5723 19.4805L104.384 104.616L105.023 104.497L89.2113 19.3618Z" fill="#231F20"/>
<path d="M156.679 156.519C185.382 127.815 185.382 81.2783 156.679 52.575C127.976 23.8718 81.4388 23.8718 52.7355 52.575C24.0323 81.2783 24.0323 127.815 52.7355 156.519C81.4388 185.222 127.976 185.222 156.679 156.519Z" fill="#EEEEEE"/>
<path d="M150.249 201.921H59.6191L62.9791 174.791H146.889L150.249 201.921ZM60.3591 201.271H149.509L146.309 175.451H63.5491L60.3591 201.271Z" fill="#231F20"/>
<path d="M133.147 133.166C148.733 117.58 148.733 92.3106 133.147 76.725C117.562 61.1393 92.2924 61.1393 76.7067 76.725C61.121 92.3106 61.121 117.58 76.7067 133.166C92.2924 148.751 117.562 148.751 133.147 133.166Z" fill="#EEEEEE"/>
<path d="M104.929 145.181C82.7492 145.181 64.6992 127.131 64.6992 104.951C64.6992 82.7707 82.7492 64.7207 104.929 64.7207C127.109 64.7207 145.159 82.7707 145.159 104.951C145.159 127.131 127.119 145.181 104.929 145.181ZM104.929 65.3607C83.1092 65.3607 65.3492 83.1107 65.3492 104.941C65.3492 126.761 83.0992 144.521 104.929 144.521C126.759 144.521 144.509 126.771 144.509 104.941C144.509 83.1207 126.759 65.3607 104.929 65.3607Z" fill="#231F20"/>
<path d="M104.929 119.372C112.898 119.372 119.359 112.911 119.359 104.942C119.359 96.9723 112.898 90.5117 104.929 90.5117C96.9595 90.5117 90.499 96.9723 90.499 104.942C90.499 112.911 96.9595 119.372 104.929 119.372Z" fill="#231F20"/>
<path d="M93.4198 164.851C93.3798 164.851 93.2198 164.851 93.2198 164.851C83.3198 164.721 74.0298 160.771 67.0698 153.731C60.0998 146.681 56.2598 137.331 56.2598 127.411C56.2598 118.571 59.3098 110.181 64.9198 103.461C64.9098 103.591 64.8998 103.721 64.8998 103.861C64.8898 104.081 64.8798 104.291 64.8798 104.491C64.8698 104.821 64.8698 105.121 64.8698 105.351C64.8698 120.551 76.7398 133.191 91.8898 134.141C92.4998 134.181 93.1198 134.201 93.7098 134.201C94.1498 134.201 94.5998 134.191 95.0498 134.171C102.95 134.851 109.09 141.511 109.09 149.491C109.09 153.531 107.54 157.341 104.72 160.231C101.9 163.111 98.1398 164.761 94.1198 164.861C93.9998 164.861 93.8598 164.861 93.7198 164.861C93.6998 164.851 93.4898 164.851 93.4198 164.851Z" fill="#EEEEEE"/>
<path d="M93.6997 165.181L93.2097 165.171C83.2297 165.041 73.8597 161.061 66.8297 153.951C59.7997 146.841 55.9297 137.411 55.9297 127.401C55.9297 118.571 59.0297 109.991 64.6597 103.241L65.3097 102.461L65.2397 103.471C65.2297 103.601 65.2197 103.731 65.2197 103.861C65.2097 104.081 65.1997 104.281 65.1997 104.481C65.1897 104.811 65.1897 105.101 65.1897 105.331C65.1897 120.351 76.9297 132.861 91.9097 133.791C92.9497 133.861 93.9797 133.871 95.0397 133.821C103.12 134.511 109.42 141.381 109.42 149.461C109.42 153.591 107.83 157.481 104.95 160.431C102.07 163.381 98.2297 165.061 94.1197 165.161C93.9797 165.181 93.8397 165.181 93.6997 165.181ZM64.5397 104.441C59.3997 110.951 56.5797 119.061 56.5797 127.411C56.5797 137.241 60.3797 146.511 67.2897 153.501C74.1897 160.491 83.3997 164.401 93.2097 164.531L93.6897 164.541C93.8197 164.541 93.9597 164.541 94.0797 164.541C98.0097 164.441 101.7 162.831 104.46 160.011C107.22 157.181 108.74 153.451 108.74 149.501C108.74 141.751 102.71 135.171 94.9997 134.511C94.0197 134.561 92.8997 134.551 91.8397 134.481C76.5097 133.521 64.5097 120.731 64.5097 105.361C64.5097 105.131 64.5097 104.831 64.5197 104.491C64.5397 104.461 64.5397 104.451 64.5397 104.441Z" fill="#231F20"/>
<path d="M144.96 106.421C145 105.801 145.02 105.171 145.02 104.541C145.02 89.3508 133.16 76.7108 118.01 75.7508C117.4 75.7108 116.78 75.6908 116.17 75.6908C115.72 75.6908 115.27 75.7008 114.82 75.7208C106.92 75.0408 100.79 68.3808 100.79 60.4008C100.79 60.2708 100.79 60.1408 100.8 60.0108V59.9208V59.8308C100.8 59.7708 100.8 59.7108 100.81 59.6508V59.5708C100.82 59.4608 100.82 59.3408 100.83 59.2308V59.1808C100.84 59.0608 100.85 58.9508 100.86 58.8308C100.87 58.7308 100.88 58.6208 100.9 58.5208L100.91 58.4608C100.92 58.3408 100.94 58.2208 100.96 58.1008C100.97 58.0408 100.98 57.9808 100.99 57.9108L101 57.8508C101.03 57.6408 101.07 57.4508 101.11 57.2708L101.13 57.1608L101.15 57.0508L101.18 56.9408L101.2 56.8708C101.22 56.7908 101.24 56.7108 101.26 56.6308L101.28 56.5608L101.31 56.4708L101.33 56.4008C101.34 56.3508 101.36 56.3008 101.37 56.2508L101.39 56.1908C101.42 56.0708 101.46 55.9508 101.49 55.8408C101.51 55.7708 101.54 55.6908 101.56 55.6108L101.59 55.5308L101.61 55.4508L101.65 55.3308L101.68 55.2508C101.72 55.1308 101.77 54.9908 101.83 54.8408L101.84 54.8108C101.87 54.7408 101.9 54.6708 101.93 54.6008L101.94 54.5708C101.96 54.5208 101.98 54.4708 102.01 54.4208L102.07 54.2908L102.11 54.1908L102.26 53.8808L102.27 53.8508C102.28 53.8308 102.32 53.7508 102.32 53.7508L102.37 53.6508C102.4 53.5908 102.43 53.5308 102.46 53.4708L102.52 53.3708L102.57 53.2708C102.6 53.2108 102.63 53.1508 102.67 53.0908C102.71 53.0108 102.76 52.9208 102.82 52.8208L102.84 52.7808L102.92 52.6408C102.94 52.6108 102.96 52.5708 102.98 52.5408L103.04 52.4408L103.14 52.2608L103.25 52.0908L103.28 52.0408L103.31 52.0008C103.33 51.9708 103.5 51.7208 103.5 51.7208C103.53 51.6808 103.55 51.6408 103.58 51.6008L103.64 51.5108L103.7 51.4308L103.81 51.2808L103.91 51.1508L104.01 51.0108C104.01 51.0108 104.14 50.8508 104.15 50.8408L104.18 50.8108C104.18 50.8108 104.43 50.5008 104.43 50.4908L104.47 50.4508L104.66 50.2208C104.69 50.1808 104.72 50.1508 104.75 50.1108L104.83 50.0208C104.87 49.9808 104.9 49.9408 104.94 49.9008L105.07 49.7708L105.14 49.6908L105.25 49.5808L105.31 49.5208L105.42 49.4208L105.59 49.2608L105.71 49.1508L105.74 49.1208C105.74 49.1208 105.82 49.0408 105.84 49.0308L105.91 48.9708L105.98 48.9108L106.05 48.8508L106.08 48.8308L106.37 48.5808L106.47 48.5108L106.54 48.4508L106.58 48.4208L106.66 48.3508C106.81 48.2308 106.97 48.1108 107.14 47.9808C107.14 47.9808 107.28 47.8808 107.32 47.8508L107.35 47.8308L107.49 47.7308C107.52 47.7108 107.55 47.6908 107.58 47.6708L107.66 47.6208L107.74 47.5708C107.77 47.5508 107.81 47.5208 107.84 47.5008L107.92 47.4508L107.99 47.4008C108.01 47.3908 108.03 47.3708 108.05 47.3608L108.12 47.3208L108.24 47.2408L108.34 47.1808L108.44 47.1208C108.58 47.0408 108.71 46.9608 108.85 46.8908L108.95 46.8408L109.05 46.7908L109.15 46.7408L109.34 46.6508C109.4 46.6208 109.46 46.5908 109.53 46.5608L109.5 46.5708L109.58 46.5308L109.63 46.5108L109.8 46.4308L109.86 46.4108L109.93 46.3808C110.29 46.2208 110.67 46.0708 111.05 45.9308L111.13 45.9008C111.18 45.8808 111.24 45.8608 111.29 45.8408C111.38 45.8108 111.48 45.7808 111.58 45.7508C111.71 45.7108 111.83 45.6708 111.94 45.6408L112.04 45.6108C112.12 45.5908 112.21 45.5608 112.3 45.5408H112.31C112.43 45.5108 112.54 45.4808 112.66 45.4508C112.79 45.4208 112.91 45.3908 113.03 45.3708L113.07 45.3608C113.3 45.3108 113.54 45.2708 113.77 45.2308C113.93 45.2108 114.08 45.1808 114.23 45.1608C114.47 45.1308 114.71 45.1108 114.96 45.0908L115.15 45.0808C115.37 45.0708 115.57 45.0608 115.76 45.0508C115.89 45.0508 116.03 45.0508 116.16 45.0508C116.3 45.0508 116.44 45.0508 116.57 45.0508H116.64C126.54 45.1808 135.83 49.1308 142.79 56.1708C149.76 63.2208 153.6 72.5708 153.6 82.4808C153.61 91.3208 150.56 99.7108 144.96 106.421Z" fill="#EEEEEE"/>
<path d="M144.57 107.401L144.63 106.401C144.67 105.791 144.69 105.161 144.69 104.541C144.69 89.5209 132.96 77.0209 117.99 76.0809C116.93 76.0109 115.88 76.0009 114.84 76.0509C106.76 75.3509 100.47 68.4809 100.47 60.4009C100.47 60.2709 100.47 60.1309 100.48 60.0009V59.8209C100.48 59.7509 100.48 59.6909 100.49 59.6209V59.5509C100.5 59.4309 100.5 59.3209 100.51 59.2009C100.52 59.0309 100.53 58.9109 100.54 58.7909L100.58 58.4709C100.6 58.2909 100.62 58.1609 100.64 58.0409L100.67 57.8409C100.72 57.5609 100.75 57.3709 100.79 57.1809L100.87 56.7909C100.89 56.7209 100.9 56.6509 100.92 56.5909L101 56.3109C101.01 56.2609 101.03 56.2009 101.04 56.1509C101.09 55.9809 101.13 55.8509 101.16 55.7409C101.19 55.6309 101.21 55.5609 101.24 55.5009L101.36 55.1509C101.4 55.0309 101.45 54.8809 101.52 54.7309L101.62 54.4809C101.65 54.4009 101.68 54.3409 101.7 54.2909L102.14 53.3309L102.32 52.9809L102.64 53.0809L102.35 52.9209C102.39 52.8409 102.44 52.7609 102.49 52.6709L102.94 51.9309L103.27 52.0109L102.99 51.8309C103.01 51.8009 103.18 51.5509 103.18 51.5509L105.15 49.2009L106.41 48.0909C106.57 47.9609 106.73 47.8409 106.91 47.7109L107.26 47.4609C107.29 47.4409 107.33 47.4109 107.37 47.3909L107.52 47.2909C107.57 47.2609 107.6 47.2409 107.63 47.2109L108.24 46.8309C108.38 46.7509 108.52 46.6709 108.66 46.5909L109.32 46.2509L109.76 46.0509C110.13 45.8809 110.52 45.7309 110.91 45.5909L111.45 45.4109C111.59 45.3709 111.7 45.3309 111.82 45.3009L111.92 45.2709C111.99 45.2509 112.06 45.2309 112.13 45.2109L112.27 45.1709C112.36 45.1509 112.45 45.1209 112.55 45.1009C112.69 45.0709 112.81 45.0409 112.93 45.0209C113.21 44.9609 113.45 44.9209 113.69 44.8809C113.85 44.8609 114 44.8309 114.16 44.8109C114.41 44.7809 114.66 44.7509 114.91 44.7409L115.09 44.7309C115.32 44.7209 115.53 44.7109 115.72 44.7009C115.98 44.6909 116.28 44.6909 116.55 44.7009H116.62C126.61 44.8309 135.98 48.8109 143 55.9209C150.03 63.0309 153.9 72.4609 153.9 82.4609C153.9 91.2909 150.8 99.8709 145.17 106.621L144.57 107.401ZM116.17 75.3709C116.78 75.3709 117.41 75.3909 118.03 75.4309C133.35 76.3909 145.34 89.1809 145.34 104.541C145.34 104.841 145.34 105.141 145.33 105.441C150.47 98.9309 153.28 90.8209 153.28 82.4709C153.28 72.6409 149.48 63.3809 142.57 56.3909C135.67 49.4009 126.46 45.4909 116.65 45.3609H116.58C116.3 45.3509 116.02 45.3509 115.77 45.3609C115.59 45.3709 115.39 45.3709 115.17 45.3909L114.99 45.4009C114.75 45.4209 114.51 45.4409 114.28 45.4709C114.13 45.4909 113.98 45.5109 113.83 45.5309C113.6 45.5709 113.37 45.6109 113.14 45.6509C112.98 45.6809 112.87 45.7109 112.75 45.7409C112.64 45.7609 112.55 45.7909 112.47 45.8109L112.39 45.8309C112.27 45.8609 112.2 45.8809 112.14 45.9009L112.03 45.9309C111.91 45.9609 111.8 46.0009 111.67 46.0409L111.16 46.2109C110.79 46.3409 110.42 46.4909 110.07 46.6509L109.66 46.8409L109 47.1709C108.86 47.2409 108.73 47.3209 108.6 47.4009L107.32 48.2409C107.15 48.3609 107 48.4709 106.85 48.5909L104.89 50.4409L104.63 50.7309C104.62 50.7409 104.4 51.0209 104.4 51.0209L103.74 51.9009C103.74 51.9009 103.58 52.1409 103.56 52.1709L103.09 52.9409C103.02 53.0609 102.97 53.1509 102.93 53.2209L102.9 53.2809L102.14 54.9209C102.07 55.1009 102.02 55.2309 101.98 55.3509L101.8 55.8709C101.75 56.0309 101.72 56.1509 101.68 56.2609L101.42 57.3209C101.38 57.5009 101.35 57.6809 101.31 57.8909L101.27 58.1309C101.25 58.2609 101.23 58.3809 101.22 58.5009L101.18 58.8709C101.17 58.9809 101.16 59.0909 101.15 59.2109C101.14 59.3809 101.13 59.4909 101.12 59.6009V59.6809C101.12 59.7409 101.11 59.7909 101.11 59.8509L101.1 60.0509C101.09 60.1709 101.09 60.3009 101.09 60.4209C101.09 68.1609 107.12 74.7509 114.82 75.4109C115.26 75.3809 115.71 75.3709 116.17 75.3709Z" fill="#231F20"/>
<path d="M74.7402 87.5692C79.9502 78.1092 90.0102 71.6992 101.58 71.6992L74.7402 87.5692Z" fill="#EEEEEE"/>
<path d="M75.03 87.7291L74.46 87.4091C79.91 77.5191 90.3 71.3691 101.58 71.3691V72.0191C90.53 72.0291 80.36 78.0491 75.03 87.7291Z" fill="#231F20"/>
<path d="M70.96 102.318C70.96 98.8881 71.53 95.578 72.57 92.498L70.96 102.318Z" fill="#EEEEEE"/>
<path d="M71.2896 102.318H70.6396C70.6396 98.9185 71.1897 95.5784 72.2697 92.3984L72.8896 92.6084C71.8296 95.7184 71.2896 98.9885 71.2896 102.318Z" fill="#231F20"/>
<path d="M67.2793 201.591L70.5592 175.121H63.2693L59.9893 201.591H67.2793Z" fill="#231F20"/>
<path d="M67.5692 201.921H59.6191L62.9791 174.791H70.9291L67.5692 201.921ZM60.3591 201.271H66.9892L70.1891 175.451H63.5591L60.3591 201.271Z" fill="#231F20"/>
</svg>
