<svg width="199" height="198" viewBox="0 0 199 198" fill="none" xmlns="http://www.w3.org/2000/svg">
<path d="M99.5005 197.79C45.1805 197.79 0.980469 153.59 0.980469 99.27C0.980469 44.95 45.1805 0.75 99.5005 0.75C153.82 0.75 198.02 44.95 198.02 99.27C198.02 153.59 153.82 197.79 99.5005 197.79ZM99.5005 1.38C45.5205 1.38 1.61047 45.29 1.61047 99.27C1.61047 153.25 45.5205 197.16 99.5005 197.16C153.48 197.16 197.39 153.25 197.39 99.27C197.39 45.29 153.48 1.38 99.5005 1.38Z" fill="#1C1C1B"/>
<path d="M101.758 187.533C109.613 186.29 114.973 178.914 113.73 171.059C112.487 163.204 105.111 157.844 97.2561 159.087C89.401 160.33 84.0409 167.706 85.2839 175.561C86.527 183.416 93.9024 188.776 101.758 187.533Z" fill="#161616"/>
<path d="M99.5003 188.03C91.3903 188.03 84.7803 181.43 84.7803 173.31C84.7803 165.2 91.3803 158.59 99.5003 158.59C107.61 158.59 114.22 165.19 114.22 173.31C114.22 181.43 107.61 188.03 99.5003 188.03ZM99.5003 159.23C91.7303 159.23 85.4103 165.55 85.4103 173.32C85.4103 181.09 91.7303 187.41 99.5003 187.41C107.27 187.41 113.59 181.09 113.59 173.32C113.59 165.55 107.27 159.23 99.5003 159.23Z" fill="#1C1C1B"/>
<path d="M99.5006 39.6203C107.453 39.6203 113.901 33.1732 113.901 25.2203C113.901 17.2674 107.453 10.8203 99.5006 10.8203C91.5477 10.8203 85.1006 17.2674 85.1006 25.2203C85.1006 33.1732 91.5477 39.6203 99.5006 39.6203Z" fill="#161616"/>
<path d="M99.5003 39.94C91.3903 39.94 84.7803 33.34 84.7803 25.22C84.7803 17.11 91.3803 10.5 99.5003 10.5C107.61 10.5 114.22 17.1 114.22 25.22C114.22 33.34 107.61 39.94 99.5003 39.94ZM99.5003 11.14C91.7303 11.14 85.4103 17.46 85.4103 25.23C85.4103 33 91.7303 39.32 99.5003 39.32C107.27 39.32 113.59 33 113.59 25.23C113.59 17.46 107.27 11.14 99.5003 11.14Z" fill="#1C1C1B"/>
<path d="M54.3212 34.4398C52.2012 33.2198 49.7612 32.5098 47.1412 32.5098C39.1912 32.5098 32.7412 38.9598 32.7412 46.9098C32.7412 54.8598 39.1912 61.3098 47.1412 61.3098C49.7612 61.3098 52.2012 60.5998 54.3212 59.3798C58.6312 56.8898 61.5412 52.2398 61.5412 46.9098C61.5412 41.5798 58.6312 36.9298 54.3212 34.4398Z" fill="#EEEEEE"/>
<path d="M47.1409 61.6295C39.0309 61.6295 32.4209 55.0295 32.4209 46.9095C32.4209 38.7995 39.0209 32.1895 47.1409 32.1895C49.7009 32.1895 52.2409 32.8695 54.4809 34.1595C59.0309 36.7895 61.8609 41.6694 61.8609 46.8994C61.8609 52.1294 59.0309 57.0195 54.4809 59.6395C52.2409 60.9394 49.7009 61.6295 47.1409 61.6295ZM47.1409 32.8195C39.3709 32.8195 33.0509 39.1395 33.0509 46.9095C33.0509 54.6795 39.3709 60.9995 47.1409 60.9995C49.5909 60.9995 52.0209 60.3495 54.1609 59.1095C58.5209 56.5995 61.2209 51.9195 61.2209 46.9095C61.2209 41.8995 58.5109 37.2194 54.1609 34.7094C52.0209 33.4794 49.5909 32.8195 47.1409 32.8195Z" fill="#1C1C1B"/>
<path d="M61.5401 46.911C61.5401 41.571 58.6301 36.931 54.3201 34.441C53.7201 34.351 53.1101 34.291 52.4901 34.291C45.5201 34.291 39.8701 39.941 39.8701 46.911C39.8701 53.881 45.5201 59.531 52.4901 59.531C53.1101 59.531 53.7201 59.471 54.3201 59.381C58.6301 56.891 61.5401 52.251 61.5401 46.911Z" fill="#161616"/>
<path d="M52.4906 59.8502C45.3606 59.8502 39.5605 54.0502 39.5605 46.9202C39.5605 39.7902 45.3606 33.9902 52.4906 33.9902C53.0606 33.9902 53.6605 34.0402 54.3705 34.1402L54.4805 34.1802C59.0305 36.8102 61.8605 41.6902 61.8605 46.9202C61.8605 52.1502 59.0305 57.0402 54.4805 59.6602L54.3705 59.7002C53.6605 59.8002 53.0606 59.8502 52.4906 59.8502ZM52.4906 34.6102C45.7006 34.6102 40.1805 40.1302 40.1805 46.9202C40.1805 53.7102 45.7006 59.2302 52.4906 59.2302C53.0206 59.2302 53.5706 59.1902 54.2206 59.0902C58.5506 56.5702 61.2305 51.9102 61.2305 46.9202C61.2305 41.9302 58.5506 37.2702 54.2206 34.7502C53.5606 34.6502 53.0106 34.6102 52.4906 34.6102Z" fill="#1C1C1B"/>
<path d="M144.681 59.3817C146.791 60.6017 149.241 61.3117 151.861 61.3117C159.811 61.3117 166.261 54.8617 166.261 46.9117C166.261 38.9617 159.811 32.5117 151.861 32.5117C149.241 32.5117 146.801 33.2217 144.681 34.4417C140.371 36.9317 137.461 41.5817 137.461 46.9117C137.461 52.2517 140.371 56.8917 144.681 59.3817Z" fill="#EEEEEE"/>
<path d="M151.861 61.6309C149.301 61.6309 146.761 60.9509 144.521 59.6609C139.971 57.0309 137.141 52.1509 137.141 46.9209C137.141 41.6909 139.971 36.8009 144.521 34.1809C146.761 32.8909 149.291 32.2109 151.861 32.2109C159.971 32.2109 166.581 38.8109 166.581 46.9309C166.571 55.0309 159.971 61.6309 151.861 61.6309ZM151.861 32.8209C149.411 32.8209 146.981 33.4709 144.841 34.7109C140.481 37.2209 137.781 41.9009 137.781 46.9109C137.781 51.9209 140.491 56.6009 144.841 59.1109C146.981 60.3409 149.411 61.0009 151.861 61.0009C159.631 61.0009 165.951 54.6809 165.951 46.9109C165.951 39.1409 159.631 32.8209 151.861 32.8209Z" fill="#1C1C1B"/>
<path d="M137.461 46.911C137.461 52.251 140.371 56.891 144.681 59.381C145.281 59.471 145.891 59.531 146.511 59.531C153.481 59.531 159.131 53.881 159.131 46.911C159.131 39.941 153.481 34.291 146.511 34.291C145.891 34.291 145.281 34.351 144.681 34.441C140.371 36.931 137.461 41.571 137.461 46.911Z" fill="#161616"/>
<path d="M146.511 59.8502C145.931 59.8502 145.341 59.8002 144.631 59.7002L144.521 59.6602C139.971 57.0302 137.141 52.1502 137.141 46.9202C137.141 41.6902 139.971 36.8002 144.521 34.1802L144.631 34.1402C145.341 34.0402 145.941 33.9902 146.511 33.9902C153.641 33.9902 159.441 39.7902 159.441 46.9202C159.441 54.0502 153.651 59.8502 146.511 59.8502ZM144.791 59.0802C145.441 59.1702 145.991 59.2202 146.521 59.2202C153.311 59.2202 158.831 53.7002 158.831 46.9102C158.831 40.1202 153.311 34.6002 146.521 34.6002C145.991 34.6002 145.441 34.6402 144.791 34.7402C140.461 37.2602 137.781 41.9202 137.781 46.9102C137.771 51.9002 140.461 56.5602 144.791 59.0802Z" fill="#1C1C1B"/>
<path d="M54.3212 139.16C52.2012 137.94 49.7612 137.23 47.1412 137.23C39.1912 137.23 32.7412 143.68 32.7412 151.63C32.7412 159.58 39.1912 166.03 47.1412 166.03C49.7612 166.03 52.2012 165.32 54.3212 164.1C58.6312 161.61 61.5412 156.96 61.5412 151.63C61.5412 146.3 58.6312 141.65 54.3212 139.16Z" fill="#EEEEEE"/>
<path d="M47.1409 166.35C39.0309 166.35 32.4209 159.75 32.4209 151.63C32.4209 143.52 39.0209 136.91 47.1409 136.91C49.7009 136.91 52.2409 137.59 54.4809 138.88C59.0309 141.51 61.8609 146.39 61.8609 151.62C61.8609 156.85 59.0309 161.74 54.4809 164.36C52.2409 165.66 49.7009 166.35 47.1409 166.35ZM47.1409 137.54C39.3709 137.54 33.0509 143.86 33.0509 151.63C33.0509 159.4 39.3709 165.72 47.1409 165.72C49.5909 165.72 52.0209 165.07 54.1609 163.83C58.5209 161.32 61.2209 156.64 61.2209 151.63C61.2209 146.62 58.5109 141.94 54.1609 139.43C52.0209 138.2 49.5909 137.54 47.1409 137.54Z" fill="#1C1C1B"/>
<path d="M54.4207 151.63C54.4207 158.6 48.7707 164.25 41.8007 164.25C41.1807 164.25 40.5707 164.19 39.9707 164.1C42.0807 165.32 44.5307 166.03 47.1507 166.03C55.1007 166.03 61.5507 159.58 61.5507 151.63C61.5507 143.68 55.1007 137.23 47.1507 137.23C44.5307 137.23 42.0907 137.94 39.9707 139.16C40.5707 139.07 41.1807 139.01 41.8007 139.01C48.7707 139.01 54.4207 144.66 54.4207 151.63Z" fill="#161616"/>
<path d="M47.1411 166.35C44.5811 166.35 42.0411 165.67 39.8011 164.38L38.3811 163.56L40.0011 163.8C40.6811 163.9 41.2511 163.94 41.7911 163.94C48.5811 163.94 54.1011 158.42 54.1011 151.63C54.1011 144.84 48.5811 139.32 41.7911 139.32C41.2511 139.32 40.6811 139.37 40.0011 139.46L38.3711 139.7L39.7911 138.88C42.0311 137.59 44.5611 136.91 47.1311 136.91C55.2411 136.91 61.8511 143.51 61.8511 151.63C61.8611 159.74 55.2511 166.35 47.1411 166.35ZM41.5811 164.56C43.3411 165.32 45.2311 165.72 47.1411 165.72C54.9111 165.72 61.2311 159.4 61.2311 151.63C61.2311 143.86 54.9111 137.54 47.1411 137.54C45.2311 137.54 43.3311 137.94 41.5811 138.69C41.6511 138.69 41.7311 138.69 41.8011 138.69C48.9311 138.69 54.7311 144.49 54.7311 151.62C54.7311 158.75 48.9311 164.55 41.8011 164.55C41.7211 164.56 41.6511 164.56 41.5811 164.56Z" fill="#1C1C1B"/>
<path d="M144.681 164.1C146.791 165.32 149.241 166.03 151.861 166.03C159.811 166.03 166.261 159.58 166.261 151.63C166.261 143.68 159.811 137.23 151.861 137.23C149.241 137.23 146.801 137.94 144.681 139.16C140.371 141.65 137.461 146.3 137.461 151.63C137.461 156.96 140.371 161.61 144.681 164.1Z" fill="#EEEEEE"/>
<path d="M151.861 166.35C149.301 166.35 146.761 165.67 144.521 164.38C139.971 161.75 137.141 156.87 137.141 151.64C137.141 146.41 139.971 141.52 144.521 138.9C146.761 137.61 149.291 136.93 151.861 136.93C159.971 136.93 166.581 143.53 166.581 151.65C166.571 159.74 159.971 166.35 151.861 166.35ZM144.841 163.83C146.981 165.06 149.411 165.72 151.861 165.72C159.631 165.72 165.951 159.4 165.951 151.63C165.951 143.86 159.631 137.54 151.861 137.54C149.411 137.54 146.981 138.19 144.841 139.43C140.481 141.94 137.781 146.62 137.781 151.63C137.771 156.64 140.481 161.32 144.841 163.83Z" fill="#1C1C1B"/>
<path d="M144.58 151.63C144.58 144.66 150.23 139.01 157.2 139.01C157.82 139.01 158.43 139.07 159.03 139.16C156.92 137.94 154.47 137.23 151.85 137.23C143.9 137.23 137.45 143.68 137.45 151.63C137.45 159.58 143.9 166.03 151.85 166.03C154.47 166.03 156.91 165.32 159.03 164.1C158.43 164.19 157.82 164.25 157.2 164.25C150.23 164.25 144.58 158.6 144.58 151.63Z" fill="#161616"/>
<path d="M151.861 166.35C143.751 166.35 137.141 159.75 137.141 151.63C137.141 143.52 143.741 136.91 151.861 136.91C154.421 136.91 156.961 137.59 159.201 138.88L160.621 139.7L158.991 139.46C158.311 139.36 157.741 139.32 157.201 139.32C150.411 139.32 144.891 144.84 144.891 151.63C144.891 158.42 150.411 163.94 157.201 163.94C157.741 163.94 158.311 163.89 158.991 163.8L160.611 163.56L159.191 164.38C156.961 165.66 154.421 166.35 151.861 166.35ZM151.861 137.54C144.091 137.54 137.771 143.86 137.771 151.63C137.771 159.4 144.091 165.72 151.861 165.72C153.771 165.72 155.671 165.32 157.421 164.56C157.351 164.56 157.271 164.56 157.201 164.56C150.071 164.56 144.271 158.76 144.271 151.63C144.271 144.5 150.071 138.7 157.201 138.7C157.271 138.7 157.351 138.7 157.421 138.7C155.671 137.94 153.771 137.54 151.861 137.54Z" fill="#1C1C1B"/>
<path d="M32.6308 86.8011C30.5208 85.5811 28.0708 84.8711 25.4508 84.8711C17.5008 84.8711 11.0508 91.3211 11.0508 99.2711C11.0508 107.221 17.5008 113.671 25.4508 113.671C28.0708 113.671 30.5108 112.961 32.6308 111.741C36.9408 109.251 39.8508 104.601 39.8508 99.2711C39.8508 93.9411 36.9408 89.2911 32.6308 86.8011Z" fill="#EEEEEE"/>
<path d="M25.4505 113.991C17.3405 113.991 10.7305 107.391 10.7305 99.2708C10.7305 91.1608 17.3305 84.5508 25.4505 84.5508C28.0105 84.5508 30.5505 85.2308 32.7905 86.5208C37.3405 89.1508 40.1705 94.0308 40.1705 99.2608C40.1705 104.491 37.3405 109.381 32.7905 112.001C30.5505 113.301 28.0205 113.991 25.4505 113.991ZM25.4505 85.1808C17.6805 85.1808 11.3605 91.5008 11.3605 99.2708C11.3605 107.041 17.6805 113.361 25.4505 113.361C27.9005 113.361 30.3305 112.711 32.4705 111.471C36.8305 108.961 39.5305 104.281 39.5305 99.2708C39.5305 94.2608 36.8205 89.5808 32.4705 87.0708C30.3305 85.8408 27.9105 85.1808 25.4505 85.1808Z" fill="#1C1C1B"/>
<path d="M25.4502 84.8711V113.671C33.4002 113.671 39.8502 107.221 39.8502 99.2711C39.8502 91.3211 33.4102 84.8711 25.4502 84.8711Z" fill="#161616"/>
<path d="M25.4506 113.991H25.1406V84.5605H25.4506C33.5606 84.5605 40.1706 91.1605 40.1706 99.2805C40.1706 107.391 33.5706 113.991 25.4506 113.991ZM25.7706 85.1906V113.361C33.3906 113.191 39.5406 106.941 39.5406 99.2805C39.5406 91.6205 33.3906 85.3606 25.7706 85.1906Z" fill="#1C1C1B"/>
<path d="M173.55 113.991C165.44 113.991 158.83 107.391 158.83 99.2708C158.83 91.1608 165.43 84.5508 173.55 84.5508C176.11 84.5508 178.65 85.2308 180.89 86.5208C185.44 89.1508 188.27 94.0308 188.27 99.2608C188.27 104.491 185.44 109.381 180.89 112.001C178.65 113.301 176.11 113.991 173.55 113.991ZM173.55 85.1808C165.78 85.1808 159.46 91.5008 159.46 99.2708C159.46 107.041 165.78 113.361 173.55 113.361C176 113.361 178.43 112.711 180.57 111.471C184.93 108.961 187.63 104.281 187.63 99.2708C187.63 94.2608 184.92 89.5808 180.57 87.0708C178.43 85.8408 176 85.1808 173.55 85.1808Z" fill="#1C1C1B"/>
<path d="M173.55 113.671V84.8711C165.6 84.8711 159.15 91.3211 159.15 99.2711C159.15 107.221 165.59 113.671 173.55 113.671Z" fill="#161616"/>
<path d="M173.86 113.991H173.55C165.44 113.991 158.83 107.391 158.83 99.2708C158.83 91.1608 165.43 84.5508 173.55 84.5508H173.86V113.991ZM173.23 85.1908C165.61 85.3608 159.46 91.6108 159.46 99.2708C159.46 106.931 165.61 113.191 173.23 113.351V85.1908Z" fill="#1C1C1B"/>
<path d="M99.5008 109.47C105.134 109.47 109.701 104.904 109.701 99.2703C109.701 93.637 105.134 89.0703 99.5008 89.0703C93.8675 89.0703 89.3008 93.637 89.3008 99.2703C89.3008 104.904 93.8675 109.47 99.5008 109.47Z" fill="#161616"/>
<path d="M99.5009 111.349L99.1909 109.519C97.8909 101.809 96.9609 100.879 89.2509 99.5795L87.4209 99.2695L89.2509 98.9595C96.9609 97.6595 97.8909 96.7295 99.1909 89.0195L99.5009 87.1895L99.8109 89.0195C101.111 96.7295 102.041 97.6595 109.751 98.9595L111.581 99.2695L109.751 99.5795C102.041 100.879 101.111 101.809 99.8109 109.519L99.5009 111.349ZM91.0709 99.2695C96.9409 100.419 98.3509 101.829 99.5009 107.699C100.651 101.829 102.061 100.419 107.931 99.2695C102.061 98.1195 100.651 96.7094 99.5009 90.8394C98.3509 96.7094 96.9409 98.1195 91.0709 99.2695Z" fill="#1C1C1B"/>
<mask id="mask0_8_3514" style="mask-type:luminance" maskUnits="userSpaceOnUse" x="49" y="48" width="101" height="102">
<path d="M99.5006 48.9102C71.6906 48.9102 49.1406 71.4602 49.1406 99.2702C49.1406 127.08 71.6906 149.63 99.5006 149.63C127.311 149.63 149.861 127.08 149.861 99.2702C149.861 71.4602 127.311 48.9102 99.5006 48.9102ZM99.5006 132.01C81.4206 132.01 66.7606 117.35 66.7606 99.2702C66.7606 81.1902 81.4206 66.5302 99.5006 66.5302C117.581 66.5302 132.241 81.1902 132.241 99.2702C132.241 117.35 117.581 132.01 99.5006 132.01Z" fill="white"/>
</mask>
<g mask="url(#mask0_8_3514)">
<path d="M110.11 -7.77304L88.2529 206.238L88.8796 206.302L110.737 -7.70903L110.11 -7.77304Z" fill="black"/>
<path d="M-7.46765 87.928L-7.53223 88.5547L206.458 110.606L206.522 109.979L-7.46765 87.928Z" fill="black"/>
<path d="M31.896 15.6142L31.4072 16.0117L167.133 182.931L167.622 182.534L31.896 15.6142Z" fill="black"/>
<path d="M182.787 31.2043L15.8242 166.865L16.2215 167.354L183.184 31.6932L182.787 31.2043Z" fill="black"/>
<path d="M69.5068 -4.02714L68.9023 -3.84961L129.526 202.568L130.13 202.39L69.5068 -4.02714Z" fill="black"/>
<path d="M202.636 68.7105L-3.80273 129.248L-3.62546 129.853L202.813 69.315L202.636 68.7105Z" fill="black"/>
<path d="M5.24526 47.4412L4.94336 47.9941L193.763 151.084L194.065 150.531L5.24526 47.4412Z" fill="black"/>
<path d="M150.751 4.70381L47.7041 193.545L48.2571 193.847L151.304 5.00557L150.751 4.70381Z" fill="black"/>
<path d="M89.036 -7.782L88.4092 -7.71875L110.008 206.336L110.635 206.272L89.036 -7.782Z" fill="black"/>
<path d="M206.497 88.243L-7.55762 109.67L-7.49487 110.297L206.559 88.8698L206.497 88.243Z" fill="black"/>
<path d="M16.4024 30.9867L16.0039 31.4746L182.622 167.566L183.021 167.078L16.4024 30.9867Z" fill="black"/>
<path d="M167.273 15.7509L31.2461 182.412L31.7341 182.81L167.761 16.1492L167.273 15.7509Z" fill="black"/>
<path d="M49.274 4.16704L48.7178 4.46289L149.743 194.401L150.299 194.105L49.274 4.16704Z" fill="black"/>
<path d="M194.364 48.5376L4.36133 149.434L4.65679 149.99L194.66 49.094L194.364 48.5376Z" fill="black"/>
<path d="M-3.27001 67.5264L-3.4541 68.1289L202.296 130.99L202.48 130.387L-3.27001 67.5264Z" fill="black"/>
<path d="M130.686 -3.67997L67.7178 202.027L68.3202 202.212L131.289 -3.49557L130.686 -3.67997Z" fill="black"/>
</g>
<path d="M88.9502 43.5604L88.8202 41.4204C88.6902 39.3804 89.3802 37.4604 90.7002 36.1504C91.4202 35.4304 92.2502 34.8704 93.1102 34.5004C93.0902 32.6004 93.8602 30.7204 95.2602 29.4404C96.4502 28.3604 98.1002 27.7404 99.7802 27.7404C100.24 27.7404 100.71 27.7904 101.16 27.8804C102.9 25.8904 105.37 24.6304 108.03 24.4304C108.27 24.4104 108.51 24.4004 108.74 24.4004C111.82 24.4004 114.8 25.8404 116.69 28.2504C118.15 30.1104 118.9 32.4604 118.84 34.8104C119.64 35.0604 120.39 35.4704 121.04 36.0204C122.62 37.3604 123.14 39.6404 123.11 41.3304L123.06 43.5604H88.9502Z" fill="#EEEEEE"/>
<path d="M121.21 41.669H90.7202L90.7002 41.299C90.6102 39.799 91.0902 38.409 92.0202 37.489C92.9602 36.559 94.1202 35.979 95.2102 35.879C94.6602 34.149 95.1702 32.069 96.5202 30.839C97.9202 29.559 100.14 29.269 101.85 30.089C103.22 27.939 105.61 26.499 108.16 26.309C110.85 26.119 113.54 27.299 115.21 29.409C116.75 31.369 117.31 33.999 116.73 36.399C117.84 36.349 118.96 36.719 119.82 37.449C120.9 38.359 121.25 40.079 121.22 41.279L121.21 41.669Z" fill="#EEEEEE"/>
<path d="M121.52 41.9799H90.4301L90.3901 41.3099C90.2901 39.7199 90.8101 38.2399 91.8001 37.2499C92.6801 36.3799 93.7601 35.7899 94.8201 35.5999C94.4001 33.8099 94.9901 31.7999 96.3201 30.5899C97.7501 29.2899 99.9401 28.9299 101.74 29.6799C103.2 27.5499 105.57 26.1799 108.14 25.9899C110.92 25.7899 113.73 27.0199 115.46 29.2099C116.97 31.1299 117.58 33.6699 117.13 36.0799C118.18 36.1199 119.22 36.5199 120.03 37.1999C121.19 38.1799 121.57 40.0099 121.54 41.2799L121.52 41.9799ZM91.0201 41.3499H120.9V41.2699C120.93 40.1399 120.6 38.5299 119.61 37.6899C118.82 37.0199 117.77 36.6699 116.74 36.7199L116.32 36.7399L116.42 36.3299C116.98 33.9899 116.43 31.4799 114.95 29.5999C113.35 27.5699 110.75 26.4299 108.17 26.6099C105.74 26.7899 103.42 28.1799 102.1 30.2399L101.95 30.4799L101.7 30.3599C100.1 29.5899 98.0101 29.8899 96.7201 31.0599C95.4801 32.1899 94.9701 34.1299 95.5001 35.7699L95.6201 36.1399L95.2301 36.1799C94.2001 36.2799 93.1001 36.8299 92.2301 37.6999C91.3601 38.5599 90.9101 39.8699 91.0001 41.2699L91.0201 41.3499Z" fill="#1C1C1B"/>
<path d="M73.5305 190.551L73.4005 188.411C73.2705 186.371 73.9505 184.451 75.2805 183.141C76.0105 182.421 76.8305 181.861 77.6905 181.491C77.6705 179.591 78.4405 177.711 79.8405 176.431C81.0305 175.351 82.6805 174.731 84.3605 174.731C84.8205 174.731 85.2905 174.781 85.7405 174.871C87.4805 172.881 89.9505 171.621 92.6105 171.421C92.8505 171.401 93.0905 171.391 93.3205 171.391C96.4005 171.391 99.3805 172.831 101.271 175.241C102.731 177.101 103.481 179.451 103.421 181.801C104.221 182.051 104.97 182.461 105.62 183.011C107.201 184.351 107.721 186.631 107.691 188.321L107.641 190.551H73.5305Z" fill="#EEEEEE"/>
<path d="M105.79 188.659H75.3003L75.2802 188.289C75.1902 186.789 75.6703 185.399 76.6003 184.479C77.5403 183.549 78.7002 182.969 79.7902 182.869C79.2402 181.139 79.7503 179.059 81.1003 177.829C82.5003 176.549 84.7202 176.259 86.4302 177.079C87.8002 174.929 90.1903 173.489 92.7403 173.299C95.4303 173.109 98.1202 174.289 99.7902 176.399C101.33 178.359 101.89 180.989 101.31 183.389C102.42 183.339 103.54 183.709 104.4 184.439C105.48 185.349 105.83 187.069 105.8 188.269L105.79 188.659Z" fill="#EEEEEE"/>
<path d="M106.09 188.98H75.0004L74.9604 188.31C74.8604 186.72 75.3804 185.24 76.3704 184.25C77.2504 183.38 78.3304 182.79 79.3904 182.6C78.9704 180.81 79.5604 178.8 80.8904 177.59C82.3204 176.29 84.5104 175.93 86.3104 176.68C87.7704 174.55 90.1404 173.18 92.7104 172.99C95.5004 172.79 98.3004 174.02 100.03 176.21C101.54 178.13 102.15 180.67 101.7 183.08C102.76 183.12 103.79 183.52 104.6 184.2C105.76 185.18 106.14 187.01 106.11 188.28L106.09 188.98ZM75.5904 188.35H105.47V188.27C105.5 187.14 105.17 185.53 104.18 184.69C103.39 184.02 102.35 183.67 101.31 183.72L100.89 183.74L100.99 183.33C101.55 180.99 101 178.48 99.5204 176.6C97.9204 174.57 95.3204 173.43 92.7404 173.61C90.3104 173.79 87.9904 175.18 86.6704 177.24L86.5204 177.48L86.2704 177.36C84.6704 176.59 82.5804 176.89 81.2904 178.06C80.0504 179.19 79.5404 181.13 80.0704 182.77L80.1904 183.14L79.8004 183.18C78.7704 183.28 77.6804 183.83 76.8004 184.7C75.9304 185.56 75.4804 186.86 75.5704 188.27L75.5904 188.35Z" fill="#1C1C1B"/>
</svg>
