<svg width="167" height="198" viewBox="0 0 167 198" fill="none" xmlns="http://www.w3.org/2000/svg">
<path d="M166.57 197.97H0.429688V83.82C0.429688 38.01 37.6997 0.75 83.4997 0.75C129.3 0.75 166.57 38.02 166.57 83.82V197.97ZM1.18969 197.21H165.81V83.82C165.81 38.43 128.89 1.51 83.4997 1.51C38.1097 1.51 1.18969 38.43 1.18969 83.82V197.21Z" fill="#1C1C1B"/>
<path d="M28.7093 142.219C33.8953 142.219 38.0993 138.015 38.0993 132.829C38.0993 127.643 33.8953 123.439 28.7093 123.439C23.5234 123.439 19.3193 127.643 19.3193 132.829C19.3193 138.015 23.5234 142.219 28.7093 142.219Z" fill="#EEEEEE"/>
<path d="M28.7095 142.599C23.3195 142.599 18.9395 138.219 18.9395 132.829C18.9395 127.439 23.3195 123.059 28.7095 123.059C34.0995 123.059 38.4794 127.439 38.4794 132.829C38.4894 138.219 34.0995 142.599 28.7095 142.599ZM28.7095 123.819C23.7395 123.819 19.6994 127.859 19.6994 132.829C19.6994 137.799 23.7395 141.839 28.7095 141.839C33.6795 141.839 37.7195 137.799 37.7195 132.829C37.7295 127.859 33.6795 123.819 28.7095 123.819Z" fill="#1C1C1B"/>
<path d="M138.289 142.219C143.475 142.219 147.679 138.015 147.679 132.829C147.679 127.643 143.475 123.439 138.289 123.439C133.103 123.439 128.899 127.643 128.899 132.829C128.899 138.015 133.103 142.219 138.289 142.219Z" fill="#EEEEEE"/>
<path d="M138.29 142.599C132.9 142.599 128.52 138.219 128.52 132.829C128.52 127.439 132.9 123.059 138.29 123.059C143.68 123.059 148.06 127.439 148.06 132.829C148.06 138.219 143.68 142.599 138.29 142.599ZM138.29 123.819C133.32 123.819 129.28 127.859 129.28 132.829C129.28 137.799 133.32 141.839 138.29 141.839C143.26 141.839 147.3 137.799 147.3 132.829C147.3 127.859 143.26 123.819 138.29 123.819Z" fill="#1C1C1B"/>
<path d="M139.189 112.359V122.619C139.189 153.439 114.209 178.429 83.3793 178.429C52.5593 178.429 27.5693 153.449 27.5693 122.619V112.359" fill="#EEEEEE"/>
<path d="M83.3795 178.809C52.3995 178.809 27.1895 153.609 27.1895 122.619V112.359H27.9494V122.619C27.9494 153.179 52.8094 178.039 83.3694 178.039C113.929 178.039 138.789 153.179 138.789 122.619V112.359H139.549V122.619C139.569 153.609 114.359 178.809 83.3795 178.809Z" fill="#1C1C1B"/>
<path d="M60.3799 159.32C60.3799 159.32 63.1699 161.44 69.9099 161.44C76.6599 161.44 79.4399 159.32 79.4399 159.32" fill="white"/>
<path d="M69.9097 161.82C63.1097 161.82 60.2596 159.71 60.1396 159.62L60.5997 159.01C60.6297 159.03 63.3997 161.06 69.9097 161.06C76.4197 161.06 79.1896 159.03 79.2197 159.01L79.6796 159.62C79.5596 159.71 76.7097 161.82 69.9097 161.82Z" fill="#1C1C1B"/>
<path d="M86.7998 159.32C86.7998 159.32 89.5898 161.44 96.3298 161.44C103.07 161.44 105.86 159.32 105.86 159.32" fill="white"/>
<path d="M96.3393 161.82C89.5393 161.82 86.6893 159.71 86.5693 159.62L87.0293 159.01C87.0593 159.03 89.8293 161.06 96.3393 161.06C102.849 161.06 105.619 159.03 105.649 159.01L106.109 159.62C105.989 159.71 103.139 161.82 96.3393 161.82Z" fill="#1C1C1B"/>
<path d="M83.3793 121.318C114.202 121.318 139.189 117.253 139.189 112.238C139.189 107.223 114.202 103.158 83.3793 103.158C52.5563 103.158 27.5693 107.223 27.5693 112.238C27.5693 117.253 52.5563 121.318 83.3793 121.318Z" fill="black"/>
<path d="M83.3795 121.709C55.7595 121.709 27.1895 118.169 27.1895 112.249C27.1895 106.329 55.7595 102.789 83.3795 102.789C110.999 102.789 139.569 106.329 139.569 112.249C139.569 118.169 110.999 121.709 83.3795 121.709ZM83.3795 103.539C50.2295 103.539 27.9594 108.039 27.9594 112.239C27.9594 116.439 50.2295 120.939 83.3795 120.939C116.529 120.939 138.799 116.439 138.799 112.239C138.799 108.039 116.539 103.539 83.3795 103.539Z" fill="#1C1C1B"/>
<path d="M132.729 99.8C133.778 99.8 134.629 98.9493 134.629 97.9C134.629 96.8507 133.778 96 132.729 96C131.68 96 130.829 96.8507 130.829 97.9C130.829 98.9493 131.68 99.8 132.729 99.8Z" fill="#EEEEEE"/>
<path d="M132.729 100.179C131.469 100.179 130.449 99.1591 130.449 97.8991C130.449 96.6391 131.469 95.6191 132.729 95.6191C133.989 95.6191 135.009 96.6391 135.009 97.8991C135.009 99.1591 133.989 100.179 132.729 100.179ZM132.729 96.3792C131.889 96.3792 131.209 97.0591 131.209 97.8991C131.209 98.7391 131.889 99.4191 132.729 99.4191C133.569 99.4191 134.249 98.7391 134.249 97.8991C134.249 97.0591 133.569 96.3792 132.729 96.3792Z" fill="#1C1C1B"/>
<path d="M50.2292 96.3099C53.1673 96.3099 55.5492 93.9281 55.5492 90.9899C55.5492 88.0518 53.1673 85.6699 50.2292 85.6699C47.291 85.6699 44.9092 88.0518 44.9092 90.9899C44.9092 93.9281 47.291 96.3099 50.2292 96.3099Z" fill="#EEEEEE"/>
<path d="M50.2293 96.7008C47.0893 96.7008 44.5293 94.1408 44.5293 91.0008C44.5293 87.8608 47.0893 85.3008 50.2293 85.3008C53.3693 85.3008 55.9293 87.8608 55.9293 91.0008C55.9293 94.1408 53.3693 96.7008 50.2293 96.7008ZM50.2293 86.0508C47.4993 86.0508 45.2893 88.2708 45.2893 90.9908C45.2893 93.7108 47.5093 95.9308 50.2293 95.9308C52.9593 95.9308 55.1693 93.7108 55.1693 90.9908C55.1693 88.2708 52.9493 86.0508 50.2293 86.0508Z" fill="#1C1C1B"/>
<path d="M112.96 96.0016C114.429 96.0016 115.62 94.8107 115.62 93.3416C115.62 91.8726 114.429 90.6816 112.96 90.6816C111.491 90.6816 110.3 91.8726 110.3 93.3416C110.3 94.8107 111.491 96.0016 112.96 96.0016Z" fill="black"/>
<path d="M112.96 96.3808C111.28 96.3808 109.92 95.0208 109.92 93.3408C109.92 91.6608 111.28 90.3008 112.96 90.3008C114.64 90.3008 116 91.6608 116 93.3408C116 95.0208 114.64 96.3808 112.96 96.3808ZM112.96 91.0608C111.7 91.0608 110.68 92.0808 110.68 93.3408C110.68 94.6008 111.7 95.6208 112.96 95.6208C114.22 95.6208 115.24 94.6008 115.24 93.3408C115.24 92.0808 114.22 91.0608 112.96 91.0608Z" fill="#1C1C1B"/>
<path d="M60.3501 71.911C63.2827 71.911 65.66 69.5337 65.66 66.601C65.66 63.6684 63.2827 61.291 60.3501 61.291C57.4174 61.291 55.04 63.6684 55.04 66.601C55.04 69.5337 57.4174 71.911 60.3501 71.911Z" fill="black"/>
<path d="M60.35 74.1902L59.97 71.9702C59.31 68.0602 58.89 67.6402 54.97 66.9702L52.75 66.5902L54.97 66.2102C58.88 65.5502 59.3 65.1302 59.97 61.2102L60.35 58.9902L60.73 61.2102C61.39 65.1202 61.81 65.5402 65.73 66.2102L67.95 66.5902L65.73 66.9702C61.82 67.6302 61.4 68.0502 60.73 71.9702L60.35 74.1902ZM56.95 66.6002C59.03 67.1302 59.81 67.9202 60.35 70.0002C60.88 67.9202 61.67 67.1402 63.75 66.6002C61.67 66.0702 60.89 65.2802 60.35 63.2002C59.81 65.2802 59.03 66.0702 56.95 66.6002Z" fill="#1C1C1B"/>
<path d="M34.1099 100.39C35.3415 100.39 36.3399 99.3913 36.3399 98.1597C36.3399 96.9281 35.3415 95.9297 34.1099 95.9297C32.8783 95.9297 31.8799 96.9281 31.8799 98.1597C31.8799 99.3913 32.8783 100.39 34.1099 100.39Z" fill="black"/>
<path d="M34.1098 102.67L33.7298 100.46C33.4698 98.9102 33.3598 98.8001 31.8098 98.5401L29.5898 98.1702L31.8098 97.7901C33.3598 97.5301 33.4598 97.4201 33.7298 95.8701L34.1098 93.6602L34.4899 95.8701C34.7499 97.4201 34.8599 97.5301 36.4099 97.7901L38.6299 98.1702L36.4099 98.5401C34.8599 98.8001 34.7599 98.9102 34.4899 100.46L34.1098 102.67ZM33.3499 98.1602C33.7099 98.3302 33.9398 98.5701 34.1198 98.9301C34.2898 98.5701 34.5298 98.3402 34.8898 98.1602C34.5298 97.9902 34.2998 97.7502 34.1198 97.3902C33.9398 97.7502 33.6999 97.9902 33.3499 98.1602Z" fill="#1C1C1B"/>
<path d="M127.41 85.7694C129.111 85.7694 130.49 84.3904 130.49 82.6894C130.49 80.9883 129.111 79.6094 127.41 79.6094C125.709 79.6094 124.33 80.9883 124.33 82.6894C124.33 84.3904 125.709 85.7694 127.41 85.7694Z" fill="black"/>
<path d="M127.41 88.0501L127.03 85.8401C126.66 83.6501 126.45 83.4401 124.26 83.0701L122.04 82.6901L124.26 82.3101C126.45 81.9401 126.66 81.7301 127.03 79.5401L127.41 77.3301L127.79 79.5401C128.16 81.7301 128.37 81.9401 130.56 82.3101L132.78 82.6901L130.56 83.0701C128.37 83.4401 128.16 83.6501 127.79 85.8401L127.41 88.0501ZM125.98 82.6901C126.73 82.9701 127.13 83.3701 127.41 84.1201C127.68 83.3701 128.09 82.9701 128.84 82.6901C128.09 82.4201 127.69 82.0101 127.41 81.2601C127.13 82.0101 126.73 82.4201 125.98 82.6901Z" fill="#1C1C1B"/>
<path d="M83.5001 95.3694C91.8562 95.3694 98.6301 88.5954 98.6301 80.2394C98.6301 71.8833 91.8562 65.1094 83.5001 65.1094C75.1441 65.1094 68.3701 71.8833 68.3701 80.2394C68.3701 88.5954 75.1441 95.3694 83.5001 95.3694Z" fill="black"/>
<path d="M83.5001 97.6501L83.1201 95.4401C81.2001 84.0701 79.6701 82.5501 68.3001 80.6201L66.0801 80.2401L68.3001 79.8601C79.6701 77.9401 81.1901 76.4101 83.1201 65.0401L83.5001 62.8301L83.8801 65.0401C85.8001 76.4101 87.3301 77.9301 98.6901 79.8601L100.91 80.2401L98.6901 80.6201C87.3201 82.5401 85.8001 84.0701 83.8801 95.4401L83.5001 97.6501ZM70.5401 80.2401C79.7201 81.9801 81.7601 84.0201 83.5001 93.2001C85.2401 84.0201 87.2801 81.9801 96.4601 80.2401C87.2801 78.5001 85.2401 76.4601 83.5001 67.2801C81.7601 76.4601 79.7201 78.5001 70.5401 80.2401Z" fill="#1C1C1B"/>
</svg>
